<svg width="176" height="176" viewBox="0 0 176 176" fill="none" xmlns="http://www.w3.org/2000/svg">
<path d="M111.769 150.26C98.0975 161.627 77.9069 161.627 64.2357 150.264C56.589 143.908 52.2066 135.285 51.0548 126.323C62.0153 127.291 73.315 123.596 81.6905 115.225C81.7151 115.195 81.7404 115.17 81.7656 115.145C85.2349 111.659 90.7652 111.659 94.2348 115.145C94.2597 115.17 94.2849 115.195 94.3142 115.225C102.685 123.596 113.985 127.291 124.946 126.323C123.798 135.285 119.411 143.904 111.769 150.26ZM25.7356 111.764C14.3727 98.093 14.3727 77.9023 25.74 64.2309C32.0957 56.5888 40.714 52.2017 49.676 51.0539C48.7084 62.0147 52.4036 73.3142 60.7744 81.6896C60.804 81.7146 60.8289 81.7398 60.8542 81.7647C64.3398 85.2337 64.3398 90.7643 60.8542 94.2336C60.8289 94.2588 60.804 94.2841 60.7744 94.309C52.4033 102.684 48.7084 113.984 49.676 124.945C40.714 123.793 32.0917 119.41 25.7356 111.764V111.764ZM64.2314 25.7394C77.9025 14.3725 98.0935 14.3725 111.764 25.7351C119.411 32.0915 123.793 40.7138 124.945 49.6755C113.985 48.7078 102.685 52.4031 94.3095 60.7789C94.2846 60.8038 94.2594 60.8287 94.2344 60.854C90.7648 64.3399 85.2346 64.3399 81.7653 60.854C81.74 60.8287 81.7151 60.8038 81.6859 60.7789C73.3147 52.4031 62.0149 48.7078 51.0544 49.6755C52.2022 40.7138 56.589 32.0951 64.2314 25.7394ZM92.655 92.6544C97.1338 92.1138 101.529 90.7939 105.626 88.6864C108.765 90.3708 111.714 92.5285 114.362 95.172C122.532 103.346 126.11 114.399 125.092 125.092C114.4 126.109 103.347 122.532 95.1729 114.361C92.5294 111.714 90.3714 108.764 88.6872 105.626C90.7944 101.528 92.1143 97.1329 92.655 92.6541V92.6544ZM84.5899 92.7884C86.8566 92.9894 89.1438 92.9894 91.4105 92.7884C90.9037 96.7395 89.7686 100.619 88 104.269C86.2322 100.619 85.0966 96.7395 84.5899 92.7884ZM83.3451 92.6544C83.8857 97.1333 85.2057 101.528 87.3131 105.626C85.6287 108.764 83.471 111.714 80.8272 114.362C72.6531 122.532 61.6002 126.11 50.9079 125.092C49.89 114.399 53.468 103.347 61.6381 95.1723C64.2859 92.5288 67.2355 90.3712 70.3738 88.6867C74.4715 90.7942 78.8666 92.1138 83.3451 92.6544ZM83.2111 84.589C83.0098 86.8557 83.0098 89.1433 83.2111 91.4099C79.26 90.9028 75.3846 89.7673 71.7309 87.9995C75.3846 86.2313 79.26 85.0958 83.2111 84.589ZM83.3451 83.3449C78.8662 83.8855 74.4715 85.2051 70.3738 87.3126C67.2358 85.6285 64.2859 83.4705 61.6381 80.827C53.468 72.6525 49.89 61.6 50.9079 50.9077C61.6002 49.8895 72.6531 53.4678 80.8272 61.6379C83.471 64.2857 85.6287 67.2353 87.3131 70.3736C85.2057 74.4709 83.8857 78.8664 83.3451 83.3452V83.3449ZM91.4105 83.2106C89.1438 83.0096 86.8566 83.0096 84.5899 83.2106C85.0966 79.2598 86.2322 75.3844 88 71.7307C89.7686 75.3844 90.9037 79.2598 91.4105 83.2106ZM92.655 83.3449C92.1143 78.866 90.7944 74.4709 88.6872 70.3732C90.3714 67.2349 92.529 64.2854 95.1729 61.6376C103.347 53.4675 114.4 49.8892 125.092 50.9074C126.11 61.5997 122.532 72.6522 114.362 80.8266C111.714 83.4701 108.765 85.6281 105.626 87.3123C101.529 85.2048 97.1338 83.8852 92.655 83.3445V83.3449ZM91.557 91.5568C89.194 91.7831 86.806 91.7831 84.4427 91.5568C84.2164 89.1938 84.2164 86.8055 84.4427 84.4428C86.8057 84.2165 89.1897 84.2165 91.557 84.4428C91.7833 86.8102 91.7833 89.1938 91.557 91.5568ZM92.7889 84.589C96.7397 85.0961 100.615 86.2316 104.269 87.9995C100.615 89.7673 96.7397 90.9028 92.7889 91.4099C92.99 89.1433 92.99 86.8557 92.7889 84.589ZM150.264 64.2352C161.627 77.9067 161.627 98.0973 150.26 111.768C143.904 119.41 135.286 123.797 126.324 124.945C127.292 113.985 123.596 102.685 115.221 94.3136C111.731 90.8277 111.731 85.1715 115.221 81.69C123.597 73.3145 127.292 62.0147 126.324 51.0542C135.286 52.2064 143.909 56.5892 150.264 64.2352ZM151.111 112.652C162.964 98.4951 162.964 77.5002 151.106 63.3426C148.534 60.2675 145.601 57.7074 142.429 55.663C133.602 49.9606 126.039 42.398 120.337 33.5702C118.292 30.3984 115.732 27.4654 112.657 24.893C98.4996 13.0363 77.5051 13.0363 63.3472 24.8891C60.272 27.4658 57.7079 30.3984 55.6632 33.5659C49.9612 42.398 42.3985 49.9606 33.5665 55.663C30.3992 57.7117 27.466 60.2718 24.8893 63.347C13.0362 77.5039 13.0362 98.4991 24.8936 112.656C27.466 115.732 30.3992 118.292 33.5708 120.336C42.3985 126.039 49.9612 133.601 55.6632 142.429C57.7079 145.601 60.268 148.534 63.3432 151.106C77.5005 162.963 98.4953 162.963 112.653 151.111C115.728 148.534 118.288 145.601 120.337 142.433C126.039 133.601 133.602 126.039 142.434 120.337C145.601 118.288 148.534 115.728 151.111 112.652Z" fill="black"/>
</svg>
