<svg width="144" height="145" viewBox="0 0 144 145" fill="none" xmlns="http://www.w3.org/2000/svg">
<path d="M143.992 73.4541H0C0.11316 79.4214 0.958082 85.2077 2.44425 90.7375H141.556C143.042 85.2077 143.879 79.4214 144 73.4541H143.992Z" fill="black"/>
<path d="M140.71 93.6191H3.28125C4.87304 98.6812 7.00037 103.509 9.61815 108.021H134.373C136.984 103.509 139.119 98.6812 140.71 93.6191Z" fill="black"/>
<path d="M132.615 110.903H11.375C14.0456 115.053 17.131 118.915 20.5711 122.423H123.419C126.859 118.915 129.944 115.053 132.615 110.903Z" fill="black"/>
<path d="M120.431 125.305H23.5586C27.8511 129.212 32.619 132.6 37.7565 135.384H106.226C111.371 132.6 116.131 129.205 120.424 125.305H120.431Z" fill="black"/>
<path d="M100.265 138.265H43.7227C52.4058 141.976 61.9565 144.028 71.9976 144.028C82.0387 144.028 91.5818 141.976 100.273 138.265H100.265Z" fill="black"/>
<path d="M143.992 70.5718H0C0.15088 62.7637 1.54656 55.2574 3.99836 48.249H140.002C142.454 55.2574 143.849 62.7637 144 70.5718H143.992Z" fill="black"/>
<path d="M138.912 45.3697C128.32 18.7846 102.354 0 71.9893 0C41.6247 0 15.6657 18.7846 5.06641 45.3697H138.905H138.912Z" fill="black"/>
</svg>
