<svg width="144" height="144" viewBox="0 0 144 144" fill="none" xmlns="http://www.w3.org/2000/svg">
<mask id="mask0_414_3094" style="mask-type:luminance" maskUnits="userSpaceOnUse" x="-1" y="0" width="145" height="145">
<path d="M144 0H-0.00390636V144.004H144V0Z" fill="white"/>
</mask>
<g mask="url(#mask0_414_3094)">
<path d="M83.8894 116.057C82.825 116.344 81.74 115.662 81.528 114.577L76.4846 88.4068L85.1993 113.595C85.5609 114.639 84.9581 115.77 83.8894 116.057ZM104.284 104.282C103.506 105.063 102.225 105.018 101.502 104.182L84.0429 84.0413L104.188 101.496C105.019 102.219 105.065 103.5 104.284 104.282ZM116.059 83.8875C115.776 84.9561 114.641 85.5546 113.598 85.1931L88.4091 76.478L114.583 81.5257C115.668 81.7334 116.346 82.8188 116.059 83.8875ZM114.583 62.6989L88.4091 67.7467L113.598 59.0316C114.641 58.6697 115.776 59.2729 116.059 60.3372C116.346 61.4056 115.668 62.4909 114.583 62.6989H114.583ZM104.188 42.7287L84.0432 60.1834L101.502 40.0426C102.226 39.2109 103.506 39.1653 104.284 39.9429C105.066 40.7248 105.02 42.0052 104.188 42.7287ZM85.199 30.6333L76.4843 55.8175L81.5277 29.6481C81.7397 28.5628 82.825 27.8852 83.889 28.172C84.9577 28.4544 85.5605 29.5856 85.199 30.6333ZM59.0379 30.6333C58.6763 29.5856 59.2748 28.4544 60.3435 28.172C61.4079 27.8848 62.4971 28.5628 62.7052 29.6481L67.7486 55.8175L59.0375 30.6333H59.0379ZM40.0485 42.7287C39.2128 42.0052 39.1673 40.7245 39.9492 39.9429C40.7305 39.1653 42.0072 39.2112 42.7306 40.0426L60.1893 60.1834L40.0485 42.7287ZM29.65 62.7033C28.5647 62.4909 27.8871 61.4059 28.1739 60.3372C28.461 59.2729 29.5918 58.6697 30.6356 59.0316L55.8241 67.7467L29.65 62.7033ZM30.6353 85.1931C29.5915 85.5546 28.4607 84.9561 28.1736 83.8875C27.8868 82.8231 28.5644 81.7338 29.6497 81.5257L55.8234 76.478L30.6353 85.1931ZM42.7309 104.182C42.0115 105.018 40.7308 105.063 39.9495 104.282C39.1676 103.5 39.2131 102.219 40.0489 101.496L60.1896 84.041L42.7309 104.182ZM62.7052 114.577C62.4971 115.662 61.4079 116.344 60.3435 116.057C59.2748 115.77 58.6763 114.639 59.0379 113.595L67.7529 88.4068L62.7052 114.577ZM108.001 134.351C106.084 135.462 103.627 134.709 102.658 132.713L79.2866 84.6152L109.257 128.905C110.495 130.738 109.922 133.246 108.001 134.351ZM134.358 107.999C133.247 109.92 130.744 110.494 128.907 109.251L84.6171 79.2807L132.715 102.652C134.711 103.621 135.463 106.078 134.358 107.999ZM139.908 75.8084L86.5711 71.9998L139.908 68.1873C142.12 68.0291 144.004 69.7797 144.004 71.9998C144.004 74.22 142.12 75.9666 139.908 75.8084ZM132.719 41.3439L84.6171 64.7153L128.907 34.7453C130.744 33.5022 133.247 34.0757 134.358 35.9968C135.464 37.9175 134.711 40.3753 132.719 41.3439ZM109.257 15.0914L79.2866 59.3812L102.658 11.2828C103.627 9.287 106.084 8.53464 108.001 9.64454C109.922 10.7505 110.499 13.2577 109.257 15.0914ZM72.0021 57.4305L68.1932 4.08941C68.0354 1.87757 69.7856 -0.00195318 72.0021 -0.00195318C74.2186 -0.00195318 75.9685 1.87757 75.8107 4.08941L72.0021 57.4305ZM34.7476 15.0914C33.5044 13.2577 34.082 10.7505 35.9991 9.64454C37.9198 8.53464 40.3772 9.287 41.3458 11.2828L64.7173 59.3812L34.7476 15.0914ZM11.2845 41.3439C9.29262 40.3753 8.54026 37.9178 9.64617 35.9971C10.7567 34.0804 13.2597 33.5021 15.0973 34.7456L59.3871 64.7157L11.2845 41.3439ZM4.09168 75.8084C1.87952 75.9666 0 74.216 0 71.9998C0 69.7837 1.87952 68.0291 4.09168 68.1873L57.4328 71.9998L4.09168 75.8084ZM15.0973 109.255C13.2597 110.494 10.7567 109.92 9.64617 107.999C8.54026 106.078 9.29295 103.621 11.2845 102.652L59.3871 79.2804L15.0973 109.255ZM41.3458 132.713C40.3772 134.709 37.9201 135.462 35.9991 134.351C34.082 133.246 33.5044 130.738 34.7476 128.905L64.7173 84.6152L41.3458 132.713ZM72.0021 143.998C69.7856 143.998 68.0354 142.118 68.1932 139.906L72.0021 86.5652L75.8107 139.906C75.9685 142.118 74.2183 143.998 72.0021 143.998Z" fill="black"/>
</g>
</svg>
