<svg width="176" height="176" viewBox="0 0 176 176" fill="none" xmlns="http://www.w3.org/2000/svg">
<rect width="176" height="176" fill="white"/>
<path fill-rule="evenodd" clip-rule="evenodd" d="M88.3583 89.3766C93.5704 106.499 109.493 118.96 128.32 118.96C139.25 118.96 149.206 114.758 156.643 107.879C157.466 107.125 158.816 107.479 159.057 108.566C159.676 111.454 160 114.449 160 117.519C160 140.977 140.985 160 117.519 160C94.0532 160 75.0377 140.977 75.0377 117.519C75.0377 106.227 79.4426 95.969 86.6234 88.3583C69.5012 93.5704 57.0404 109.493 57.0404 128.32C57.0404 139.25 61.2419 149.206 68.1134 156.643C68.8753 157.466 68.5206 158.816 67.4345 159.057C64.5456 159.676 61.5512 160 58.4812 160C35.0231 160 16 140.977 16 117.519C16 94.0607 35.0231 75.0377 58.4812 75.0377C69.7729 75.0377 80.031 79.4427 87.6417 86.6235C82.4296 69.5013 66.5068 57.0405 47.6799 57.0405C36.7503 57.0405 26.7937 61.2343 19.3565 68.1133C18.5344 68.8752 17.1842 68.5206 16.9429 67.4345C16.3243 64.5456 16 61.5511 16 58.4811C16 35.023 35.0155 16 58.4812 16C81.947 16 100.962 35.023 100.962 58.4811C100.962 69.7728 96.5574 80.031 89.3766 87.6417C106.499 82.4296 118.96 66.5068 118.96 47.6799C118.96 36.7503 114.758 26.7937 107.887 19.349C107.125 18.5343 107.479 17.1842 108.566 16.9429C111.454 16.3243 114.449 16 117.519 16C140.977 16 160 35.0154 160 58.4811C160 81.9469 140.977 100.962 117.519 100.962C106.227 100.962 95.969 96.5574 88.3583 89.3766Z" fill="black"/>
</svg>
