<svg width="176" height="176" viewBox="0 0 176 176" fill="none" xmlns="http://www.w3.org/2000/svg">
<rect width="176" height="176" fill="white"/>
<mask id="mask0_395_9994" style="mask-type:luminance" maskUnits="userSpaceOnUse" x="16" y="16" width="144" height="144">
<path d="M160 16H16V160H160V16Z" fill="white"/>
</mask>
<g mask="url(#mask0_395_9994)">
<path d="M131.055 153.618C144.595 159.804 160 149.892 160 134.99V161.785C119.755 161.325 87.1568 128.424 87.1568 88.0305C87.1568 47.6369 119.754 14.7361 160 14.276V42.778C160 27.8756 144.595 16.2515 131.055 22.4429C106.185 33.8027 88.8602 58.9241 88.8602 88.0305C88.8602 117.137 106.185 142.258 131.055 153.618V153.618ZM16 161.729V134.931C16 149.833 31.4047 159.749 44.9491 153.563C69.8147 142.203 87.1442 117.077 87.1442 87.975C87.1442 58.8727 69.8151 33.7472 44.9491 22.383C31.4047 16.1964 16 27.816 16 42.7188V14.2168C56.2449 14.6765 88.8473 47.581 88.8473 87.975C88.8473 128.369 56.2449 161.269 16 161.729Z" fill="black"/>
</g>
</svg>
