<svg width="176" height="176" viewBox="0 0 176 176" fill="none" xmlns="http://www.w3.org/2000/svg">
<rect width="176" height="176" fill="white"/>
<path d="M151.969 31.9544C151.957 31.9544 150.956 31.9503 149.968 31.4532C149.057 30.9938 147.972 30.0181 147.972 27.9497C147.972 27.9309 147.96 27.9198 147.945 27.9198C147.93 27.9198 147.915 27.9309 147.915 27.9497C147.915 30.0181 146.83 30.9975 145.923 31.4532C144.932 31.9506 143.934 31.9544 143.922 31.9544H143.914C143.903 31.9581 143.896 31.9691 143.896 31.9806C143.896 31.9994 143.907 32.0108 143.922 32.0108C143.934 32.0108 144.935 32.0182 145.923 32.5116C146.834 32.9714 147.915 33.9471 147.915 36.0152C147.915 36.034 147.93 36.0454 147.945 36.0454C147.96 36.0454 147.972 36.034 147.972 36.0152C147.972 33.9471 149.057 32.9674 149.968 32.5116C150.955 32.0182 151.957 32.0108 151.969 32.0108H151.972C151.988 32.0068 151.995 31.9954 151.995 31.9806C151.995 31.9658 151.984 31.9544 151.968 31.9544H151.969ZM153.691 47.1922C153.675 47.1922 152.244 47.1849 150.835 46.4727C149.535 45.8207 147.983 44.4231 147.983 41.4698C147.983 41.4473 147.968 41.4281 147.946 41.4281C147.923 41.4281 147.904 41.447 147.904 41.4698C147.904 44.4234 146.356 45.8247 145.052 46.4764C143.644 47.1848 142.212 47.1922 142.197 47.1922H142.19C142.171 47.1959 142.16 47.2111 142.16 47.2339C142.16 47.2527 142.175 47.2716 142.197 47.2716C142.212 47.2716 143.644 47.283 145.056 47.9911C146.356 48.6428 147.904 50.0404 147.904 52.9977C147.904 53.0166 147.923 53.0354 147.946 53.0354C147.968 53.0354 147.983 53.0166 147.983 52.9977C147.983 50.0407 149.535 48.6391 150.835 47.9874C152.248 47.2793 153.675 47.2716 153.691 47.2716H153.702C153.717 47.2675 153.732 47.2527 153.732 47.2339C153.732 47.2111 153.713 47.1922 153.691 47.1922ZM155.129 65.3125C155.111 65.3125 153.321 65.3011 151.555 64.4121C149.931 63.5984 147.994 61.8504 147.994 58.1549C147.994 58.1284 147.972 58.1058 147.945 58.1058C147.915 58.1058 147.896 58.1284 147.896 58.1549C147.896 61.8504 145.956 63.5984 144.329 64.4158C142.566 65.3011 140.78 65.3125 140.761 65.3125C140.761 65.3125 140.761 65.3085 140.757 65.3125H140.75C140.727 65.3162 140.712 65.3351 140.712 65.3616C140.712 65.3881 140.735 65.4106 140.761 65.4106C140.78 65.4106 142.569 65.4221 144.332 66.3073C145.96 67.1247 147.896 68.8725 147.896 72.5646C147.896 72.5945 147.915 72.6173 147.945 72.6173C147.972 72.6173 147.994 72.5948 147.994 72.5646C147.994 68.8688 149.934 67.1207 151.558 66.3073C153.324 65.4221 155.11 65.4106 155.129 65.4106H155.136C155.159 65.4069 155.178 65.3844 155.178 65.3616C155.178 65.3313 155.155 65.3125 155.129 65.3125H155.129ZM156.327 86.9397C156.305 86.9397 154.218 86.9283 152.157 85.8961C150.262 84.9432 148.002 82.9051 148.002 78.5953C148.002 78.5614 147.976 78.5348 147.945 78.5348C147.911 78.5348 147.885 78.5614 147.885 78.5953C147.885 82.9051 145.625 84.947 143.73 85.8961C141.67 86.9283 139.586 86.9397 139.564 86.9397H139.56C139.557 86.9397 139.556 86.941 139.556 86.9437H139.552C139.526 86.9474 139.507 86.9699 139.507 87.0002C139.507 87.0304 139.534 87.0567 139.564 87.0567C139.586 87.0567 141.674 87.0721 143.734 88.1042C145.629 89.0571 147.885 91.0952 147.885 95.4047C147.885 95.4387 147.912 95.4649 147.946 95.4649C147.976 95.4649 148.002 95.4387 148.002 95.4047C148.002 91.0915 150.266 89.0534 152.161 88.1042C154.222 87.0681 156.305 87.0567 156.328 87.0567H156.339C156.365 87.0533 156.384 87.0264 156.384 87.0002C156.384 86.9662 156.358 86.94 156.328 86.94L156.327 86.9397ZM157.522 109.573C157.499 109.573 155.111 109.558 152.76 108.375C150.593 107.29 148.01 104.958 148.01 100.034C148.01 99.9966 147.983 99.9664 147.945 99.9664C147.908 99.9664 147.877 99.9966 147.877 100.034C147.877 104.962 145.293 107.29 143.127 108.379C140.773 109.558 138.392 109.573 138.365 109.573H138.354C138.324 109.58 138.301 109.606 138.301 109.641C138.301 109.674 138.331 109.705 138.365 109.705C138.392 109.705 140.777 109.72 143.131 110.903C145.297 111.987 147.877 114.32 147.877 119.247C147.877 119.281 147.908 119.311 147.945 119.311C147.983 119.311 148.01 119.281 148.01 119.247C148.01 114.316 150.593 111.987 152.763 110.899C155.118 109.72 157.499 109.704 157.521 109.704H157.536C157.566 109.697 157.589 109.671 157.589 109.64C157.589 109.603 157.559 109.573 157.521 109.573L157.522 109.573ZM159.918 135.906C159.887 135.906 156.904 135.887 153.962 134.41C151.257 133.05 148.028 130.138 148.028 123.983C148.028 123.937 147.991 123.9 147.945 123.9C147.9 123.9 147.863 123.937 147.863 123.983C147.863 130.142 144.63 133.054 141.922 134.414C138.979 135.891 136.003 135.906 135.973 135.906C135.943 135.906 132.96 135.887 130.017 134.41C127.312 133.05 124.084 130.138 124.084 123.983C124.084 123.937 124.046 123.9 124.001 123.9C123.956 123.9 123.918 123.937 123.918 123.983C123.918 130.142 120.686 133.054 117.977 134.414C115.31 135.751 112.617 135.891 112.112 135.906C111.61 135.891 108.906 135.751 106.239 134.41C103.534 133.05 100.305 130.138 100.305 123.983C100.305 123.937 100.268 123.9 100.223 123.9C100.177 123.9 100.14 123.937 100.14 123.983C100.14 130.142 96.9072 133.054 94.1986 134.414C91.2563 135.891 88.2805 135.906 88.2502 135.906H88.2351C88.2351 135.906 88.2314 135.906 88.2314 135.909C88.1938 135.917 88.1672 135.951 88.1672 135.989C88.1672 136.034 88.2012 136.071 88.2502 136.071C88.2805 136.071 91.26 136.09 94.2023 137.567C96.9109 138.927 100.14 141.839 100.14 147.998C100.14 148.043 100.177 148.081 100.223 148.081C100.268 148.081 100.305 148.043 100.305 147.998C100.305 141.835 103.534 138.923 106.246 137.567C108.91 136.23 111.607 136.09 112.112 136.075C112.613 136.09 115.314 136.23 117.981 137.567C120.689 138.927 123.918 141.839 123.918 147.998C123.918 148.043 123.956 148.081 124.001 148.081C124.046 148.081 124.084 148.043 124.084 147.998C124.084 141.835 127.312 138.923 130.025 137.567C132.963 136.09 135.943 136.071 135.973 136.071C136.003 136.071 138.983 136.09 141.925 137.567C144.634 138.927 147.862 141.839 147.862 147.998C147.862 148.043 147.9 148.081 147.945 148.081C147.99 148.081 148.028 148.043 148.028 147.998C148.028 141.835 151.256 138.923 153.969 137.567C156.911 136.09 159.887 136.071 159.917 136.071C159.917 136.071 159.921 136.075 159.921 136.071H159.932C159.97 136.064 160 136.03 160 135.989C160 135.943 159.963 135.906 159.918 135.906ZM128.025 31.9544C128.013 31.9544 127.011 31.9503 126.021 31.4532C125.113 30.9938 124.028 30.0181 124.028 27.9497C124.028 27.9309 124.017 27.9198 124.002 27.9198C123.987 27.9198 123.971 27.9309 123.971 27.9497C123.971 30.0181 122.886 30.9975 121.975 31.4532C120.988 31.9506 119.989 31.9544 119.978 31.9544H119.971C119.959 31.9581 119.948 31.9691 119.948 31.9806C119.948 31.9994 119.963 32.0108 119.978 32.0108C119.989 32.0108 120.992 32.0182 121.979 32.5116C122.886 32.9714 123.971 33.9471 123.971 36.0152C123.971 36.034 123.987 36.0454 124.002 36.0454C124.017 36.0454 124.028 36.034 124.028 36.0152C124.028 33.9471 125.113 32.9674 126.025 32.5116C127.012 32.0182 128.014 32.0108 128.025 32.0108H128.029C128.04 32.0068 128.051 31.9954 128.051 31.9806C128.051 31.9658 128.04 31.9544 128.025 31.9544ZM104.246 31.9544C104.235 31.9544 103.233 31.9503 102.242 31.4532C101.334 30.9938 100.249 30.0181 100.249 27.9497C100.249 27.9309 100.238 27.9198 100.223 27.9198C100.208 27.9198 100.193 27.9309 100.193 27.9497C100.193 30.0181 99.1074 30.9975 98.1955 31.4532C97.2087 31.9506 96.2101 31.9544 96.199 31.9544H96.1914C96.1799 31.9581 96.1688 31.9691 96.1688 31.9806C96.1688 31.9994 96.1839 32.0108 96.199 32.0108C96.2101 32.0108 97.2124 32.0182 98.1992 32.5116C99.1073 32.9714 100.192 33.9471 100.192 36.0152C100.192 36.034 100.207 36.0454 100.223 36.0454C100.237 36.0454 100.249 36.034 100.249 36.0152C100.249 33.9471 101.334 32.9674 102.246 32.5116C103.232 32.0182 104.235 32.0108 104.246 32.0108H104.25C104.261 32.0068 104.272 31.9954 104.272 31.9806C104.272 31.9658 104.261 31.9544 104.246 31.9544H104.246ZM80.1326 31.9544C80.1252 31.9544 79.123 31.9503 78.1322 31.4532C77.2244 30.9938 76.1394 30.0181 76.1394 27.9497C76.1394 27.9309 76.128 27.9198 76.1092 27.9198C76.0941 27.9198 76.083 27.9309 76.083 27.9497C76.083 30.0181 74.9977 30.9975 74.0862 31.4532C73.0991 31.9506 72.0968 31.9544 72.0894 31.9544H72.0823C72.0712 31.9581 72.0598 31.9691 72.0598 31.9806C72.0598 31.9994 72.0749 32.0108 72.0897 32.0108C72.0974 32.0108 73.0997 32.0182 74.0905 32.5116C74.998 32.9714 76.0833 33.9471 76.0833 36.0152C76.0833 36.034 76.0947 36.0454 76.1095 36.0454C76.1283 36.0454 76.1397 36.034 76.1397 36.0152C76.1397 33.9471 77.2247 32.9674 78.1362 32.5116C79.123 32.0182 80.1252 32.0108 80.1326 32.0108H80.14C80.1515 32.0068 80.1629 31.9954 80.1629 31.9806C80.1629 31.9658 80.1478 31.9544 80.1326 31.9544ZM56.1884 31.9544C56.1807 31.9544 55.1787 31.9503 54.1879 31.4532C53.2801 30.9938 52.1952 30.0181 52.1952 27.9497C52.1952 27.9309 52.18 27.9198 52.1649 27.9198C52.1498 27.9198 52.1384 27.9309 52.1384 27.9497C52.1384 30.0181 51.0537 30.9975 50.1419 31.4532C49.1551 31.9506 48.1529 31.9544 48.1455 31.9544H48.1381C48.1266 31.9581 48.1152 31.9691 48.1152 31.9806C48.1152 31.9994 48.1266 32.0108 48.1455 32.0108C48.1529 32.0108 49.1554 32.0182 50.1459 32.5116C51.0541 32.9714 52.1387 33.9471 52.1387 36.0152C52.1387 36.034 52.1501 36.0454 52.1652 36.0454C52.1803 36.0454 52.1955 36.034 52.1955 36.0152C52.1955 33.9471 53.2804 32.9674 54.1919 32.5116C55.179 32.0182 56.181 32.0108 56.1887 32.0108H56.1961C56.2075 32.0068 56.2186 31.9954 56.2186 31.9806C56.2186 31.9658 56.2035 31.9544 56.1884 31.9544ZM32.0784 31.9544C32.067 31.9544 31.0651 31.9503 30.078 31.4532C29.1661 30.9938 28.0852 30.0181 28.0852 27.9497C28.0852 27.9309 28.0701 27.9198 28.055 27.9198C28.0398 27.9198 28.0287 27.9309 28.0287 27.9497C28.0287 30.0181 26.9438 30.9975 26.032 31.4532C25.0452 31.9506 24.0429 31.9544 24.0315 31.9544H24.0278C24.0127 31.9581 24.0053 31.9691 24.0053 31.9806C24.0053 31.9994 24.0167 32.0108 24.0315 32.0108C24.0429 32.0108 25.0452 32.0182 26.032 32.5116C26.9438 32.9714 28.0287 33.9471 28.0287 36.0152C28.0287 36.034 28.0402 36.0454 28.055 36.0454C28.0698 36.0454 28.0852 36.034 28.0852 36.0152C28.0852 33.9471 29.1702 32.9674 30.078 32.5116C31.0688 32.0182 32.067 32.0108 32.0784 32.0108H32.0859C32.0973 32.0068 32.1047 31.9954 32.1047 31.9806C32.1047 31.9658 32.0936 31.9544 32.0784 31.9544ZM129.746 47.1922C129.731 47.1922 128.3 47.1849 126.887 46.4727C125.587 45.8207 124.039 44.4231 124.039 41.4698C124.039 41.4473 124.024 41.4281 124.002 41.4281C123.979 41.4281 123.96 41.447 123.96 41.4698C123.96 44.4234 122.412 45.8247 121.109 46.4764C119.696 47.1848 118.268 47.1922 118.253 47.1922H118.245C118.226 47.1959 118.215 47.2111 118.215 47.2339C118.215 47.2527 118.23 47.2716 118.253 47.2716C118.268 47.2716 119.699 47.283 121.112 47.9911C122.412 48.6428 123.96 50.0404 123.96 52.9977C123.96 53.0166 123.979 53.0354 124.002 53.0354C124.024 53.0354 124.039 53.0166 124.039 52.9977C124.039 50.0407 125.591 48.6391 126.891 47.9874C128.304 47.2793 129.732 47.2716 129.747 47.2716H129.754C129.773 47.2675 129.788 47.2527 129.788 47.2339C129.788 47.2111 129.77 47.1922 129.747 47.1922H129.746ZM131.185 65.3125C131.166 65.3125 129.377 65.3011 127.61 64.4121C125.987 63.5984 124.05 61.8504 124.05 58.1549C124.05 58.1284 124.028 58.1058 124.001 58.1058C123.971 58.1058 123.949 58.1284 123.949 58.1549C123.949 61.8504 122.012 63.5984 120.385 64.4158C118.622 65.3011 116.836 65.3125 116.818 65.3125C116.818 65.3125 116.813 65.3085 116.813 65.3125H116.806C116.784 65.3162 116.768 65.3351 116.768 65.3616C116.768 65.3881 116.791 65.4106 116.818 65.4106C116.836 65.4106 118.626 65.4221 120.389 66.3073C122.012 67.1247 123.949 68.8725 123.949 72.5646C123.949 72.5945 123.971 72.6173 124.002 72.6173C124.028 72.6173 124.05 72.5948 124.05 72.5646C124.05 68.8688 125.987 67.1207 127.614 66.3073C129.381 65.4221 131.167 65.4106 131.186 65.4106H131.194C131.216 65.4069 131.235 65.3844 131.235 65.3616C131.235 65.3313 131.212 65.3125 131.186 65.3125H131.185ZM132.379 86.9397C132.361 86.9397 130.273 86.9283 128.213 85.8961C126.318 84.9432 124.058 82.9051 124.058 78.5953C124.058 78.5614 124.031 78.5348 124.001 78.5348C123.967 78.5348 123.941 78.5614 123.941 78.5953C123.941 82.9051 121.681 84.947 119.786 85.8961C117.725 86.9283 115.642 86.9397 115.619 86.9397H115.615C115.613 86.9397 115.612 86.941 115.612 86.9437H115.608C115.582 86.9474 115.563 86.9699 115.563 87.0002C115.563 87.0304 115.589 87.0567 115.619 87.0567C115.642 87.0567 117.729 87.0721 119.786 88.1042C121.685 89.0571 123.941 91.0952 123.941 95.4047C123.941 95.4387 123.968 95.4649 124.001 95.4649C124.031 95.4649 124.058 95.4387 124.058 95.4047C124.058 91.0915 126.318 89.0534 128.216 88.1042C130.277 87.0681 132.36 87.0567 132.379 87.0567H132.394C132.421 87.0533 132.439 87.0264 132.439 87.0002C132.439 86.9662 132.413 86.94 132.379 86.94L132.379 86.9397ZM133.578 109.573C133.555 109.573 131.166 109.558 128.816 108.375C126.65 107.29 124.065 104.958 124.065 100.034C124.065 99.9966 124.039 99.9664 124.001 99.9664C123.964 99.9664 123.933 99.9966 123.933 100.034C123.933 104.962 121.349 107.29 119.183 108.379C116.829 109.558 114.448 109.573 114.421 109.573H114.41C114.38 109.58 114.358 109.606 114.358 109.641C114.358 109.674 114.384 109.705 114.421 109.705C114.448 109.705 116.832 109.72 119.187 110.903C121.353 111.987 123.933 114.32 123.933 119.247C123.933 119.281 123.964 119.311 124.001 119.311C124.039 119.311 124.065 119.281 124.065 119.247C124.065 114.316 126.65 111.987 128.819 110.899C131.17 109.72 133.555 109.704 133.578 109.704H133.592C133.623 109.697 133.645 109.671 133.645 109.64C133.645 109.603 133.615 109.573 133.578 109.573V109.573ZM105.968 47.1922C105.953 47.1922 104.522 47.1849 103.113 46.4727C101.813 45.8207 100.26 44.4231 100.26 41.4698C100.26 41.4473 100.245 41.4281 100.223 41.4281C100.201 41.4281 100.182 41.447 100.182 41.4698C100.182 44.4234 98.6334 45.8247 97.3297 46.4764C95.917 47.1848 94.4893 47.1922 94.4741 47.1922H94.4667C94.4479 47.1959 94.4365 47.2111 94.4365 47.2339C94.4365 47.2527 94.4516 47.2716 94.4741 47.2716C94.4893 47.2716 95.9207 47.283 97.3334 47.9911C98.6331 48.6428 100.181 50.0404 100.181 52.9977C100.181 53.0166 100.2 53.0354 100.223 53.0354C100.245 53.0354 100.26 53.0166 100.26 52.9977C100.26 50.0407 101.812 48.6391 103.112 47.9874C104.525 47.2793 105.953 47.2716 105.968 47.2716H105.975C105.994 47.2675 106.009 47.2527 106.009 47.2339C106.009 47.2111 105.991 47.1922 105.968 47.1922ZM107.407 65.3125C107.388 65.3125 105.599 65.3011 103.832 64.4121C102.208 63.5984 100.272 61.8504 100.272 58.1549C100.272 58.1284 100.249 58.1058 100.223 58.1058C100.193 58.1058 100.17 58.1284 100.17 58.1549C100.17 61.8504 98.2338 63.5984 96.6064 64.4158C94.8435 65.3011 93.0578 65.3125 93.039 65.3125C93.039 65.3125 93.039 65.3085 93.0353 65.3125H93.0279C93.0053 65.3162 92.9902 65.3351 92.9902 65.3616C92.9902 65.3881 93.0127 65.4106 93.0393 65.4106C93.0581 65.4106 94.8475 65.4221 96.6107 66.3073C98.2341 67.1247 100.171 68.8725 100.171 72.5646C100.171 72.5945 100.193 72.6173 100.223 72.6173C100.25 72.6173 100.272 72.5948 100.272 72.5646C100.272 68.8688 102.209 67.1207 103.836 66.3073C105.603 65.4221 107.388 65.4106 107.407 65.4106H107.415C107.437 65.4069 107.456 65.3844 107.456 65.3616C107.456 65.3313 107.434 65.3125 107.407 65.3125ZM108.601 86.9397C108.582 86.9397 106.495 86.9283 104.435 85.8961C102.54 84.9432 100.279 82.9051 100.279 78.5953C100.279 78.5614 100.253 78.5348 100.223 78.5348C100.189 78.5348 100.163 78.5614 100.163 78.5953C100.163 82.9051 97.9024 84.947 96.0034 85.8961C93.9465 86.9283 91.8633 86.9397 91.8408 86.9397H91.8371C91.8346 86.9397 91.8321 86.941 91.8297 86.9437C91.8034 86.9474 91.7846 86.9699 91.7846 87.0002C91.7846 87.0304 91.8108 87.0567 91.8408 87.0567C91.8633 87.0567 93.9505 87.0721 96.0074 88.1042C97.9061 89.0571 100.163 91.0952 100.163 95.4047C100.163 95.4387 100.189 95.4649 100.223 95.4649C100.253 95.4649 100.279 95.4387 100.279 95.4047C100.279 91.0915 102.54 89.0534 104.438 88.1042C106.499 87.0681 108.582 87.0567 108.601 87.0567H108.616C108.642 87.0533 108.661 87.0264 108.661 87.0002C108.661 86.9662 108.635 86.94 108.601 86.94L108.601 86.9397ZM109.799 109.573C109.777 109.573 107.388 109.558 105.037 108.375C102.871 107.29 100.287 104.958 100.287 100.034C100.287 99.9966 100.26 99.9664 100.223 99.9664C100.185 99.9664 100.155 99.9966 100.155 100.034C100.155 104.962 97.571 107.29 95.4048 108.379C93.0504 109.558 90.6694 109.573 90.6432 109.573H90.6318C90.6016 109.58 90.579 109.606 90.579 109.641C90.579 109.674 90.6093 109.705 90.6432 109.705C90.6691 109.705 93.0541 109.72 95.4085 110.903C97.5747 111.987 100.155 114.32 100.155 119.247C100.155 119.281 100.185 119.311 100.223 119.311C100.26 119.311 100.287 119.281 100.287 119.247C100.287 114.316 102.871 111.987 105.041 110.899C107.396 109.72 109.777 109.704 109.799 109.704H109.814C109.844 109.697 109.867 109.671 109.867 109.64C109.867 109.603 109.837 109.573 109.799 109.573V109.573ZM81.8579 47.1922C81.8427 47.1922 80.4113 47.1849 78.9986 46.4727C77.6989 45.8207 76.1502 44.4231 76.1502 41.4698C76.1502 41.4473 76.1317 41.4281 76.1092 41.4281C76.0903 41.4281 76.0715 41.447 76.0715 41.4698C76.0715 44.4234 74.5194 45.8247 73.2197 46.4764C71.8067 47.1848 70.379 47.1922 70.3639 47.1922H70.3565C70.3379 47.1959 70.3228 47.2111 70.3228 47.2339C70.3228 47.2527 70.3416 47.2716 70.3639 47.2716C70.379 47.2716 71.8105 47.283 73.2234 47.9911C74.5228 48.6428 76.0715 50.0404 76.0715 52.9977C76.0715 53.0166 76.0903 53.0354 76.1092 53.0354C76.1317 53.0354 76.1502 53.0166 76.1502 52.9977C76.1502 50.0407 77.7023 48.6391 79.0023 47.9874C80.415 47.2793 81.8427 47.2716 81.8579 47.2716H81.8653C81.8841 47.2675 81.8992 47.2527 81.8992 47.2339C81.8992 47.2111 81.8804 47.1922 81.8579 47.1922ZM83.2933 65.3125C83.2782 65.3125 81.4851 65.3011 79.7219 64.4121C78.0982 63.5984 76.1619 61.8504 76.1619 58.1549C76.1619 58.1284 76.1397 58.1058 76.1095 58.1058C76.0833 58.1058 76.0604 58.1284 76.0604 58.1549C76.0604 61.8504 74.1238 63.5984 72.4967 64.4158C70.7339 65.3011 68.9441 65.3125 68.929 65.3125C68.9253 65.3125 68.9253 65.3085 68.9253 65.3125H68.9179C68.8954 65.3162 68.8766 65.3351 68.8766 65.3616C68.8766 65.3881 68.8988 65.4106 68.929 65.4106C68.9441 65.4106 70.7335 65.4221 72.5004 66.3073C74.1238 67.1247 76.0604 68.8725 76.0604 72.5646C76.0604 72.5945 76.0833 72.6173 76.1095 72.6173C76.1397 72.6173 76.1619 72.5948 76.1619 72.5646C76.1619 68.8688 78.0985 67.1207 79.7259 66.3073C81.4891 65.4221 83.2785 65.4106 83.2937 65.4106H83.3051C83.3279 65.4069 83.3467 65.3844 83.3467 65.3616C83.3467 65.3313 83.3239 65.3125 83.294 65.3125H83.2933ZM84.4912 86.9397C84.4724 86.9397 82.3815 86.9283 80.3246 85.8961C78.4299 84.9432 76.1693 82.9051 76.1693 78.5953C76.1693 78.5614 76.1431 78.5348 76.1092 78.5348C76.0789 78.5348 76.0527 78.5614 76.0527 78.5953C76.0527 82.9051 73.7924 84.947 71.8938 85.8961C69.8368 86.9283 67.75 86.9397 67.7311 86.9397H67.7237L67.72 86.9437C67.6938 86.9474 67.671 86.9699 67.671 87.0002C67.671 87.0304 67.6975 87.0567 67.7315 87.0567C67.75 87.0567 69.8408 87.0721 71.8978 88.1042C73.7927 89.0571 76.053 91.0952 76.053 95.4047C76.053 95.4387 76.0796 95.4649 76.1095 95.4649C76.1434 95.4649 76.1696 95.4387 76.1696 95.4047C76.1696 91.0915 78.4303 89.0534 80.3286 88.1042C82.3855 87.0681 84.4727 87.0567 84.4915 87.0567H84.503C84.5292 87.0533 84.552 87.0264 84.552 87.0002C84.552 86.9662 84.5255 86.94 84.4915 86.94L84.4912 86.9397ZM85.6894 109.573C85.6669 109.573 83.2782 109.558 80.9238 108.375C78.7614 107.29 76.1771 104.958 76.1771 100.034C76.1771 99.9966 76.1471 99.9664 76.1095 99.9664C76.0755 99.9664 76.0453 99.9966 76.0453 100.034C76.0453 104.962 73.461 107.29 71.2911 108.379C68.9404 109.558 66.5561 109.573 66.5333 109.573H66.5182C66.4879 109.58 66.4654 109.606 66.4654 109.641C66.4654 109.674 66.4956 109.705 66.5333 109.705C66.5558 109.705 68.9441 109.72 71.2985 110.903C73.461 111.987 76.0453 114.32 76.0453 119.247C76.0453 119.281 76.0755 119.311 76.1095 119.311C76.1471 119.311 76.1771 119.281 76.1771 119.247C76.1771 114.316 78.7613 111.987 80.9312 110.899C83.2819 109.72 85.6666 109.704 85.6891 109.704H85.7042C85.7342 109.697 85.7567 109.671 85.7567 109.64C85.7567 109.603 85.7264 109.573 85.6891 109.573L85.6894 109.573ZM88.0848 135.906C88.0546 135.906 85.0713 135.887 82.1291 134.41C79.4205 133.05 76.1956 130.138 76.1956 123.983C76.1956 123.937 76.1579 123.9 76.1092 123.9C76.0641 123.9 76.0262 123.937 76.0262 123.983C76.0262 130.142 72.7976 133.054 70.0889 134.414C67.147 135.891 64.1671 135.906 64.1369 135.906C64.1104 135.906 61.1268 135.887 58.1845 134.41C55.4762 133.05 52.2476 130.138 52.2476 123.983C52.2476 123.937 52.2137 123.9 52.1646 123.9C52.1193 123.9 52.0816 123.937 52.0816 123.983C52.0816 130.142 48.8533 133.054 46.141 134.414C43.2024 135.891 40.2226 135.906 40.1923 135.906H40.1775V135.909C40.1399 135.917 40.1096 135.951 40.1096 135.989C40.1096 136.034 40.1473 136.071 40.1923 136.071C40.2226 136.071 43.2062 136.09 46.1484 137.567C48.857 138.927 52.0816 141.839 52.0816 147.998C52.0816 148.043 52.1193 148.081 52.1646 148.081C52.2137 148.081 52.2476 148.043 52.2476 147.998C52.2476 141.835 55.4799 138.923 58.1883 137.567C61.1305 136.09 64.1104 136.071 64.1369 136.071C64.1671 136.071 67.1507 136.09 70.0926 137.567C72.8013 138.927 76.0262 141.839 76.0262 147.998C76.0262 148.043 76.0641 148.081 76.1092 148.081C76.1579 148.081 76.1956 148.043 76.1956 147.998C76.1956 141.835 79.4242 138.923 82.1328 137.567C85.075 136.09 88.0546 136.071 88.0848 136.071C88.0848 136.071 88.0848 136.075 88.0886 136.071H88.1C88.1376 136.064 88.1679 136.03 88.1679 135.989C88.1679 135.943 88.1302 135.906 88.0848 135.906ZM57.9136 47.1922C57.8985 47.1922 56.467 47.1849 55.0544 46.4727C53.755 45.8207 52.2066 44.4231 52.2066 41.4698C52.2066 41.4473 52.1878 41.4281 52.1652 41.4281C52.1427 41.4281 52.1276 41.447 52.1276 41.4698C52.1276 44.4234 50.5758 45.8247 49.2758 46.4764C47.8631 47.1848 46.4354 47.1922 46.4202 47.1922H46.4128C46.394 47.1959 46.3789 47.2111 46.3789 47.2339C46.3789 47.2527 46.3977 47.2716 46.4202 47.2716C46.4354 47.2716 47.8668 47.283 49.2795 47.9911C50.5792 48.6428 52.1273 50.0404 52.1273 52.9977C52.1273 53.0166 52.1424 53.0354 52.1649 53.0354C52.1875 53.0354 52.2063 53.0166 52.2063 52.9977C52.2063 50.0407 53.7584 48.6391 55.0581 47.9874C56.4707 47.2793 57.8985 47.2716 57.9136 47.2716H57.921C57.9398 47.2675 57.9513 47.2527 57.9513 47.2339C57.9513 47.2111 57.9361 47.1922 57.9136 47.1922ZM59.3488 65.3125C59.33 65.3125 57.5409 65.3011 55.7777 64.4121C54.154 63.5984 52.2177 61.8504 52.2177 58.1549C52.2177 58.1284 52.1952 58.1058 52.1649 58.1058C52.1384 58.1058 52.1159 58.1284 52.1159 58.1549C52.1159 61.8504 50.1796 63.5984 48.5522 64.4158C46.7893 65.3011 44.9996 65.3125 44.9845 65.3125C44.9807 65.3125 44.9808 65.3085 44.9808 65.3125H44.973C44.9505 65.3162 44.9317 65.3351 44.9317 65.3616C44.9317 65.3881 44.9542 65.4106 44.9845 65.4106C44.9996 65.4106 46.789 65.4221 48.5559 66.3073C50.1793 67.1247 52.1155 68.8725 52.1155 72.5646C52.1155 72.5945 52.1381 72.6173 52.1646 72.6173C52.1949 72.6173 52.2174 72.5948 52.2174 72.5646C52.2174 68.8688 54.1537 67.1207 55.7811 66.3073C57.5443 65.4221 59.3296 65.4106 59.3485 65.4106H59.3599C59.3824 65.4069 59.3979 65.3844 59.3979 65.3616C59.3979 65.3313 59.3787 65.3125 59.3488 65.3125ZM60.547 86.9397C60.5244 86.9397 58.4376 86.9283 56.3806 85.8961C54.4857 84.9432 52.2254 82.9051 52.2254 78.5953C52.2254 78.5614 52.1989 78.5348 52.1652 78.5348C52.135 78.5348 52.1085 78.5614 52.1085 78.5953C52.1085 82.9051 49.8482 84.947 47.9498 85.8961C45.8929 86.9283 43.8057 86.9397 43.7869 86.9397H43.7795C43.7795 86.9397 43.7758 86.9397 43.7758 86.9437C43.7495 86.9474 43.7267 86.9699 43.7267 87.0002C43.7267 87.0304 43.7533 87.0567 43.7869 87.0567C43.8057 87.0567 45.8966 87.0721 47.9535 88.1042C49.8482 89.0571 52.1085 91.0952 52.1085 95.4047C52.1085 95.4387 52.135 95.4649 52.1652 95.4649C52.1992 95.4649 52.2254 95.4387 52.2254 95.4047C52.2254 91.0915 54.4857 89.0534 56.3843 88.1042C58.4413 87.0681 60.5244 87.0567 60.547 87.0567H60.5584C60.5849 87.0533 60.6038 87.0264 60.6038 87.0002C60.6038 86.9662 60.5812 86.94 60.5473 86.94L60.547 86.9397ZM61.7449 109.573C61.7186 109.573 59.3337 109.558 56.9796 108.375C54.8134 107.29 52.2328 104.958 52.2328 100.034C52.2328 99.9966 52.2026 99.9664 52.1649 99.9664C52.131 99.9664 52.1007 99.9966 52.1007 100.034C52.1007 104.962 49.5164 107.29 47.3469 108.379C44.9962 109.558 42.6115 109.573 42.5887 109.573H42.5736C42.5433 109.58 42.5208 109.606 42.5208 109.641C42.5208 109.674 42.5511 109.705 42.5887 109.705C42.6112 109.705 44.9999 109.72 47.3506 110.903C49.5165 111.987 52.1007 114.32 52.1007 119.247C52.1007 119.281 52.131 119.311 52.1649 119.311C52.2026 119.311 52.2328 119.281 52.2328 119.247C52.2328 114.316 54.8171 111.987 56.9833 110.899C59.3374 109.72 61.7223 109.704 61.7449 109.704H61.76C61.7865 109.697 61.809 109.671 61.809 109.64C61.809 109.603 61.7828 109.573 61.7449 109.573V109.573ZM33.8037 47.1922C33.7888 47.1922 32.3571 47.1849 30.9444 46.4727C29.6447 45.8207 28.0963 44.4231 28.0963 41.4698C28.0963 41.4473 28.0775 41.4281 28.055 41.4281C28.0324 41.4281 28.0173 41.447 28.0173 41.4698C28.0173 44.4234 26.4655 45.8247 25.1655 46.4764C23.7529 47.1848 22.3214 47.1922 22.31 47.1922H22.2986C22.2834 47.1959 22.2683 47.2111 22.2683 47.2339C22.2683 47.2527 22.2872 47.2716 22.3097 47.2716C22.3211 47.2716 23.7563 47.283 25.1652 47.9911C26.4649 48.6428 28.017 50.0404 28.017 52.9977C28.017 53.0166 28.0321 53.0354 28.0547 53.0354C28.0772 53.0354 28.096 53.0166 28.096 52.9977C28.096 50.0407 29.6444 48.6391 30.9478 47.9874C32.3568 47.2793 33.7885 47.2716 33.8034 47.2716H33.8111C33.8299 47.2675 33.8413 47.2527 33.8413 47.2339C33.8413 47.2111 33.8225 47.1922 33.8037 47.1922ZM35.2391 65.3125C35.2203 65.3125 33.4309 65.3011 31.6677 64.4121C30.04 63.5984 28.104 61.8504 28.104 58.1549C28.104 58.1284 28.0815 58.1058 28.055 58.1058C28.0284 58.1058 28.0059 58.1284 28.0059 58.1549C28.0059 61.8504 26.0659 63.5984 24.4425 64.4158C22.6756 65.3011 20.8899 65.3125 20.8711 65.3125H20.8637C20.8412 65.3162 20.8221 65.3351 20.8221 65.3616C20.8221 65.3881 20.8446 65.4106 20.8711 65.4106C20.8899 65.4106 22.6793 65.4221 24.4462 66.3073C26.0699 67.1247 28.0059 68.8725 28.0059 72.5646C28.0059 72.5945 28.0284 72.6173 28.055 72.6173C28.0815 72.6173 28.104 72.5948 28.104 72.5646C28.104 68.8688 30.044 67.1207 31.6677 66.3073C33.4346 65.4221 35.2203 65.4106 35.2391 65.4106H35.2503C35.2728 65.4069 35.2879 65.3844 35.2879 65.3616C35.2879 65.3313 35.2654 65.3125 35.2391 65.3125ZM36.437 86.9397C36.4145 86.9397 34.3276 86.9283 32.267 85.8961C30.372 84.9432 28.1155 82.9051 28.1155 78.5953C28.1155 78.5614 28.0892 78.5348 28.0553 78.5348C28.025 78.5348 27.9988 78.5614 27.9988 78.5953C27.9988 82.9051 25.7348 84.947 23.8402 85.8961C21.7795 86.9283 19.6961 86.9397 19.6735 86.9397H19.6698C19.6698 86.9397 19.6661 86.9397 19.6661 86.9437H19.6624C19.6362 86.9474 19.6171 86.9699 19.6171 87.0002C19.6171 87.0304 19.6436 87.0567 19.6735 87.0567C19.6961 87.0567 21.7832 87.0721 23.8439 88.1042C25.7385 89.0571 27.9988 91.0952 27.9988 95.4047C27.9988 95.4387 28.025 95.4649 28.0553 95.4649C28.0892 95.4649 28.1155 95.4387 28.1155 95.4047C28.1155 91.0915 30.3757 89.0534 32.2707 88.1042C34.3313 87.0681 36.4142 87.0567 36.437 87.0567H36.4484C36.4747 87.0533 36.4938 87.0264 36.4938 87.0002C36.4938 86.9662 36.4673 86.94 36.4373 86.94L36.437 86.9397ZM37.6349 109.573C37.6084 109.573 35.224 109.558 32.8696 108.375C30.7034 107.29 28.1229 104.958 28.1229 100.034C28.1229 99.9966 28.0926 99.9664 28.055 99.9664C28.0173 99.9664 27.9874 99.9966 27.9874 100.034C27.9874 104.962 25.4028 107.29 23.2369 108.379C20.8825 109.558 18.5016 109.573 18.4791 109.573H18.4639C18.4337 109.58 18.4115 109.606 18.4115 109.641C18.4115 109.674 18.4414 109.705 18.4791 109.705C18.5016 109.705 20.8862 109.72 23.2409 110.903C25.4068 111.987 27.9877 114.32 27.9877 119.247C27.9877 119.281 28.0176 119.311 28.0553 119.311C28.0929 119.311 28.1232 119.281 28.1232 119.247C28.1232 114.316 30.7075 111.987 32.8736 110.899C35.228 109.72 37.6087 109.704 37.6352 109.704H37.6466C37.6769 109.697 37.6994 109.671 37.6994 109.64C37.6994 109.603 37.6692 109.573 37.6352 109.573L37.6349 109.573ZM40.0272 135.906C39.997 135.906 37.0134 135.887 34.0752 134.41C31.3666 133.05 28.138 130.138 28.138 123.983C28.138 123.937 28.1003 123.9 28.055 123.9C28.0096 123.9 27.9723 123.937 27.9723 123.983C27.9723 130.142 24.7437 133.054 22.0313 134.414C19.0891 135.891 16.1129 135.906 16.083 135.906H16.0679V135.909H16.0642C16.0265 135.917 16 135.951 16 135.989C16 136.034 16.0376 136.071 16.083 136.071C16.1129 136.071 19.0965 136.09 22.0388 137.567C24.7437 138.927 27.9723 141.839 27.9723 147.998C27.9723 148.043 28.0096 148.081 28.055 148.081C28.1003 148.081 28.138 148.043 28.138 147.998C28.138 141.835 31.3703 138.923 34.0789 137.567C37.0208 136.09 39.997 136.071 40.0269 136.071C40.0269 136.071 40.0307 136.075 40.0307 136.071H40.0458C40.0834 136.064 40.1096 136.03 40.1096 135.989C40.1096 135.943 40.0726 135.906 40.0272 135.906Z" fill="black"/>
</svg>
