<svg width="176" height="176" viewBox="0 0 176 176" fill="none" xmlns="http://www.w3.org/2000/svg">
<rect width="176" height="176" fill="white"/>
<mask id="mask0_395_10015" style="mask-type:luminance" maskUnits="userSpaceOnUse" x="16" y="16" width="144" height="144">
<path d="M160 16H16V160H160V16Z" fill="white"/>
</mask>
<g mask="url(#mask0_395_10015)">
<path d="M88.0038 16C84.1117 16 81.0343 19.2962 81.3058 23.1808L85.4015 81.7206L46.903 37.4292C44.346 34.495 39.8429 34.3366 37.0898 37.0822C34.3367 39.8353 34.495 44.3459 37.4367 46.8954L81.7206 85.3939L23.1883 81.2982C19.3038 81.0266 16 84.1041 16 87.9962C16 91.8883 19.2962 94.9658 23.1883 94.6942L81.7206 90.5985L37.4367 129.097C34.5026 131.647 34.3442 136.157 37.0898 138.91C39.8429 141.663 44.346 141.505 46.903 138.563L85.4015 94.2718L81.3058 152.812C81.0343 156.696 84.1042 159.992 88.0038 159.992C91.9035 159.992 94.9734 156.696 94.7019 152.812L90.6061 94.2718L129.105 138.563C131.662 141.497 136.165 141.656 138.918 138.91C141.671 136.157 141.513 131.647 138.571 129.097L94.287 90.5985L152.819 94.6942C156.704 94.9658 160.008 91.8883 160.008 87.9962C160.008 84.1041 156.711 81.0266 152.819 81.2982L94.287 85.3939L138.571 46.8954C141.505 44.3459 141.663 39.8353 138.918 37.0822C136.165 34.329 131.662 34.4875 129.105 37.4292L90.6061 81.7206L94.7019 23.1808C94.9734 19.2962 91.9035 16 88.0038 16Z" fill="black"/>
</g>
</svg>
