<svg width="194" height="46" viewBox="0 0 194 46" fill="none" xmlns="http://www.w3.org/2000/svg">
<g clip-path="url(#clip0_0_4)">
<path d="M29.568 16.6145V15.6637V14.7072L29.2795 14.5449L28.0273 13.8145V14.7652V15.7159V18.8869L29.2795 19.6174L29.568 19.7855V16.6145Z" fill="white"/>
<path d="M29.568 11.5363L29.2795 11.3682L28.0273 10.6436V12.545L29.2795 13.2754L29.568 13.4436V11.5363Z" fill="white"/>
<path d="M22.4453 8.10416V9.29256V10.5621V12.4636V15.6346L23.9802 16.5331V13.3621V11.4607V10.1911V9.00271V8.28966L22.4453 7.39111V8.10416Z" fill="white"/>
<path d="M16.8594 12.3824L18.3942 13.281V11.3737L16.8594 10.481V12.3824Z" fill="white"/>
<path d="M16.8594 9.21151L18.3942 10.1101V8.20281L16.8594 7.31006V9.21151Z" fill="white"/>
<path d="M16.8594 6.04061L18.3942 6.93916V5.03191L16.8594 4.13916V6.04061Z" fill="white"/>
<path d="M14.1875 4.13907V4.4869V10.8289L15.7281 11.7275V5.38545V5.03183V3.4782L14.1875 2.58545V4.13907Z" fill="white"/>
<path d="M25.2344 10.6494V10.9219V17.2639L26.775 18.1567V11.8146V11.548V9.9132L25.2344 9.01465V10.6494Z" fill="white"/>
<path d="M29.5672 10.5681V9.02609L29.2787 8.85797L14.0742 0V1.54783L29.2787 10.4L29.5672 10.5681Z" fill="white"/>
<path d="M19.6523 7.66945L21.1872 8.56221V6.66076L19.6523 5.76221V7.66945Z" fill="white"/>
<path d="M19.6523 14.0118L21.1872 14.9045V9.72772L19.6523 8.83496V14.0118Z" fill="white"/>
<path d="M29.568 29.7276V28.3247L28.0273 29.2233V31.1247V38.8928L29.568 37.9943V29.7276Z" fill="white"/>
<path d="M22.4453 31.5885V33.2697V42.145L23.9802 41.2523V34.1624V32.4871V21.7277L22.4453 20.8291V31.5885Z" fill="white"/>
<path d="M16.8594 29.9882L18.3942 30.8868V27.4201L16.8594 26.5273V29.9882Z" fill="white"/>
<path d="M16.8594 35.2927V38.2666V45.4435L18.3942 44.5391V37.3681V36.1913V33.9072L16.8594 34.8V35.2927Z" fill="white"/>
<path d="M11.2812 40.023L12.8219 40.9157V39.0143L11.2812 38.1157V40.023Z" fill="white"/>
<path d="M11.2812 36.7652L12.8219 37.658V35.7565L11.2812 34.8638V36.7652Z" fill="white"/>
<path d="M11.2812 33.5071L12.8219 34.4057V32.9332L11.2812 32.0347V33.5071Z" fill="white"/>
<path d="M11.2812 43.4088L12.8219 44.3074V42.2726L11.2812 41.374V43.4088Z" fill="white"/>
<path d="M8.48828 38.1157L10.0289 39.0085V37.107L8.48828 36.2085V38.1157Z" fill="white"/>
<path d="M8.48828 34.858L10.0289 35.7507V33.8493L8.48828 32.9565V34.858Z" fill="white"/>
<path d="M8.48828 31.6L10.0289 32.4986V31.3102L8.48828 30.4116V31.6Z" fill="white"/>
<path d="M8.48828 41.7682L10.0289 42.661V40.3653L8.48828 39.4668V41.7682Z" fill="white"/>
<path d="M7.24191 34.6437L5.70703 33.7451V35.6466L7.24191 36.5451V34.6437Z" fill="white"/>
<path d="M2.91797 28.7999L4.45861 29.6985V28.0695L2.91797 27.1768V28.7999Z" fill="white"/>
<path d="M7.24191 29.6871L5.70703 28.7886V32.6958L7.24191 33.5944V29.6871Z" fill="white"/>
<path d="M5.68359 36.6958L5.72976 40.1509L7.26463 41.0494L7.22424 37.5944L5.68359 36.6958Z" fill="white"/>
<path d="M2.90625 29.6987L2.91202 38.4871L4.45266 39.3799L4.44112 30.5915L2.90625 29.6987Z" fill="white"/>
<path d="M0.015625 30.7363L1.5505 31.6291V29.7277L0.015625 28.8291V30.7363Z" fill="white"/>
<path d="M0.015625 27.8375L1.5505 28.7303V26.3824L0.015625 25.4839V27.8375Z" fill="white"/>
<path d="M0 36.8058L1.54064 37.6986V32.6261L0 31.7275V36.8058Z" fill="white"/>
<path d="M16.8594 25.4205L18.3942 26.319V24.4176L16.8594 23.519V25.4205Z" fill="white"/>
<path d="M16.8594 22.4175L18.3942 23.3103V21.4088L16.8594 20.5103V22.4175Z" fill="white"/>
<path d="M14.1875 29.4027V33.7274V45.1013L15.7281 45.9998V34.0868V30.2955V16.881L14.1875 15.9824V29.4027Z" fill="white"/>
<path d="M25.2344 40.516L26.775 39.6174V23.3566L25.2344 22.458V40.516Z" fill="white"/>
<path d="M19.6523 31.5885L21.0026 32.3769L19.6523 33.1653V33.2233V43.7972L21.1872 42.9045V34.1161V32.4871V22.9045L19.6523 22.0117V31.5885Z" fill="white"/>
<path d="M28.0273 26.4232V26.5334V28.3247L29.568 27.4319V25.5247V24.9913L28.0273 24.0928V26.4232Z" fill="white"/>
<path d="M16.8594 19.4088L18.3942 20.3073V18.4001L16.8594 17.5073V19.4088Z" fill="white"/>
<path d="M2.91797 16.2608L4.45861 17.1594V15.2521L2.91797 14.3594V16.2608Z" fill="white"/>
<path d="M8.49219 13.003L10.0328 13.8958V11.9943L8.49219 11.1016V13.003Z" fill="white"/>
<path d="M7.24581 5.7799L5.71094 4.88135V6.7828L7.24581 7.68135V5.7799Z" fill="white"/>
<path d="M19.6523 21.0899L21.1872 21.9885V20.0812L19.6523 19.1885V21.0899Z" fill="white"/>
<path d="M11.2852 13.8955V26.7245L12.82 27.6172V14.794V7.78533L11.2852 6.89258V13.8955Z" fill="white"/>
<path d="M7.24768 11.5539V8.55675L5.70703 7.6582V10.6553V23.4611L7.24768 24.3539V11.5539Z" fill="white"/>
<path d="M0.132812 20.1741L1.67346 21.0669V9.10168L0.132812 8.20312V20.1741Z" fill="white"/>
<path d="M2.91797 21.8432L4.45861 22.7418V18.0519L2.91797 17.1592V21.8432Z" fill="white"/>
<path d="M8.49219 25.1013L10.0328 25.994V14.7477L8.49219 13.8491V25.1013Z" fill="white"/>
<path d="M51.5169 19.0434H47.7085C47.5816 17.2289 46.5314 16.3245 44.2002 16.3245C42.7461 16.3245 41.4709 16.9564 41.4709 18.3651C41.4709 19.6753 42.2211 19.9245 46.2314 20.9332C48.8856 21.6115 52.117 22.5158 52.117 26.3187C52.117 29.7158 49.4338 32.0811 44.6792 32.0811C40.8939 32.0811 37.0625 30.2666 37.0625 25.8144V25.6869H40.8708C40.8708 28.226 42.9481 29.0086 44.8061 29.0086C46.6641 29.0086 48.3144 28.4057 48.3144 26.7709C48.3144 25.6405 47.4373 24.9332 45.2331 24.3825C43.906 24.0289 42.7519 23.7796 41.6036 23.4028C38.8974 22.4985 37.6684 20.9622 37.6684 18.6724C37.6684 15.0492 41.0728 13.2637 44.356 13.2637C48.1875 13.2637 51.5226 14.9738 51.5226 19.0492L51.5169 19.0434Z" fill="white"/>
<path d="M57.7302 13.6812V16.6261H54.1758V13.6812H57.7302ZM57.7302 18.6377V31.6464H54.1758V18.6377H57.7302Z" fill="white"/>
<path d="M69.5498 20.3769H69.6017V18.6377H72.9831V30.8406C72.9831 34.2146 71.027 36.5798 66.2954 36.5798C63.2891 36.5798 60.7098 35.0435 60.5598 32.4001H64.0912C64.3912 33.658 65.3664 34.1856 66.7455 34.1856C68.5746 34.1856 69.6017 33.0261 69.6017 31.0377V29.2522H69.5498C68.8458 30.5102 67.4206 31.2638 65.6664 31.2638C61.9331 31.2638 60.1328 28.5218 60.1328 24.7189C60.1328 21.3972 62.0601 18.2783 65.6953 18.2783C67.5475 18.2783 68.7535 18.9856 69.5556 20.3653L69.5498 20.3769ZM66.5724 28.5798C68.4996 28.5798 69.6017 26.9972 69.6017 24.9566C69.6017 23.1421 69.0478 20.9798 66.5435 20.9798C64.7144 20.9798 63.6873 22.5392 63.6873 24.6783C63.6873 26.8175 64.5124 28.5798 66.5666 28.5798H66.5724Z" fill="white"/>
<path d="M87.9843 23.5476V31.6519H84.4298V24.278C84.4298 22.1389 83.8009 21.107 82.1506 21.107C79.9464 21.107 79.3982 22.5679 79.3982 24.8809V31.6519H75.8438V18.6432H79.2251V20.4577H79.3001C80.1541 19.0722 81.6024 18.2954 83.2815 18.2954C86.5648 18.2954 87.99 19.907 87.99 23.5534L87.9843 23.5476Z" fill="white"/>
<path d="M102.314 21.9881V28.8809C102.314 29.9127 102.441 31.1185 102.764 31.6519H99.1576C99.0306 31.2519 98.9326 30.8229 98.9095 30.3939C97.9055 31.449 96.3821 32.0055 94.553 32.0055C91.8987 32.0055 90.1445 30.62 90.1445 28.104C90.1445 26.8461 90.5427 25.9649 91.2697 25.3388C92.0949 24.6316 93.3008 24.2548 95.4531 24.0287C97.7554 23.7794 98.7594 23.5765 98.7594 22.4171C98.7594 20.933 97.6804 20.678 96.4802 20.678C95.003 20.678 94.2241 21.2809 94.1029 22.6432H90.5484C90.6985 19.7968 93.0296 18.2896 96.6591 18.2896C100.289 18.2896 102.32 19.5707 102.32 21.9881H102.314ZM95.8743 29.6113C97.7785 29.6113 98.7537 28.5794 98.7537 26.6664V25.2809C98.4305 25.5823 97.8016 25.7562 96.6014 25.9069C94.7722 26.133 93.6932 26.5388 93.6932 27.9475C93.6932 28.9794 94.3164 29.6113 95.8743 29.6113Z" fill="white"/>
<path d="M108.722 13.6812V31.6522H105.168V13.6812H108.722Z" fill="white"/>
<path d="M117.862 13.6812C123.148 13.6812 126.379 16.2956 126.379 22.6667C126.379 28.5797 123.598 31.6522 117.839 31.6522H111.977V13.6812H117.862ZM117.285 30.1913C122.219 30.1913 124.677 28.2783 124.677 22.6667C124.677 17.0551 122.398 15.142 117.239 15.142H113.685V30.1913H117.291H117.285Z" fill="white"/>
<path d="M139.703 25.2059V25.5827H129.761C129.784 28.1219 131.14 30.69 134.019 30.69C136.125 30.69 137.527 29.5595 138.076 27.3682H139.651C138.924 30.5393 137.072 32.0233 134.013 32.0233C130.13 32.0233 128.18 29.1306 128.18 25.1537C128.18 21.6059 130.009 18.2842 134.013 18.2842C137.643 18.2842 139.697 21.1769 139.697 25.2059H139.703ZM138.128 24.2494C138.053 21.8088 136.523 19.6175 133.996 19.6175C131.74 19.6175 130.113 21.432 129.761 24.2494H138.128Z" fill="white"/>
<path d="M152.526 22.7417H150.951C150.5 20.678 149.248 19.6229 147.292 19.6229C144.286 19.6229 142.757 22.4171 142.757 25.1591C142.757 27.9011 144.332 30.6953 147.292 30.6953C149.144 30.6953 150.824 29.2345 151.049 26.9968H152.624C152.197 30.1678 150.172 32.0287 147.286 32.0287C143.403 32.0287 141.176 28.933 141.176 25.1591C141.176 21.3852 143.53 18.2896 147.286 18.2896C150.345 18.2896 152.174 19.9997 152.52 22.7417H152.526Z" fill="white"/>
<path d="M166.401 25.1591C166.401 28.962 164.174 32.0287 160.29 32.0287C156.407 32.0287 154.18 28.933 154.18 25.1591C154.18 21.3852 156.407 18.2896 160.29 18.2896C164.174 18.2896 166.401 21.4374 166.401 25.1591ZM160.29 30.6953C163.274 30.6953 164.826 27.9243 164.826 25.1591C164.826 22.3939 163.325 19.6229 160.267 19.6229C157.209 19.6229 155.761 22.3185 155.761 25.1591C155.761 27.9997 157.365 30.6953 160.296 30.6953H160.29Z" fill="white"/>
<path d="M180.13 13.6812V31.6522H178.676V29.1884H178.624C177.897 30.9739 175.843 32.0348 174.014 32.0348C170.182 32.0348 168.203 29.0145 168.203 25.1652C168.203 21.3159 170.107 18.2956 174.014 18.2956C175.97 18.2956 177.874 19.3275 178.497 21.142H178.549V13.6927H180.124L180.13 13.6812ZM174.019 30.6956C177.153 30.6956 178.555 28.1275 178.555 25.1594C178.555 22.1913 177.251 19.6232 174.019 19.6232C171.036 19.6232 169.784 22.4174 169.784 25.1594C169.784 27.9014 171.088 30.6956 174.019 30.6956Z" fill="white"/>
<path d="M194 25.2059V25.5827H184.058C184.081 28.1219 185.437 30.69 188.316 30.69C190.422 30.69 191.824 29.5595 192.372 27.3682H193.948C193.221 30.5393 191.368 32.0233 188.31 32.0233C184.427 32.0233 182.477 29.1306 182.477 25.1537C182.477 21.6059 184.306 18.2842 188.31 18.2842C191.94 18.2842 193.994 21.1769 193.994 25.2059H194ZM192.424 24.2494C192.349 21.8088 190.82 19.6175 188.293 19.6175C186.037 19.6175 184.41 21.432 184.058 24.2494H192.424Z" fill="white"/>
</g>
<defs>
<clipPath id="clip0_0_4">
<rect width="194" height="46" fill="white"/>
</clipPath>
</defs>
</svg>
