<svg width="24" height="24" viewBox="0 0 24 24" fill="none" xmlns="http://www.w3.org/2000/svg">
<g clip-path="url(#clip0_366_5238)">
<path d="M5.2696 9.0225C5.83424 8.89821 6.41924 8.83071 7.02085 8.83071C8.89424 8.83071 10.6208 9.46821 11.9987 10.5354C13.3766 9.46821 15.1032 8.83071 16.9766 8.83071C17.5776 8.83071 18.1632 8.89821 18.7273 9.0225C18.9158 8.38821 19.0203 7.7175 19.0203 7.02214C19.0203 5.56768 18.5783 4.21661 17.8208 3.09589C17.4421 2.53554 16.9851 2.0325 16.4644 1.60339C15.2516 0.601607 13.6953 0 11.9987 0C10.3021 0 8.74585 0.601607 7.53192 1.60339C7.35835 1.74643 7.19174 1.8975 7.03317 2.05661C6.71549 2.37429 6.42835 2.7225 6.17549 3.09589C5.41853 4.21661 4.97656 5.56768 4.97656 7.02214C4.97656 7.7175 5.08156 8.38821 5.2696 9.0225Z" fill="white"/>
<path d="M8.83071 16.9778C8.83071 16.1727 8.94964 15.3953 9.16821 14.6609C7.13518 13.905 5.48464 12.3589 4.58786 10.3982C4.48821 10.4352 4.38589 10.4668 4.28839 10.508C3.44839 10.8632 2.69143 11.3775 2.05661 12.0128C1.73893 12.3305 1.45125 12.6787 1.19893 13.0521C0.441964 14.1723 0 15.5234 0 16.9778C0 18.6744 0.601607 20.2307 1.60339 21.4446C1.88946 21.7912 2.20821 22.1105 2.55536 22.3966C2.90196 22.6827 3.27696 22.936 3.675 23.1525C3.87375 23.2607 4.07893 23.3593 4.28893 23.4482C5.12893 23.8034 6.0525 24 7.02214 24C7.99179 24 8.91536 23.8034 9.75536 23.4482C9.96536 23.3593 10.17 23.2607 10.3693 23.1525C10.6398 23.0057 10.8954 22.8353 11.1429 22.6553C9.71357 21.1869 8.83125 19.1839 8.83125 16.9784L8.83071 16.9778Z" fill="white"/>
<path d="M8.07196 12.8448C8.53214 13.1555 9.03518 13.4057 9.56446 13.6018C9.95607 12.7452 10.4918 11.9673 11.1411 11.3003C10.7114 10.988 10.2496 10.7169 9.75357 10.5075C8.91357 10.1523 7.99 9.95569 7.02036 9.95569C6.56393 9.95569 6.11929 10.0028 5.6875 10.0859C5.83268 10.3843 5.99125 10.6752 6.17554 10.9478C6.68018 11.6952 7.32518 12.3396 8.0725 12.8443L8.07196 12.8448Z" fill="white"/>
<path d="M22.7989 13.0516C22.4201 12.4913 21.9631 11.9888 21.443 11.5591C20.9228 11.13 20.3399 10.7738 19.7094 10.5075C19.6119 10.4663 19.5096 10.4347 19.4099 10.3977C18.5131 12.3584 16.8626 13.9045 14.8296 14.6604C15.0481 15.3954 15.1671 16.1722 15.1671 16.9773C15.1671 19.1834 14.2842 21.1859 12.8555 22.6543C13.103 22.8343 13.3585 23.0047 13.629 23.1515C13.8278 23.2597 14.033 23.3582 14.243 23.4472C15.083 23.8023 16.0065 23.999 16.9762 23.999C17.9458 23.999 18.8694 23.8023 19.7094 23.4472C19.8974 23.3679 20.0796 23.2779 20.2585 23.1825C20.2794 23.1713 20.3024 23.1627 20.3233 23.1515C20.7214 22.935 21.0958 22.6816 21.443 22.3956C21.6074 22.26 21.7644 22.1159 21.9155 21.9659C22.1748 21.7093 22.4089 21.4286 22.6258 21.1345C22.764 20.947 22.8931 20.7525 23.0126 20.5516C23.6346 19.5038 23.9983 18.2845 23.9983 16.9773C23.9983 15.5229 23.5564 14.1718 22.7989 13.0511V13.0516Z" fill="white"/>
<path d="M14.243 10.5075C14.033 10.5964 13.8283 10.695 13.629 10.8032C13.3585 10.95 13.103 11.1203 12.8555 11.3003C13.5048 11.9673 14.0399 12.7452 14.4321 13.6018C14.9614 13.4057 15.4644 13.1555 15.9246 12.8448C16.1115 12.7184 16.2915 12.5839 16.4651 12.4403C16.9853 12.0112 17.4428 11.5082 17.8215 10.9478C18.0058 10.6746 18.1644 10.3843 18.3096 10.0859C17.8778 10.0028 17.4326 9.95569 16.9767 9.95569C16.0071 9.95569 15.0835 10.1523 14.2435 10.5075H14.243Z" fill="white"/>
<path d="M13.752 14.9775C13.1874 15.1018 12.6019 15.1693 12.0008 15.1693C11.3997 15.1693 10.8142 15.1018 10.2501 14.9775C10.0615 15.6118 9.95703 16.282 9.95703 16.9779C9.95703 18.5358 10.4708 19.9704 11.329 21.135C11.5352 21.4147 11.7565 21.6831 12.0008 21.929C12.2456 21.6831 12.4663 21.4147 12.6726 21.135C12.8108 20.9475 12.9399 20.7531 13.0594 20.5522C13.6813 19.5043 14.0451 18.285 14.0451 16.9779C14.0451 16.2825 13.9406 15.6118 13.752 14.9775Z" fill="white"/>
<path d="M12.0008 12.0262C11.6885 12.3402 11.4046 12.683 11.156 13.0516C10.9712 13.3248 10.8131 13.6152 10.668 13.9136C11.0998 13.9966 11.5449 14.0437 12.0008 14.0437C12.4567 14.0437 12.9019 13.9966 13.3337 13.9136C13.1885 13.6152 13.0299 13.3243 12.8456 13.0516C12.5965 12.683 12.3131 12.3402 12.0008 12.0262Z" fill="white"/>
</g>
<defs>
<clipPath id="clip0_366_5238">
<rect width="24" height="24" fill="white"/>
</clipPath>
</defs>
</svg>
