<svg width="24" height="24" viewBox="0 0 24 24" fill="none" xmlns="http://www.w3.org/2000/svg">
<g clip-path="url(#clip0_366_5278)">
<path d="M14.3906 0.0283203C14.4098 0.029262 14.4286 0.029262 14.4478 0.0311453C14.9371 0.0754041 15.4529 0.284927 15.9125 0.453016C18.1558 1.27274 19.6955 2.4489 21.2083 4.23949C20.8769 4.53471 20.5148 4.77672 20.1464 5.02438C19.3881 5.46602 18.5851 5.78478 17.7557 6.07058C17.2231 3.92968 16.314 1.33066 14.3906 0.0283203Z" fill="white"/>
<path d="M9.0013 0.0314941L9.09159 0.0357317C9.02723 0.254671 8.55899 0.623808 8.38994 0.821089C8.10419 1.15397 7.85062 1.50851 7.62875 1.88518C6.84546 3.21012 6.39162 4.70267 5.98485 6.17074C5.2006 5.88495 4.44373 5.59114 3.70607 5.19894L2.48047 4.47997C4.00526 2.20535 6.43052 0.874764 9.0013 0.0314941Z" fill="white"/>
<path d="M17.9249 17.355C19.2254 17.8291 20.4332 18.4012 21.5772 19.1724C20.4304 20.8072 18.7442 22.1651 16.9399 23.0328C15.9861 23.481 15.0933 23.8116 14.0469 23.9999C14.4114 23.7584 14.7677 23.5182 15.0813 23.2136C16.6172 21.7187 17.4936 19.4059 17.9249 17.3555V17.355Z" fill="white"/>
<path d="M5.92375 17.3274C6.06734 17.4512 6.27241 18.6245 6.34253 18.8835C6.62587 19.9297 7.07299 21.03 7.63248 21.9585C8.11753 22.7627 8.72985 23.3739 9.4363 23.9874C8.49116 23.8094 7.58157 23.4633 6.72 23.0499C4.96373 22.1761 3.24636 20.7951 2.21094 19.1349C3.36114 18.3175 4.58001 17.7615 5.92375 17.3269V17.3274Z" fill="white"/>
<path d="M11.0684 0.0786133C11.0713 0.0814383 11.0751 0.0833217 11.0775 0.0866175C11.2192 0.288136 11.1548 6.16984 11.1563 7.00746C10.0267 6.97732 8.92264 6.83231 7.8123 6.63361L7.1875 6.49377C7.31381 5.88357 7.44683 5.27666 7.65094 4.68576C8.2306 3.00816 9.37696 0.898812 11.0684 0.0786133Z" fill="white"/>
<path d="M12.3918 0C12.4561 0.0324878 12.5166 0.0715673 12.5776 0.109234C15.0211 1.61026 15.9346 3.70172 16.5618 6.38785C16.3971 6.45565 16.2237 6.50415 16.0537 6.55877C14.8223 6.78194 13.5991 6.97263 12.3438 6.99523C12.4283 4.66835 12.3855 2.32876 12.3913 0.000470837L12.3918 0Z" fill="white"/>
<path d="M10.213 16.4543C10.5175 16.42 10.8378 16.4327 11.1447 16.4275C11.1245 18.8584 11.1226 21.2894 11.1384 23.7203C10.4671 23.3912 9.99689 22.9411 9.48687 22.4081C8.1316 20.8402 7.53081 18.8711 7.06641 16.903C8.10327 16.6742 9.15213 16.5245 10.213 16.4539V16.4543Z" fill="white"/>
<path d="M12.375 16.4214C13.736 16.4237 15.39 16.5466 16.691 16.9614C16.3423 18.7313 15.803 20.2615 14.7835 21.771C14.1673 22.6058 13.4104 23.2466 12.4566 23.6779C12.3587 22.7212 12.3904 21.748 12.387 20.787L12.3755 16.4214H12.375Z" fill="white"/>
<path d="M6.93993 7.65208C8.31296 8.04005 9.70761 8.14222 11.1272 8.21756C11.1455 10.5609 11.133 12.9047 11.0898 15.2476C10.8775 15.2486 10.6667 15.2603 10.4544 15.2721C9.25761 15.3644 8.10165 15.5184 6.92792 15.7656C6.55333 13.7075 6.50146 9.70211 6.94041 7.65161L6.93993 7.65208Z" fill="white"/>
<path d="M16.7172 7.57713C16.7844 7.58325 16.7431 7.57336 16.83 7.63693C17.3352 9.73027 17.2656 13.7493 16.9746 15.8799C15.7576 15.6011 14.5829 15.3836 13.3352 15.2909C13.0192 15.2626 12.7008 15.2555 12.3839 15.2428C12.3916 12.9037 12.3839 10.5651 12.3594 8.22595C13.8616 8.15767 15.2634 7.95474 16.7167 7.57666L16.7172 7.57713Z" fill="white"/>
<path d="M1.81683 5.3689C2.31389 5.67494 2.77829 6.03231 3.29312 6.3101C4.07208 6.73103 4.90916 7.02954 5.70877 7.40904C5.26454 9.7571 5.25206 13.722 5.70205 16.0767C4.87506 16.435 4.05143 16.8008 3.23117 17.1737C2.6491 17.4562 2.1069 17.7453 1.59255 18.1366C1.11855 17.3385 0.734348 16.3658 0.47021 15.483C-0.532551 12.1292 0.138838 8.39874 1.81731 5.3689H1.81683Z" fill="white"/>
<path d="M21.9211 5.2959C22.5695 5.9094 23.3854 8.13552 23.6164 8.97691C24.2926 11.4432 24.0573 14.2832 23.0454 16.6379C22.8125 17.1794 22.5114 17.6902 22.2136 18.1992C21.7026 17.8593 21.1484 17.5636 20.6048 17.2778C19.7879 16.8568 18.9431 16.5202 18.0883 16.1821C18.6679 13.7051 18.5589 9.70576 18.0234 7.22727C19.4282 6.72254 20.6653 6.0822 21.9221 5.2959H21.9211Z" fill="white"/>
</g>
<defs>
<clipPath id="clip0_366_5278">
<rect width="24" height="24" fill="white"/>
</clipPath>
</defs>
</svg>
