<svg width="64" height="64" viewBox="0 0 64 64" fill="none" xmlns="http://www.w3.org/2000/svg">
<circle cx="32" cy="32" r="32" fill="black"/>
<path d="M44.7621 26.1112V25.2431V24.3698L44.4987 24.2216L43.3555 23.5547V24.4227V25.2908V28.186L44.4987 28.8529L44.7621 29.0064V26.1112Z" fill="white"/>
<path d="M44.7621 21.4748L44.4987 21.3213L43.3555 20.6597V22.3958L44.4987 23.0627L44.7621 23.2162V21.4748Z" fill="white"/>
<path d="M38.2617 18.3405V19.4255V20.5847V22.3208V25.2161L39.6631 26.0365V23.1412V21.4051V20.246V19.1609V18.5099L38.2617 17.6895V18.3405Z" fill="white"/>
<path d="M33.1562 22.2473L34.5576 23.0677V21.3263L33.1562 20.5112V22.2473Z" fill="white"/>
<path d="M33.1562 19.3523L34.5576 20.1727V18.4313L33.1562 17.6162V19.3523Z" fill="white"/>
<path d="M33.1562 16.4573L34.5576 17.2777V15.5363L33.1562 14.7212V16.4573Z" fill="white"/>
<path d="M30.7148 14.7203V15.0379V20.8284L32.1215 21.6488V15.8583V15.5354V14.1169L30.7148 13.3018V14.7203Z" fill="white"/>
<path d="M40.8008 20.665V20.9137V26.7043L42.2074 27.5194V21.7289V21.4854V19.9928L40.8008 19.1724V20.665Z" fill="white"/>
<path d="M44.7551 20.5905V19.1826L44.4916 19.0291L30.6094 10.9414V12.3546L44.4916 20.437L44.7551 20.5905Z" fill="white"/>
<path d="M35.707 17.9445L37.1084 18.7596V17.0235L35.707 16.2031V17.9445Z" fill="white"/>
<path d="M35.707 23.7344L37.1084 24.5495V19.8229L35.707 19.0078V23.7344Z" fill="white"/>
<path d="M44.7621 38.0841V36.8032L43.3555 37.6236V39.3597V46.4523L44.7621 45.6319V38.0841Z" fill="white"/>
<path d="M38.2617 39.7832V41.3182V49.4217L39.6631 48.6066V42.1333V40.6036V30.7799L38.2617 29.9595V39.7832Z" fill="white"/>
<path d="M33.1562 38.322L34.5576 39.1424V35.9772L33.1562 35.1621V38.322Z" fill="white"/>
<path d="M33.1562 43.1649V45.8802V52.4329L34.5576 51.6072V45.0598V43.9853V41.8999L33.1562 42.715V43.1649Z" fill="white"/>
<path d="M28.0664 47.4841L29.4731 48.2992V46.5631L28.0664 45.7427V47.4841Z" fill="white"/>
<path d="M28.0664 44.5095L29.4731 45.3246V43.5886L28.0664 42.7734V44.5095Z" fill="white"/>
<path d="M28.0664 41.5348L29.4731 42.3553V41.0108L28.0664 40.1904V41.5348Z" fill="white"/>
<path d="M28.0664 50.5751L29.4731 51.3955V49.5377L28.0664 48.7173V50.5751Z" fill="white"/>
<path d="M25.5156 45.7424L26.9223 46.5575V44.8214L25.5156 44.001V45.7424Z" fill="white"/>
<path d="M25.5156 42.7683L26.9223 43.5834V41.8473L25.5156 41.0322V42.7683Z" fill="white"/>
<path d="M25.5156 39.794L26.9223 40.6145V39.5294L25.5156 38.709V39.794Z" fill="white"/>
<path d="M25.5156 49.0779L26.9223 49.893V47.797L25.5156 46.9766V49.0779Z" fill="white"/>
<path d="M24.3701 42.5724L22.9688 41.752V43.488L24.3701 44.3085V42.5724Z" fill="white"/>
<path d="M20.4297 37.2369L21.8364 38.0573V36.57L20.4297 35.7549V37.2369Z" fill="white"/>
<path d="M24.3701 38.0475L22.9688 37.2271V40.7945L24.3701 41.6149V38.0475Z" fill="white"/>
<path d="M22.9531 44.4458L22.9953 47.6004L24.3967 48.4208L24.3598 45.2662L22.9531 44.4458Z" fill="white"/>
<path d="M20.418 38.0571L20.4232 46.0813L21.8299 46.8964L21.8194 38.8722L20.418 38.0571Z" fill="white"/>
<path d="M17.7734 39.0046L19.1748 39.8197V38.0836L17.7734 37.2632V39.0046Z" fill="white"/>
<path d="M17.7734 36.3574L19.1748 37.1726V35.0289L17.7734 34.2085V36.3574Z" fill="white"/>
<path d="M17.7617 44.5468L19.1684 45.3619V40.7306L17.7617 39.9102V44.5468Z" fill="white"/>
<path d="M33.1562 34.1516L34.5576 34.972V33.2359L33.1562 32.4155V34.1516Z" fill="white"/>
<path d="M33.1562 31.4098L34.5576 32.225V30.4889L33.1562 29.6685V31.4098Z" fill="white"/>
<path d="M30.7148 37.7879V41.7364V52.1213L32.1215 52.9417V42.0646V38.603V26.3551L30.7148 25.5347V37.7879Z" fill="white"/>
<path d="M40.8008 47.9334L42.2074 47.113V32.2662L40.8008 31.4458V47.9334Z" fill="white"/>
<path d="M35.707 39.7826L36.9398 40.5024L35.707 41.2222V41.2752V50.9296L37.1084 50.1144V42.0903V40.603V31.8537L35.707 31.0386V39.7826Z" fill="white"/>
<path d="M43.3555 35.0667V35.1673V36.8028L44.7621 35.9877V34.2463V33.7594L43.3555 32.939V35.0667Z" fill="white"/>
<path d="M33.1562 28.6629L34.5576 29.4833V27.7419L33.1562 26.9268V28.6629Z" fill="white"/>
<path d="M20.4297 25.7883L21.8364 26.6087V24.8674L20.4297 24.0522V25.7883Z" fill="white"/>
<path d="M25.5156 22.8137L26.9223 23.6288V21.8928L25.5156 21.0776V22.8137Z" fill="white"/>
<path d="M24.3741 16.2188L22.9727 15.3984V17.1345L24.3741 17.9549V16.2188Z" fill="white"/>
<path d="M35.707 30.1975L37.1084 31.0179V29.2765L35.707 28.4614V30.1975Z" fill="white"/>
<path d="M28.0703 23.6288V35.3421L29.4717 36.1572V24.4492V18.05L28.0703 17.2349V23.6288Z" fill="white"/>
<path d="M24.3754 21.491V18.7545L22.9688 17.9341V20.6705V32.3627L24.3754 33.1778V21.491Z" fill="white"/>
<path d="M17.8867 29.3611L19.2934 30.1762V19.2516L17.8867 18.4312V29.3611Z" fill="white"/>
<path d="M20.4297 30.8851L21.8364 31.7055V27.4235L20.4297 26.6084V30.8851Z" fill="white"/>
<path d="M25.5156 33.8606L26.9223 34.6757V24.4073L25.5156 23.5869V33.8606Z" fill="white"/>
</svg>
