<svg width="20" height="20" viewBox="0 0 20 20" fill="none" xmlns="http://www.w3.org/2000/svg">
<g clip-path="url(#clip0_563_8183)">
<path d="M0 4.51798C0.0552189 4.34894 0.10997 4.18037 0.160977 4.02344C2.18208 6.01745 4.19102 7.99889 6.20323 9.98359C4.18353 11.9743 2.17366 13.9553 0.156298 15.9442C0.115585 15.8236 0.0575587 15.6527 0 15.4818C0 11.8272 0 8.17259 0 4.51798Z" fill="white"/>
<path d="M1.05452 3.11171C1.31424 3.07492 1.57396 3.00786 1.83414 3.006C3.35032 2.99622 4.86697 3.00134 6.38362 3.00134C10.2957 3.00134 14.2074 3.00134 18.1195 3.00041C18.4068 3.00041 18.6857 3.03021 18.9833 3.17923C18.6815 3.47353 18.3956 3.74595 18.1162 4.02489C15.5925 6.54279 13.0698 9.06208 10.5466 11.5804C10.1928 11.9334 9.80672 11.9348 9.45575 11.5842C6.6934 8.82691 3.93152 6.06966 1.17011 3.31241C1.1294 3.2719 1.09056 3.22906 1.05078 3.18761C1.05219 3.16246 1.05312 3.13732 1.05452 3.11217V3.11171Z" fill="white"/>
<path d="M1.04688 16.8102C3.05254 14.8339 5.0582 12.8581 7.07603 10.8701C7.09521 10.8883 7.14716 10.9344 7.19629 10.9833C7.67876 11.4648 8.15982 11.9482 8.64368 12.4283C9.43593 13.2143 10.5618 13.2125 11.3578 12.4255C11.8885 11.9007 12.4187 11.3758 12.9222 10.878C14.9307 12.8576 16.9396 14.8377 18.9874 16.8563C18.7506 16.9076 18.5522 16.9555 18.3514 16.9919C18.2696 17.0068 18.1825 16.9979 18.0983 16.9979C12.6971 16.9979 7.2955 16.9998 1.89434 16.9937C1.61497 16.9937 1.33514 16.9285 1.05577 16.8936C1.05296 16.8661 1.04968 16.8382 1.04688 16.8107V16.8102Z" fill="white"/>
<path d="M19.8629 4.02832C19.9054 4.24672 19.992 4.48328 19.9925 4.72031C20.0014 8.23661 20.0014 11.7534 19.9925 15.2697C19.992 15.5081 19.9073 15.7465 19.8638 15.9766C17.8315 13.9709 15.8211 11.9871 13.8047 9.99685C15.8136 8.01728 17.8235 6.03723 19.8629 4.02832Z" fill="white"/>
</g>
<defs>
<clipPath id="clip0_563_8183">
<rect width="20" height="14" fill="white" transform="translate(0 3)"/>
</clipPath>
</defs>
</svg>
