<svg width="120" height="160" viewBox="0 0 120 160" fill="none" xmlns="http://www.w3.org/2000/svg">
<g clip-path="url(#clip0_433_21227)">
<mask id="mask0_433_21227" style="mask-type:luminance" maskUnits="userSpaceOnUse" x="-1" y="19" width="121" height="122">
<path d="M-0.00371552 19.998H120V140.002H-0.00371552V19.998Z" fill="white"/>
</mask>
<g mask="url(#mask0_433_21227)">
<path d="M103.801 140.001C114.204 123.62 120 102.236 120 80.0026C120 57.7694 114.198 36.3786 103.801 20.0039V140.008V140.001Z" fill="black"/>
<path d="M-0.00500107 140.002C15.9108 140.002 31.173 133.679 42.4247 122.427C53.6764 111.175 60 95.913 60 79.9972C60 64.0813 53.6764 48.8192 42.4247 37.5675C31.173 26.3158 15.9108 19.9922 -0.00500107 19.9922V139.996V140.002Z" fill="black"/>
<path d="M83.827 125.287C77.692 131.836 70.369 136.821 62.3985 140.002V19.998C70.369 23.1787 77.692 28.1571 83.827 34.707C95.0787 46.7193 101.402 63.0186 101.402 80.003C101.402 96.9875 95.0787 113.28 83.827 125.293V125.287Z" fill="black"/>
</g>
</g>
<defs>
<clipPath id="clip0_433_21227">
<rect width="120" height="160" fill="white"/>
</clipPath>
</defs>
</svg>
