<svg width="120" height="160" viewBox="0 0 120 160" fill="none" xmlns="http://www.w3.org/2000/svg">
<path d="M110 58.622V55.4391V52.2369L109.024 51.6934L104.789 49.248V52.4309V55.6138V66.2299L109.024 68.6753L110 69.2381V58.622Z" fill="#040000"/>
<path d="M110 41.6197L109.024 41.0568L104.789 38.6309V44.9966L109.024 47.442L110 48.0048V41.6197Z" fill="#040000"/>
<path d="M85.9102 30.1313V34.1099V38.3602V44.726V55.3421L91.1012 58.3503V47.7342V41.3684V37.1181V33.1395V30.7524L85.9102 27.7441V30.1313Z" fill="#040000"/>
<path d="M67.0195 44.4537L72.2105 47.4619V41.0767L67.0195 38.0879V44.4537Z" fill="#040000"/>
<path d="M67.0195 33.8404L72.2105 36.8486V30.4634L67.0195 27.4746V33.8404Z" fill="#040000"/>
<path d="M67.0195 23.2232L72.2105 26.2314V19.8462L67.0195 16.8574V23.2232Z" fill="#040000"/>
<path d="M57.9805 16.8595V18.024V39.2561L63.191 42.2643V21.0322V19.8483V14.647L57.9805 11.6582V16.8595Z" fill="#040000"/>
<path d="M95.3438 38.6488V39.561V60.7931L100.554 63.7819V42.5498V41.657V36.184L95.3438 33.1758V38.6488Z" fill="#040000"/>
<path d="M109.996 38.3804V33.218L109.02 32.6551L57.5977 3V8.18189L109.02 37.8176L109.996 38.3804Z" fill="#040000"/>
<path d="M76.4648 28.6742L81.6558 31.663V25.2973L76.4648 22.2891V28.6742Z" fill="#040000"/>
<path d="M76.4648 49.9054L81.6558 52.8942V35.563L76.4648 32.5742V49.9054Z" fill="#040000"/>
<path d="M110 102.523V97.8262L104.789 100.834V107.2V133.207L110 130.198V102.523Z" fill="#040000"/>
<path d="M85.9102 108.749V114.378V144.091L91.1012 141.102V117.366V111.758V75.7367L85.9102 72.7285V108.749Z" fill="#040000"/>
<path d="M67.0195 103.397L72.2105 106.405V94.7994L67.0195 91.8105V103.397Z" fill="#040000"/>
<path d="M67.0195 121.158V131.114V155.141L72.2105 152.113V128.106V124.166V116.52L67.0195 119.508V121.158Z" fill="#040000"/>
<path d="M48.1523 136.991L53.3629 139.979V133.614L48.1523 130.605V136.991Z" fill="#040000"/>
<path d="M48.1523 126.085L53.3629 129.073V122.708L48.1523 119.719V126.085Z" fill="#040000"/>
<path d="M48.1523 115.178L53.3629 118.186V113.256L48.1523 110.248V115.178Z" fill="#040000"/>
<path d="M48.1523 148.324L53.3629 151.332V144.52L48.1523 141.512V148.324Z" fill="#040000"/>
<path d="M38.707 130.608L43.9175 133.597V127.231L38.707 124.223V130.608Z" fill="#040000"/>
<path d="M38.707 119.702L43.9175 122.691V116.325L38.707 113.336V119.702Z" fill="#040000"/>
<path d="M38.707 108.795L43.9175 111.803V107.825L38.707 104.816V108.795Z" fill="#040000"/>
<path d="M38.707 142.834L43.9175 145.823V138.137L38.707 135.129V142.834Z" fill="#040000"/>
<path d="M34.4918 118.979L29.3008 115.971V122.336L34.4918 125.345V118.979Z" fill="#040000"/>
<path d="M19.8672 99.4205L25.0777 102.429V96.9751L19.8672 93.9863V99.4205Z" fill="#040000"/>
<path d="M34.4918 102.389L29.3008 99.3809V112.462L34.4918 115.47V102.389Z" fill="#040000"/>
<path d="M29.2227 125.852L29.3788 137.419L34.5698 140.427L34.4332 128.86L29.2227 125.852Z" fill="#040000"/>
<path d="M19.8281 102.428L19.8476 131.85L25.0582 134.839L25.0191 105.417L19.8281 102.428Z" fill="#040000"/>
<path d="M10.0508 105.897L15.2418 108.886V102.52L10.0508 99.5117V105.897Z" fill="#040000"/>
<path d="M10.0508 96.1979L15.2418 99.1867V91.3266L10.0508 88.3184V96.1979Z" fill="#040000"/>
<path d="M10 126.218L15.2105 129.207V112.225L10 109.217V126.218Z" fill="#040000"/>
<path d="M67.0195 88.106L72.2105 91.1142V84.7484L67.0195 81.7402V88.106Z" fill="#040000"/>
<path d="M67.0195 78.0492L72.2105 81.038V74.6723L67.0195 71.6641V78.0492Z" fill="#040000"/>
<path d="M57.9805 101.435V115.913V153.991L63.191 157V117.116V104.424V59.5141L57.9805 56.5059V101.435Z" fill="#040000"/>
<path d="M95.3438 138.639L100.554 135.631V81.1918L95.3438 78.1836V138.639Z" fill="#040000"/>
<path d="M76.4648 108.755L81.0314 111.395L76.4648 114.034V114.228V149.628L81.6558 146.639V117.217V111.763V79.6822L76.4648 76.6934V108.755Z" fill="#040000"/>
<path d="M104.789 91.4582V91.8269V97.824L110 94.8351V88.45V86.6645L104.789 83.6562V91.4582Z" fill="#040000"/>
<path d="M67.0195 67.981L72.2105 70.9892V64.604L67.0195 61.6152V67.981Z" fill="#040000"/>
<path d="M19.8672 57.44L25.0777 60.4482V54.063L19.8672 51.0742V57.44Z" fill="#040000"/>
<path d="M38.7188 46.5337L43.9293 49.5225V43.1568L38.7188 40.168V46.5337Z" fill="#040000"/>
<path d="M34.5035 22.35L29.3125 19.3418V25.7076L34.5035 28.7158V22.35Z" fill="#040000"/>
<path d="M76.4648 73.6021L81.6558 76.6103V70.2251L76.4648 67.2363V73.6021Z" fill="#040000"/>
<path d="M48.1641 49.5189V92.4684L53.3551 95.4572V52.5271V29.063L48.1641 26.0742V49.5189Z" fill="#040000"/>
<path d="M34.5113 41.6807V31.6469L29.3008 28.6387V38.6725V81.5444L34.5113 84.5332V41.6807Z" fill="#040000"/>
<path d="M10.4492 70.54L15.6597 73.5288V33.4711L10.4492 30.4629V70.54Z" fill="#040000"/>
<path d="M19.8672 76.1327L25.0777 79.1409V63.44L19.8672 60.4512V76.1327Z" fill="#040000"/>
<path d="M38.7188 87.0378L43.9293 90.0266V52.3754L38.7188 49.3672V87.0378Z" fill="#040000"/>
</svg>
