<svg width="144" height="144" viewBox="0 0 144 144" fill="none" xmlns="http://www.w3.org/2000/svg">
<path d="M107.946 36.002C88.0856 36.0699 72.0041 52.1588 72.0041 72.0041C72.0041 52.1588 55.9228 36.0699 36.0625 36.002C55.9228 35.9341 72.0041 19.8452 72.0041 0C72.0041 19.8452 88.0856 35.9417 107.946 36.002Z" fill="black"/>
<path d="M71.8834 72.004C52.0231 72.0719 35.9416 88.1608 35.9416 108.006C35.9416 88.1608 19.8679 72.0719 0 72.004C19.8603 71.9361 35.9416 55.8472 35.9416 36.002C35.9416 55.8472 52.0231 71.9436 71.8834 72.004Z" fill="black"/>
<path d="M144 72.004C124.14 72.0719 108.059 88.1608 108.059 108.006C108.059 88.1608 91.9775 72.0719 72.1172 72.004C91.9775 71.9361 108.059 55.8472 108.059 36.002C108.059 55.8472 124.133 71.9436 144 72.004Z" fill="black"/>
<path d="M107.946 107.997C88.0856 108.065 72.0041 124.154 72.0041 143.999C72.0041 124.154 55.9228 108.065 36.0625 107.997C55.9228 107.929 72.0041 91.8404 72.0041 71.9951C72.0041 91.8404 88.0856 107.937 107.946 107.997Z" fill="black"/>
</svg>
