<svg width="144" height="144" viewBox="0 0 144 144" fill="none" xmlns="http://www.w3.org/2000/svg">
<path d="M72.0017 0.000217172L51.8405 20.1614L72.0017 40.3226L92.1629 20.1614L72.0017 0.000217172Z" fill="black"/>
<path d="M20.1612 51.8437L0 72.0049L20.1612 92.166L40.3223 72.0048L20.1612 51.8437Z" fill="black"/>
<path d="M92.1564 72.0019L118.081 97.9268L97.9192 118.081L72.0018 92.164L46.0769 118.081L25.9222 97.9268L51.8396 72.0019L25.9222 46.0844L46.0769 25.9222L72.0018 51.8472L97.9192 25.9222L118.081 46.0844L92.1564 72.0019Z" fill="black"/>
<path d="M123.838 51.8496L103.677 72.0107L123.838 92.1719L144 72.0107L123.838 51.8496Z" fill="black"/>
<path d="M72.0017 103.677L51.8405 123.839L72.0017 144L92.1629 123.839L72.0017 103.677Z" fill="black"/>
</svg>
