<svg width="143" height="143" viewBox="0 0 143 143" fill="none" xmlns="http://www.w3.org/2000/svg">
<g clip-path="url(#clip0_444_4531)">
<g opacity="0.9">
<path d="M86.0312 2.63477C86.361 2.66884 86.6908 2.71427 87.0205 2.74835C86.6908 2.70292 86.361 2.66884 86.0312 2.63477Z" fill="black"/>
<path d="M106.728 9.31331L104.92 8.3365C104.863 8.31379 104.818 8.27971 104.761 8.25699C104.568 8.15477 104.386 8.0639 104.192 7.97304C104.317 8.02983 104.442 8.08662 104.568 8.15477C104.283 8.00711 103.999 7.85946 103.703 7.70044L102.43 7.12117C102.544 7.17796 102.657 7.23475 102.76 7.28019C101.213 6.56462 99.6212 5.9172 97.9952 5.33793C91.0476 3.70235 83.8725 3.02085 71.5352 2.81641C94.402 3.94087 102.259 7.20068 104.897 8.32514C105.511 8.64317 106.114 8.9612 106.717 9.30195L106.728 9.31331Z" fill="black"/>
<path d="M88.5239 2.07925C87.637 1.86345 86.7273 1.64764 85.9655 1.47727L85.4879 1.37504C82.8499 0.966147 77.6193 1.78394 71.5586 2.81754C72.0817 2.74939 72.6047 2.68124 73.1164 2.62445C83.1569 1.47727 86.0564 1.67036 88.5239 2.06789V2.07925Z" fill="black"/>
<path d="M81.1179 0.658234C80.322 0.55601 79.3441 0.442428 78.5822 0.351562C78.5709 0.351562 78.5595 0.351562 78.5481 0.351562C78.4003 0.385637 78.3776 0.396995 71.5664 2.82765C79.4919 0.726384 80.2765 0.703667 81.334 0.680951C81.2658 0.680951 81.1975 0.658234 81.1293 0.658234H81.1179Z" fill="black"/>
<path d="M47.2895 138.798C47.46 138.855 47.642 138.923 47.8239 138.98C49.0975 139.412 50.6666 139.9 51.8833 140.275C53.1341 140.638 54.8284 141.036 56.0905 141.331C39.58 137.299 25.5029 128.269 14.2344 114.48L17.4068 118.388C17.8048 118.831 18.1573 119.228 18.4757 119.592C19.6469 120.807 21.0342 122.227 22.4555 123.578C23.3311 124.373 24.4227 125.339 25.9236 126.668C26.6968 127.293 27.6065 127.985 28.5389 128.667C36.544 134.562 42.0134 136.731 47.2895 138.798Z" fill="black"/>
<path d="M75.1404 0.19309C75.0381 0.159015 74.9016 0.102224 74.7879 0.0681493C74.7879 0.0681493 74.7765 0.0681493 74.7652 0.0681493C74.0261 0.0340747 73.5712 0.0227164 73.5258 0.0227164C73.105 0.0227164 72.582 0 72.1385 0C72.9799 0.0340747 73.0027 0.0567911 73.3779 0.556553C73.2187 1.13204 72.6123 1.88925 71.5586 2.8282C74.9244 0.965449 75.0267 0.601986 75.1518 0.19309H75.1404Z" fill="black"/>
<path d="M4.81012 97.6814C17.9321 128.621 50.7825 140.468 62.3922 142.421C62.449 142.421 62.5059 142.433 62.5627 142.444C63.1768 142.524 63.95 142.603 64.5299 142.66L65.7466 142.762C65.7466 142.762 65.7921 142.762 65.8148 142.762C58.9695 142.126 11.8714 128.258 1.28516 85.5508C1.39886 86.1868 1.51257 86.8002 1.62628 87.3795C2.41087 90.3553 3.61618 94.2512 4.63956 97.2157C4.69642 97.3747 4.75327 97.511 4.81012 97.67V97.6814Z" fill="black"/>
<path d="M69.5548 0.556763C71.1809 1.17011 71.2605 1.52221 71.5561 2.82841C72.7501 0.170584 70.2826 0.113792 68.0994 0.0683594C67.3375 0.113792 66.3255 0.181942 65.5637 0.227374L64.8359 0.295524C65.9503 0.216016 68.2699 0.0683594 69.5548 0.545405V0.556763Z" fill="black"/>
<path d="M69.9421 142.977C70.215 142.977 70.4879 142.989 70.7608 142.989H70.8745C70.8745 142.989 70.9654 142.989 71.0109 142.989C71.3179 142.989 71.625 142.989 71.932 142.989C72.1935 142.989 72.455 142.989 72.6824 142.989C72.6938 142.989 72.7052 142.989 72.7279 142.989C67.304 142.898 -10.4613 113.457 2.10348 53.6563C2.10348 53.6563 2.10348 53.6562 2.10348 53.6676C1.67139 55.3486 1.25067 57.6203 0.8868 59.324C0.534303 61.4934 0.250032 64.4238 0.0112436 66.616C-1.27366 120.261 62.8239 142.296 69.9421 142.989V142.977Z" fill="black"/>
<path d="M58.2169 1.24934C58.0691 1.28341 57.9213 1.30613 57.7734 1.3402C66.5176 -0.159082 70.1791 1.99898 71.5549 2.82813C69.0761 0.102157 64.7665 0.158948 58.2169 1.24934Z" fill="black"/>
<path d="M9.08703 36.3695C-22.5012 97.1928 65.9755 140.15 76.5617 142.819C76.63 142.819 76.7096 142.819 76.7778 142.807L77.244 142.773C77.3122 142.773 77.3918 142.762 77.4714 142.751C78.0172 142.705 78.654 142.637 79.1998 142.58C79.268 142.58 79.3362 142.569 79.4045 142.557C66.8738 133.039 51.6254 127.86 39.5382 117.626C33.6254 112.617 19.7756 100.884 11.6796 85.1985C-4.51252 53.8157 9.90573 33.8025 16.967 25.1816C16.7169 25.4656 16.4781 25.7496 16.2393 26.0335L15.0454 27.4533C13.1692 30.0316 10.8154 33.5413 9.13251 36.2673C9.10977 36.3013 9.0984 36.3354 9.07566 36.3695H9.08703Z" fill="black"/>
<path d="M54.9901 1.93017C54.9901 1.93017 55.0811 1.90745 55.1152 1.89609C55.0015 1.91881 54.8764 1.94153 54.7741 1.9756C53.9895 2.14598 52.9548 2.42993 52.1702 2.64574C50.5669 3.08871 48.4405 3.74748 46.8941 4.32675C45.9389 4.69022 44.6768 5.16726 43.733 5.5648C42.6073 6.04185 41.1291 6.7347 40.0261 7.24582C38.889 7.77965 37.4108 8.55201 36.3419 9.18807C35.0684 9.92636 33.5106 10.8918 32.112 11.7891C17.8188 21.614 6.52752 37.3792 8.08533 55.1661C11.7695 97.1007 59.3224 125.871 77.2202 136.707C81.3516 139.206 83.5386 140.943 83.7812 141.92C83.7812 141.92 83.8608 141.909 83.8949 141.898C84.8728 141.716 86.1122 141.455 87.0901 141.25C87.1242 141.25 87.1583 141.239 87.1924 141.227C87.5449 141.114 87.7951 140.603 88.0339 140.33C87.2265 138.763 85.6233 137.638 77.0155 132.005C54.8651 117.511 32.5782 100.849 19.5813 77.2238C-9.76693 23.9083 47.167 -3.66943 71.5575 2.82747C66.8272 0.998795 61.0736 0.794348 54.9901 1.93017Z" fill="black"/>
<path d="M79.7427 126.043C93.2172 135.549 96.4351 137.821 92.1711 139.922C92.2166 139.911 92.262 139.9 92.3075 139.877C92.9557 139.672 93.7061 139.423 94.4452 139.184C94.9456 139.014 95.4345 138.843 95.9348 138.661C101.973 135.856 96.708 131.994 84.1432 122.749C70.248 112.526 52.9416 99.805 38.2618 81.2003C-5.07256 26.2719 41.1727 -0.908319 71.5557 2.82854C37.0337 -4.64517 -37.2407 43.4683 79.7427 126.043Z" fill="black"/>
<path d="M87.668 115.343C103.383 127.383 109.273 131.892 101.472 136.379C101.529 136.345 101.597 136.322 101.654 136.299C102.962 135.674 104.588 134.823 105.839 134.175C111.922 130.62 109.489 126.497 105.964 122.578C91.1816 106.154 71.5442 95.2846 56.4095 79.2695C7.674 27.7372 40.3652 2.11308 71.5555 2.82865C39.774 -0.0676961 -16.9894 35.1769 87.668 115.343Z" fill="black"/>
<path d="M99.8122 105.393C114.788 117.376 120.121 123.816 112.127 130.29C113.491 129.325 115.231 127.973 116.584 126.928C117.278 126.36 117.983 125.747 118.676 125.157C124.896 119.477 121.405 116.399 79.6061 79.6328C19.0222 26.3286 46.3236 7.50807 66.0748 3.57812C48.1657 6.91744 -1.76379 24.0911 99.8122 105.393Z" fill="black"/>
<path d="M70.759 2.89648C69.2808 3.03278 67.7003 3.25995 66.0742 3.57798C68.1778 3.1918 69.838 2.98735 70.759 2.89648Z" fill="black"/>
<path d="M71.5577 2.82812C71.5577 2.82812 71.2279 2.85084 70.7617 2.89627C71.0346 2.87356 71.2962 2.85084 71.5577 2.82812Z" fill="black"/>
<path d="M97.016 81.9268C121.85 101.895 131.174 111.027 123.089 120.942C123.146 120.885 123.192 120.829 123.249 120.772C124.522 119.409 126.046 117.603 127.24 116.229C127.262 116.195 127.285 116.172 127.319 116.138C134.392 106.881 127.638 97.1354 98.4714 74.5098C22.4004 15.4585 62.7101 4.44099 71.5566 2.82812C65.1093 3.64592 11.0181 12.7893 97.016 81.9268Z" fill="black"/>
<path d="M102.154 65.9458C130.263 86.913 137.995 97.6352 132.73 108.357C132.946 108.005 133.151 107.653 133.355 107.301L133.549 106.96C133.697 106.71 133.822 106.483 133.958 106.245L135.561 103.155C135.755 102.758 135.948 102.36 136.13 101.985C142.407 87.6172 118.63 70.33 102.847 58.8582C51.4511 21.5238 57.4663 7.78031 71.5548 2.82812C59.5244 5.96299 38.4201 18.3889 102.154 65.9458Z" fill="black"/>
<path d="M103.531 49.6698C128.07 66.9343 142.772 78.4856 139.714 92.8992C139.861 92.4108 140.009 91.9224 140.146 91.4453C140.635 89.6507 141.123 87.629 141.521 86.0161C143.625 71.6593 128.786 60.71 104.407 44.0475C88.2945 33.0414 58.3095 12.5398 71.5565 2.83984C50.782 12.5625 90.489 40.5037 103.531 49.6811V49.6698Z" fill="black"/>
<path d="M105.327 36.9713C132.98 54.8832 142.373 63.0157 142.873 75.3621C142.885 75.1236 142.907 74.8737 142.919 74.6352L143.01 71.6252L142.941 68.7062C142.93 68.3654 142.907 68.0474 142.896 67.7066C141.838 54.7583 124.555 44.0815 102.711 30.5993C87.3492 21.1152 69.9291 10.359 71.5665 2.83984C64.3687 10.4385 89.0207 26.4082 105.338 36.9827L105.327 36.9713Z" fill="black"/>
<path d="M103.545 25.5336C129.016 39.9812 138.601 46.9892 141.649 57.5751C141.262 55.7464 140.648 53.4294 140.125 51.4644C140.011 51.0555 139.886 50.658 139.772 50.2491C135.633 39.4928 121.75 31.7692 97.6661 19.1162C80.6325 10.1659 75.0267 6.66756 71.5586 2.83984C73.5371 8.53031 86.1247 15.6633 103.545 25.5449V25.5336Z" fill="black"/>
<path d="M136.119 40.9236C136.016 40.7078 135.914 40.492 135.812 40.2762L134.368 37.4139L133.39 35.7102C133.208 35.4035 133.026 35.0855 132.844 34.7788C129.558 29.6903 123.622 25.8967 115.128 21.4442C101.097 14.1068 86.0301 9.16601 71.5664 2.82812C76.0806 5.6904 84.37 9.50676 94.8653 14.3226C122.713 27.1006 131.309 32.6321 136.13 40.9236H136.119Z" fill="black"/>
<path d="M127.446 27.0094C127.31 26.8504 127.196 26.6914 127.048 26.521C126.957 26.4188 126.878 26.3166 126.787 26.203C126.685 26.078 126.571 25.9417 126.457 25.8168C125.4 24.5901 124.217 23.2726 123.273 22.2049C117.042 15.8329 99.6446 9.31331 71.5586 2.81641C114.165 15.5717 122.409 21.5575 127.446 26.9981V27.0094Z" fill="black"/>
<path d="M115.754 15.4017C114.707 14.6066 113.57 13.7661 112.604 13.0392C112.399 12.9029 112.206 12.7666 112.001 12.6303C105.247 8.37094 91.6474 5.06569 71.5664 2.82812C84.063 4.67952 106.407 8.85934 116.652 16.1286C116.345 15.8787 116.061 15.6402 115.765 15.4017H115.754Z" fill="black"/>
<path d="M87.406 2.81704C89.0775 3.0442 90.7149 3.33952 92.3296 3.71434C95.1951 4.19138 95.5476 4.30497 97.7308 5.00918C97.6739 4.98646 97.5943 4.95239 97.5375 4.92967C96.4459 4.49806 94.9676 3.99829 93.8533 3.60076H93.8306C91.2153 2.76025 88.1338 2.63531 84.5633 2.49901C84.7225 2.51037 84.8931 2.53308 85.0523 2.54444C83.2329 2.37407 81.3795 2.2832 79.5033 2.2832C76.6151 2.4195 76.2285 2.45358 71.5664 2.8284C78.9802 2.52173 82.346 2.57852 87.4174 2.81704H87.406ZM86.0302 2.63531C86.3599 2.66938 86.6897 2.71482 87.0194 2.74889C86.6897 2.70346 86.3599 2.66938 86.0302 2.63531Z" fill="black"/>
</g>
</g>
<defs>
<clipPath id="clip0_444_4531">
<rect width="143" height="143" fill="white"/>
</clipPath>
</defs>
</svg>
