<svg width="144" height="144" viewBox="0 0 144 144" fill="none" xmlns="http://www.w3.org/2000/svg">
<g clip-path="url(#clip0_444_4298)">
<g opacity="0.9">
<path d="M72.0001 57.0764C73.0422 57.0764 73.887 56.2316 73.887 55.1896C73.887 54.1475 73.0422 53.3027 72.0001 53.3027C70.958 53.3027 70.1133 54.1475 70.1133 55.1896C70.1133 56.2316 70.958 57.0764 72.0001 57.0764Z" fill="black"/>
<path d="M74.7001 42.6899C74.7001 44.1801 73.4887 45.3915 71.9985 45.3915C70.5083 45.3915 69.2969 44.1801 69.2969 42.6899C69.2969 41.1997 70.5083 39.9883 71.9985 39.9883C73.4887 39.9883 74.7001 41.1997 74.7001 42.6899Z" fill="black"/>
<path d="M75.5269 30.1892C75.5269 32.1404 73.9509 33.7163 71.9998 33.7163C70.0486 33.7163 68.4727 32.1404 68.4727 30.1892C68.4727 28.238 70.0486 26.6621 71.9998 26.6621C73.9509 26.6621 75.5269 28.238 75.5269 30.1892Z" fill="black"/>
<path d="M71.9971 22.0314C74.401 22.0314 76.3497 20.0826 76.3497 17.6788C76.3497 15.2749 74.401 13.3262 71.9971 13.3262C69.5933 13.3262 67.6445 15.2749 67.6445 17.6788C67.6445 20.0826 69.5933 22.0314 71.9971 22.0314Z" fill="black"/>
<path d="M77.1765 5.17808C77.1765 8.0405 74.8608 10.3562 71.9984 10.3562C69.136 10.3562 66.8203 8.0405 66.8203 5.17808C66.8203 2.31566 69.136 0 71.9984 0C74.8608 0 77.1765 2.31566 77.1765 5.17808Z" fill="black"/>
<path d="M70.1133 88.8107C70.1133 87.7708 70.9602 86.9238 72.0001 86.9238C73.04 86.9238 73.887 87.7708 73.887 88.8107C73.887 89.8506 73.04 90.6975 72.0001 90.6975C70.9602 90.6975 70.1133 89.8506 70.1133 88.8107Z" fill="black"/>
<path d="M69.2969 101.311C69.2969 99.8208 70.5083 98.6094 71.9985 98.6094C73.4887 98.6094 74.7001 99.8208 74.7001 101.311C74.7001 102.801 73.4887 104.013 71.9985 104.013C70.5083 104.013 69.2969 102.801 69.2969 101.311Z" fill="black"/>
<path d="M68.4727 113.81C68.4727 111.859 70.0486 110.283 71.9998 110.283C73.9509 110.283 75.5269 111.859 75.5269 113.81C75.5269 115.761 73.9509 117.337 71.9998 117.337C70.0486 117.337 68.4727 115.761 68.4727 113.81Z" fill="black"/>
<path d="M76.3507 126.523C76.4597 124.122 74.6014 122.087 72.2 121.978C69.7986 121.869 67.7635 123.727 67.6545 126.128C67.5454 128.53 69.4038 130.565 71.8051 130.674C74.2065 130.783 76.2417 128.925 76.3507 126.523Z" fill="black"/>
<path d="M66.8203 138.823C66.8203 135.96 69.136 133.645 71.9984 133.645C74.8608 133.645 77.1765 135.96 77.1765 138.823C77.1765 141.685 74.8608 144.001 71.9984 144.001C69.136 144.001 66.8203 141.685 66.8203 138.823Z" fill="black"/>
<path d="M88.8087 73.887C87.7688 73.887 86.9219 73.04 86.9219 72.0001C86.9219 70.9602 87.7688 70.1133 88.8087 70.1133C89.8486 70.1133 90.6955 70.9602 90.6955 72.0001C90.6955 73.04 89.8486 73.887 88.8087 73.887Z" fill="black"/>
<path d="M101.307 74.702C99.8169 74.702 98.6055 73.4906 98.6055 72.0004C98.6055 70.5103 99.8169 69.2988 101.307 69.2988C102.797 69.2988 104.009 70.5103 104.009 72.0004C104.009 73.4906 102.797 74.702 101.307 74.702Z" fill="black"/>
<path d="M113.808 75.5269C111.857 75.5269 110.281 73.9509 110.281 71.9998C110.281 70.0486 111.857 68.4727 113.808 68.4727C115.76 68.4727 117.335 70.0486 117.335 71.9998C117.335 73.9509 115.76 75.5269 113.808 75.5269Z" fill="black"/>
<path d="M126.321 76.3536C123.92 76.3536 121.969 74.4025 121.969 72.001C121.969 69.5996 123.92 67.6484 126.321 67.6484C128.723 67.6484 130.674 69.5996 130.674 72.001C130.674 74.4025 128.723 76.3536 126.321 76.3536Z" fill="black"/>
<path d="M138.819 77.1784C135.956 77.1784 133.641 74.8628 133.641 72.0003C133.641 69.1379 135.956 66.8223 138.819 66.8223C141.681 66.8223 143.997 69.1379 143.997 72.0003C143.997 74.8628 141.681 77.1784 138.819 77.1784Z" fill="black"/>
<path d="M55.1915 73.887C56.2336 73.887 57.0784 73.0422 57.0784 72.0001C57.0784 70.958 56.2336 70.1133 55.1915 70.1133C54.1495 70.1133 53.3047 70.958 53.3047 72.0001C53.3047 73.0422 54.1495 73.887 55.1915 73.887Z" fill="black"/>
<path d="M42.6899 69.2871C44.1801 69.2871 45.3915 70.4985 45.3915 71.9887C45.3915 73.4789 44.1801 74.6903 42.6899 74.6903C41.1997 74.6903 39.9883 73.4789 39.9883 71.9887C39.9883 70.4985 41.1997 69.2871 42.6899 69.2871Z" fill="black"/>
<path d="M30.1912 68.4727C32.1423 68.4727 33.7183 70.0486 33.7183 71.9998C33.7183 73.9509 32.1423 75.5269 30.1912 75.5269C28.24 75.5269 26.6641 73.9509 26.6641 71.9998C26.6641 70.0486 28.24 68.4727 30.1912 68.4727Z" fill="black"/>
<path d="M17.6768 67.6484C20.0782 67.6484 22.0294 69.5996 22.0294 72.001C22.0294 74.4025 20.0782 76.3536 17.6768 76.3536C15.2754 76.3536 13.3242 74.4025 13.3242 72.001C13.3242 69.5996 15.2754 67.6484 17.6768 67.6484Z" fill="black"/>
<path d="M5.17808 66.8223C8.0405 66.8223 10.3562 69.1379 10.3562 72.0003C10.3562 74.8628 8.0405 77.1784 5.17808 77.1784C2.31566 77.1784 0 74.8628 0 72.0003C0 69.1379 2.31566 66.8223 5.17808 66.8223Z" fill="black"/>
<path d="M87.5036 65.2249C86.6031 65.7395 85.456 65.4393 84.9307 64.5388C84.4161 63.6382 84.7162 62.4911 85.6168 61.9658C86.5173 61.4512 87.6644 61.7514 88.1897 62.6519C88.7043 63.5525 88.4042 64.6996 87.5036 65.2249Z" fill="black"/>
<path d="M98.7382 59.6932C97.441 60.4437 95.79 59.9934 95.0396 58.7069C94.2891 57.4097 94.7394 55.7588 96.0259 55.0083C97.3231 54.2579 98.974 54.7081 99.7245 55.9946C100.475 57.2811 100.025 58.9428 98.7382 59.6932Z" fill="black"/>
<path d="M109.986 54.15C108.292 55.1255 106.137 54.5466 105.161 52.8528C104.186 51.1589 104.765 49.004 106.458 48.0285C108.152 47.0529 110.307 47.6318 111.283 49.3257C112.258 51.0195 111.679 53.1744 109.986 54.15Z" fill="black"/>
<path d="M121.222 48.6178C119.142 49.8185 116.472 49.111 115.272 47.0205C114.071 44.9406 114.779 42.2712 116.869 41.0705C118.96 39.8698 121.618 40.5773 122.819 42.6679C124.02 44.7477 123.312 47.4171 121.222 48.6178Z" fill="black"/>
<path d="M132.455 43.0755C129.979 44.5014 126.806 43.6545 125.38 41.178C123.954 38.7015 124.801 35.5282 127.277 34.1024C129.754 32.6765 132.927 33.5234 134.353 35.9999C135.779 38.4764 134.932 41.6497 132.455 43.0755Z" fill="black"/>
<path d="M56.4996 78.7744C57.4001 78.2598 58.5472 78.56 59.0725 79.4605C59.5871 80.3611 59.287 81.5082 58.3864 82.0335C57.4859 82.5481 56.3388 82.2479 55.8135 81.3474C55.2989 80.4468 55.5991 79.2997 56.4996 78.7744Z" fill="black"/>
<path d="M45.2641 84.3071C46.5613 83.5567 48.2123 84.007 48.9628 85.2934C49.7132 86.5906 49.2629 88.2416 47.9765 88.9921C46.6793 89.7425 45.0283 89.2922 44.2778 88.0058C43.5274 86.7086 43.9777 85.0576 45.2641 84.3071Z" fill="black"/>
<path d="M34.0171 89.8488C35.7109 88.8732 37.8658 89.4521 38.8414 91.146C39.8169 92.8398 39.238 94.9947 37.5442 95.9703C35.8503 96.9459 33.6954 96.3669 32.7199 94.6731C31.7443 92.9792 32.3232 90.8244 34.0171 89.8488Z" fill="black"/>
<path d="M22.7831 95.381C24.8629 94.1803 27.5323 94.8879 28.7331 96.9784C29.9338 99.0582 29.2262 101.728 27.1357 102.928C25.0559 104.129 22.3864 103.422 21.1857 101.331C19.985 99.2512 20.6926 96.5817 22.7831 95.381Z" fill="black"/>
<path d="M11.5468 100.923C14.0233 99.4968 17.1966 100.344 18.6224 102.82C20.0483 105.297 19.2013 108.47 16.7249 109.896C14.2484 111.322 11.0751 110.475 9.64923 107.998C8.22338 105.522 9.07031 102.349 11.5468 100.923Z" fill="black"/>
<path d="M82.0343 58.3853C81.5197 59.2859 80.3619 59.5968 79.4614 59.0715C78.5608 58.5569 78.2499 57.399 78.7753 56.4985C79.2899 55.598 80.4477 55.2871 81.3482 55.8124C82.2488 56.327 82.5596 57.4848 82.0343 58.3853Z" fill="black"/>
<path d="M89.0042 47.9651C88.2537 49.2623 86.6027 49.7019 85.3055 48.9514C84.0083 48.201 83.5688 46.55 84.3192 45.2528C85.0697 43.9556 86.7207 43.5161 88.0179 44.2665C89.3151 45.017 89.7546 46.6679 89.0042 47.9651Z" fill="black"/>
<path d="M95.9586 37.5559C94.983 39.2497 92.8281 39.8287 91.1343 38.8531C89.4404 37.8775 88.8615 35.7226 89.8371 34.0288C90.8126 32.3349 92.9675 31.756 94.6614 32.7316C96.3552 33.7072 96.9341 35.862 95.9586 37.5559Z" fill="black"/>
<path d="M102.93 27.1353C101.729 29.2151 99.0598 29.9334 96.98 28.7327C94.9002 27.532 94.1819 24.8625 95.3826 22.7827C96.5833 20.7029 99.2528 19.9846 101.333 21.1853C103.412 22.386 104.131 25.0555 102.93 27.1353Z" fill="black"/>
<path d="M109.896 16.7249C108.47 19.2013 105.297 20.0483 102.82 18.6224C100.344 17.1966 99.4968 14.0233 100.923 11.5468C102.349 9.07031 105.522 8.22338 107.998 9.64923C110.475 11.0751 111.322 14.2484 109.896 16.7249Z" fill="black"/>
<path d="M61.9667 85.6157C62.4813 84.7151 63.6391 84.4042 64.5396 84.9296C65.4402 85.4442 65.7511 86.602 65.2258 87.5025C64.7112 88.4031 63.5533 88.714 62.6528 88.1886C61.7523 87.6741 61.4414 86.5162 61.9667 85.6157Z" fill="black"/>
<path d="M54.995 96.036C55.7455 94.7388 57.3965 94.2993 58.6937 95.0497C59.9909 95.8002 60.4304 97.4511 59.68 98.7483C58.9295 100.046 57.2785 100.485 55.9813 99.7346C54.6841 98.9842 54.2446 97.3332 54.995 96.036Z" fill="black"/>
<path d="M48.0402 106.447C49.0158 104.753 51.1706 104.174 52.8645 105.15C54.5583 106.125 55.1373 108.28 54.1617 109.974C53.1861 111.668 51.0312 112.247 49.3374 111.271C47.6435 110.295 47.0646 108.141 48.0402 106.447Z" fill="black"/>
<path d="M41.0701 116.867C42.2708 114.787 44.9403 114.069 47.0201 115.269C49.0999 116.47 49.8182 119.139 48.6174 121.219C47.4167 123.299 44.7473 124.017 42.6675 122.817C40.5877 121.616 39.8694 118.947 41.0701 116.867Z" fill="black"/>
<path d="M34.1024 127.275C35.5282 124.799 38.7015 123.952 41.178 125.378C43.6545 126.804 44.5014 129.977 43.0755 132.453C41.6497 134.93 38.4764 135.777 35.9999 134.351C33.5234 132.925 32.6765 129.752 34.1024 127.275Z" fill="black"/>
<path d="M78.1638 56.2504C77.8957 57.2581 76.8666 57.8478 75.8588 57.5798C74.8511 57.3118 74.2614 56.2826 74.5294 55.2748C74.7975 54.2671 75.8266 53.6774 76.8344 53.9455C77.8421 54.2135 78.4318 55.2427 78.1638 56.2504Z" fill="black"/>
<path d="M82.2069 44.3836C81.821 45.8309 80.3308 46.6886 78.8942 46.3026C77.447 45.9167 76.5893 44.4265 76.9753 42.99C77.3612 41.5427 78.8514 40.685 80.2879 41.071C81.7352 41.4569 82.5929 42.9471 82.2069 44.3836Z" fill="black"/>
<path d="M86.2362 32.5254C85.7324 34.4123 83.7919 35.5272 81.9158 35.0234C80.029 34.5195 78.914 32.579 79.4179 30.7029C79.9218 28.8161 81.8622 27.7011 83.7383 28.205C85.6252 28.7089 86.7401 30.6493 86.2362 32.5254Z" fill="black"/>
<path d="M90.2685 20.6584C89.6467 22.9848 87.256 24.3571 84.9296 23.7353C82.6032 23.1135 81.231 20.7228 81.8527 18.3964C82.4745 16.07 84.8653 14.6977 87.1916 15.3195C89.518 15.9413 90.8903 18.3321 90.2685 20.6584Z" fill="black"/>
<path d="M94.2999 8.80144C93.5602 11.5674 90.7192 13.2076 87.9533 12.4679C85.1874 11.7282 83.5471 8.8872 84.2868 6.12127C85.0266 3.35534 87.8675 1.71508 90.6335 2.4548C93.3994 3.19453 95.0397 6.03551 94.2999 8.80144Z" fill="black"/>
<path d="M65.8341 87.7475C66.1022 86.7397 67.1313 86.1501 68.1391 86.4181C69.1468 86.6861 69.7365 87.7153 69.4684 88.7231C69.2004 89.7308 68.1712 90.3204 67.1635 90.0524C66.1558 89.7844 65.5661 88.7552 65.8341 87.7475Z" fill="black"/>
<path d="M61.7956 99.615C62.1815 98.1677 63.6717 97.31 65.1082 97.696C66.5555 98.0819 67.4132 99.5721 67.0272 101.009C66.6413 102.456 65.1511 103.314 63.7146 102.928C62.2673 102.542 61.4096 101.052 61.7956 99.615Z" fill="black"/>
<path d="M57.7617 111.472C58.2655 109.586 60.206 108.471 62.0821 108.975C63.9689 109.478 65.0839 111.419 64.58 113.295C64.0761 115.182 62.1357 116.297 60.2596 115.793C58.3727 115.289 57.2578 113.349 57.7617 111.472Z" fill="black"/>
<path d="M53.7317 123.34C54.3535 121.013 56.7442 119.641 59.0705 120.263C61.3969 120.885 62.7692 123.275 62.1474 125.602C61.5256 127.928 59.1349 129.3 56.8085 128.679C54.4821 128.057 53.1099 125.666 53.7317 123.34Z" fill="black"/>
<path d="M49.7009 135.197C50.4406 132.432 53.2816 130.791 56.0475 131.531C58.8135 132.271 60.4537 135.112 59.714 137.878C58.9743 140.644 56.1333 142.284 53.3674 141.544C50.6014 140.804 48.9612 137.963 49.7009 135.197Z" fill="black"/>
<path d="M69.4684 55.2748C69.7365 56.2826 69.1468 57.3118 68.1391 57.5798C67.1313 57.8478 66.1022 57.2581 65.8341 56.2504C65.5661 55.2427 66.1558 54.2135 67.1635 53.9455C68.1712 53.6774 69.2004 54.2671 69.4684 55.2748Z" fill="black"/>
<path d="M67.0272 42.99C67.4132 44.4372 66.5555 45.9167 65.1082 46.3026C63.661 46.6886 62.1815 45.8309 61.7956 44.3836C61.4096 42.9364 62.2673 41.4569 63.7146 41.071C65.1619 40.685 66.6413 41.5427 67.0272 42.99Z" fill="black"/>
<path d="M64.5917 30.6932C65.0956 32.58 63.9806 34.5097 62.0938 35.0136C60.207 35.5175 58.2772 34.4025 57.7734 32.5157C57.2695 30.6288 58.3845 28.6991 60.2713 28.1952C62.1581 27.6914 64.0878 28.8063 64.5917 30.6932Z" fill="black"/>
<path d="M62.1467 18.4074C62.7685 20.7338 61.3855 23.1245 59.0698 23.7463C56.7542 24.3681 54.3527 22.9851 53.7309 20.6694C53.1091 18.3431 54.4921 15.9524 56.8078 15.3306C59.1342 14.7088 61.5249 16.0917 62.1467 18.4074Z" fill="black"/>
<path d="M59.714 6.12127C60.4537 8.8872 58.8135 11.7282 56.0475 12.4679C53.2816 13.2076 50.4406 11.5674 49.7009 8.80144C48.9612 6.03551 50.6014 3.19453 53.3674 2.4548C56.1333 1.71508 58.9743 3.35534 59.714 6.12127Z" fill="black"/>
<path d="M74.5294 88.7231C74.2614 87.7153 74.8511 86.6861 75.8588 86.4181C76.8666 86.1501 77.8957 86.7397 78.1638 87.7475C78.4318 88.7552 77.8421 89.7844 76.8344 90.0524C75.8266 90.3204 74.7975 89.7308 74.5294 88.7231Z" fill="black"/>
<path d="M76.9753 101.009C76.5893 99.5614 77.447 98.0819 78.8942 97.696C80.3415 97.31 81.821 98.1677 82.2069 99.615C82.5929 101.062 81.7352 102.542 80.2879 102.928C78.8406 103.314 77.3612 102.456 76.9753 101.009Z" fill="black"/>
<path d="M79.4062 113.305C78.9023 111.418 80.0173 109.488 81.9041 108.984C83.7909 108.48 85.7207 109.595 86.2245 111.482C86.7284 113.369 85.6135 115.299 83.7266 115.803C81.8398 116.307 79.9101 115.192 79.4062 113.305Z" fill="black"/>
<path d="M81.852 125.591C81.2302 123.265 82.6132 120.874 84.9289 120.252C87.2553 119.631 89.646 121.014 90.2678 123.329C90.8896 125.656 89.5066 128.046 87.1909 128.668C84.8645 129.29 82.4738 127.907 81.852 125.591Z" fill="black"/>
<path d="M84.2868 137.878C83.5471 135.112 85.1874 132.271 87.9533 131.531C90.7192 130.791 93.5602 132.432 94.2999 135.197C95.0397 137.963 93.3994 140.804 90.6335 141.544C87.8675 142.284 85.0266 140.644 84.2868 137.878Z" fill="black"/>
<path d="M61.4401 58.7814C62.1798 59.5211 62.1798 60.7111 61.4401 61.4401C60.7004 62.1691 59.5104 62.1798 58.7814 61.4401C58.0416 60.7004 58.0416 59.5104 58.7814 58.7814C59.5211 58.0416 60.7111 58.0416 61.4401 58.7814Z" fill="black"/>
<path d="M53.1819 49.3585C54.2432 50.4199 54.2432 52.1244 53.1819 53.1858C52.1205 54.2471 50.4159 54.2471 49.3546 53.1858C48.2933 52.1244 48.2933 50.4199 49.3546 49.3585C50.4159 48.2972 52.1205 48.2972 53.1819 49.3585Z" fill="black"/>
<path d="M44.9276 39.9357C46.3106 41.3186 46.3106 43.5485 44.9276 44.9315C43.5446 46.3145 41.3147 46.3145 39.9318 44.9315C38.5488 43.5485 38.5488 41.3186 39.9318 39.9357C41.3147 38.5527 43.5446 38.5527 44.9276 39.9357Z" fill="black"/>
<path d="M36.6733 30.5109C38.3779 32.2154 38.3779 34.9707 36.6733 36.6752C34.9687 38.3798 32.2135 38.3798 30.5089 36.6752C28.8043 34.9707 28.8043 32.2154 30.5089 30.5109C32.2135 28.8063 34.9687 28.8063 36.6733 30.5109Z" fill="black"/>
<path d="M28.4083 21.0879C30.4345 23.1141 30.4345 26.3946 28.4083 28.4101C26.3821 30.4363 23.1015 30.4363 21.0861 28.4101C19.0599 26.3839 19.0599 23.1034 21.0861 21.0879C23.1123 19.0724 26.3928 19.0617 28.4083 21.0879Z" fill="black"/>
<path d="M82.5587 85.2194C81.819 84.4796 81.819 83.2897 82.5587 82.5607C83.2984 81.8209 84.4884 81.8209 85.2174 82.5607C85.9571 83.3004 85.9571 84.4904 85.2174 85.2194C84.4777 85.9484 83.2877 85.9591 82.5587 85.2194Z" fill="black"/>
<path d="M90.8155 94.6428C89.7542 93.5815 89.7542 91.8769 90.8155 90.8155C91.8769 89.7542 93.5815 89.7542 94.6428 90.8155C95.7042 91.8769 95.7042 93.5815 94.6428 94.6428C93.5815 95.7042 91.8769 95.7042 90.8155 94.6428Z" fill="black"/>
<path d="M99.0685 104.066C97.6855 102.683 97.6855 100.453 99.0685 99.0704C100.451 97.6875 102.681 97.6875 104.064 99.0704C105.447 100.453 105.447 102.683 104.064 104.066C102.681 105.449 100.451 105.449 99.0685 104.066Z" fill="black"/>
<path d="M107.325 113.49C105.621 111.785 105.621 109.03 107.325 107.325C109.03 105.621 111.785 105.621 113.49 107.325C115.194 109.03 115.194 111.785 113.49 113.49C111.785 115.194 109.03 115.194 107.325 113.49Z" fill="black"/>
<path d="M115.578 122.914C113.552 120.888 113.552 117.607 115.578 115.592C117.604 113.566 120.885 113.566 122.9 115.592C124.927 117.618 124.927 120.899 122.9 122.914C120.874 124.94 117.594 124.94 115.578 122.914Z" fill="black"/>
<path d="M56.2524 65.8361C57.2601 66.1041 57.8497 67.1333 57.5817 68.141C57.3137 69.1488 56.2845 69.7384 55.2768 69.4704C54.269 69.2024 53.6794 68.1732 53.9474 67.1655C54.2154 66.1577 55.2446 65.5681 56.2524 65.8361Z" fill="black"/>
<path d="M44.3817 61.7936C45.829 62.1796 46.6866 63.6697 46.3007 65.1063C45.9147 66.5536 44.4246 67.4112 42.988 67.0253C41.5407 66.6394 40.6831 65.1492 41.069 63.7126C41.4549 62.2653 42.9451 61.4077 44.3817 61.7936Z" fill="black"/>
<path d="M32.5274 57.7629C34.4142 58.2668 35.5292 60.2072 35.0253 62.0833C34.5214 63.9702 32.581 65.0851 30.7049 64.5812C28.818 64.0774 27.7031 62.1369 28.207 60.2608C28.7108 58.3847 30.6513 57.259 32.5274 57.7629Z" fill="black"/>
<path d="M20.6604 53.7317C22.9868 54.3535 24.359 56.7442 23.7372 59.0705C23.1154 61.3969 20.7247 62.7692 18.3983 62.1474C16.0719 61.5256 14.6997 59.1349 15.3215 56.8085C15.9433 54.4821 18.334 53.1099 20.6604 53.7317Z" fill="black"/>
<path d="M8.80144 49.7009C11.5674 50.4406 13.2076 53.2816 12.4679 56.0475C11.7282 58.8135 8.8872 60.4537 6.12127 59.714C3.35534 58.9743 1.71508 56.1333 2.4548 53.3674C3.19453 50.6014 6.03551 48.9612 8.80144 49.7009Z" fill="black"/>
<path d="M87.7494 78.1638C86.7417 77.8957 86.1521 76.8666 86.4201 75.8588C86.6881 74.8511 87.7173 74.2614 88.725 74.5294C89.7328 74.7975 90.3224 75.8266 90.0544 76.8344C89.7864 77.8421 88.7572 78.4318 87.7494 78.1638Z" fill="black"/>
<path d="M99.6169 82.1945C98.1696 81.8086 97.312 80.3184 97.6979 78.8818C98.0839 77.4453 99.574 76.5769 101.011 76.9628C102.458 77.3488 103.316 78.8389 102.93 80.2755C102.544 81.7228 101.053 82.5805 99.6169 82.1945Z" fill="black"/>
<path d="M111.474 86.2362C109.588 85.7324 108.473 83.7919 108.976 81.9158C109.48 80.029 111.421 78.914 113.297 79.4179C115.184 79.9218 116.299 81.8622 115.795 83.7383C115.291 85.6252 113.351 86.7401 111.474 86.2362Z" fill="black"/>
<path d="M123.344 90.2665C121.017 89.6447 119.645 87.254 120.267 84.9276C120.889 82.6012 123.279 81.229 125.606 81.8508C127.932 82.4726 129.304 84.8633 128.683 87.1897C128.061 89.5161 125.67 90.8883 123.344 90.2665Z" fill="black"/>
<path d="M135.199 94.298C132.433 93.5583 130.793 90.7173 131.533 87.9513C132.273 85.1854 135.114 83.5452 137.88 84.2849C140.645 85.0246 142.286 87.8656 141.546 90.6315C140.806 93.3974 137.965 95.0377 135.199 94.298Z" fill="black"/>
</g>
</g>
<defs>
<clipPath id="clip0_444_4298">
<rect width="144" height="144" fill="white"/>
</clipPath>
</defs>
</svg>
