<svg width="141" height="153" viewBox="0 0 141 153" fill="none" xmlns="http://www.w3.org/2000/svg">
<g clip-path="url(#clip0_444_4411)">
<g opacity="0.9">
<path d="M41.8437 115.123C45.8532 115.123 49.1036 111.873 49.1036 107.864C49.1036 103.854 45.8532 100.604 41.8437 100.604C37.8341 100.604 34.5838 103.854 34.5838 107.864C34.5838 111.873 37.8341 115.123 41.8437 115.123Z" fill="black"/>
<path d="M63.1519 127.916C67.0172 127.916 70.1507 124.782 70.1507 120.917C70.1507 117.052 67.0172 113.918 63.1519 113.918C59.2865 113.918 56.1531 117.052 56.1531 120.917C56.1531 124.782 59.2865 127.916 63.1519 127.916Z" fill="black"/>
<path d="M87.241 129.694C90.9622 129.694 93.9788 126.678 93.9788 122.956C93.9788 119.235 90.9622 116.219 87.241 116.219C83.5199 116.219 80.5033 119.235 80.5033 122.956C80.5033 126.678 83.5199 129.694 87.241 129.694Z" fill="black"/>
<path d="M110.044 120.456C113.621 120.456 116.52 117.557 116.52 113.98C116.52 110.403 113.621 107.503 110.044 107.503C106.467 107.503 103.567 110.403 103.567 113.98C103.567 117.557 106.467 120.456 110.044 120.456Z" fill="black"/>
<path d="M120.857 95.0912C120.857 91.6571 123.638 88.8757 127.073 88.8757C130.507 88.8757 133.288 91.6571 133.288 95.0912C133.288 98.5254 130.507 101.307 127.073 101.307C123.638 101.307 120.857 98.5254 120.857 95.0912Z" fill="black"/>
<path d="M128.478 71.8057C128.478 68.5121 131.149 65.8512 134.433 65.8512C137.716 65.8512 140.387 68.5222 140.387 71.8057C140.387 75.0892 137.716 77.7602 134.433 77.7602C131.149 77.7602 128.478 75.0892 128.478 71.8057Z" fill="black"/>
<path d="M131.861 53.4193C135.006 53.4193 137.555 50.8703 137.555 47.7259C137.555 44.5815 135.006 42.0324 131.861 42.0324C128.717 42.0324 126.168 44.5815 126.168 47.7259C126.168 50.8703 128.717 53.4193 131.861 53.4193Z" fill="black"/>
<path d="M119.382 31.5809C122.382 31.5809 124.814 29.1487 124.814 26.1485C124.814 23.1483 122.382 20.7161 119.382 20.7161C116.382 20.7161 113.95 23.1483 113.95 26.1485C113.95 29.1487 116.382 31.5809 119.382 31.5809Z" fill="black"/>
<path d="M93.8277 11.0765C93.8277 8.21468 96.1472 5.90517 98.999 5.90517C101.851 5.90517 104.17 8.22472 104.17 11.0765C104.17 13.9282 101.851 16.2477 98.999 16.2477C96.1472 16.2477 93.8277 13.9282 93.8277 11.0765Z" fill="black"/>
<path d="M70.509 4.91021C70.509 2.19905 72.7081 0 75.4192 0C78.1304 0 80.3295 2.19905 80.3295 4.91021C80.3295 7.62138 78.1304 9.82043 75.4192 9.82043C72.7081 9.82043 70.509 7.62138 70.509 4.91021Z" fill="black"/>
<path d="M46.6805 7.69096C46.6805 5.12038 48.759 3.04182 51.3296 3.04182C53.9002 3.04182 55.9787 5.12038 55.9787 7.69096C55.9787 10.2615 53.9002 12.3401 51.3296 12.3401C48.759 12.3401 46.6805 10.2615 46.6805 7.69096Z" fill="black"/>
<path d="M25.0249 19.3991C25.0249 16.9691 26.993 15.011 29.413 15.011C31.8329 15.011 33.801 16.9791 33.801 19.3991C33.801 21.819 31.8329 23.7871 29.413 23.7871C26.993 23.7871 25.0249 21.819 25.0249 19.3991Z" fill="black"/>
<path d="M8.69596 38.8402C8.69596 36.5608 10.5436 34.7132 12.8229 34.7132C15.1023 34.7132 16.9499 36.5608 16.9499 38.8402C16.9499 41.1196 15.1023 42.9672 12.8229 42.9672C10.5436 42.9672 8.69596 41.1196 8.69596 38.8402Z" fill="black"/>
<path d="M0.321637 61.8353C0.321637 59.6965 2.05879 57.9593 4.19759 57.9593C6.3364 57.9593 8.07355 59.6965 8.07355 61.8353C8.07355 63.9741 6.3364 65.7112 4.19759 65.7112C2.05879 65.7112 0.321637 63.9741 0.321637 61.8353Z" fill="black"/>
<path d="M0 86.0637C0 84.0655 1.61666 82.4488 3.61488 82.4488C5.61311 82.4488 7.22976 84.0655 7.22976 86.0637C7.22976 88.0619 5.61311 89.6786 3.61488 89.6786C1.61666 89.6786 0 88.0619 0 86.0637Z" fill="black"/>
<path d="M7.7232 109.361C7.7232 107.513 9.21936 106.007 11.077 106.007C12.9347 106.007 14.4308 107.503 14.4308 109.361C14.4308 111.218 12.9347 112.714 11.077 112.714C9.21936 112.714 7.7232 111.218 7.7232 109.361Z" fill="black"/>
<path d="M26.5604 132.655C28.2685 132.655 29.6532 131.271 29.6532 129.563C29.6532 127.855 28.2685 126.47 26.5604 126.47C24.8524 126.47 23.4677 127.855 23.4677 129.563C23.4677 131.271 24.8524 132.655 26.5604 132.655Z" fill="black"/>
<path d="M47.496 146.454C49.0599 146.454 50.3277 145.186 50.3277 143.622C50.3277 142.058 49.0599 140.791 47.496 140.791C45.9321 140.791 44.6643 142.058 44.6643 143.622C44.6643 145.186 45.9321 146.454 47.496 146.454Z" fill="black"/>
<path d="M70.9733 153C72.393 153 73.5439 151.849 73.5439 150.429C73.5439 149.01 72.393 147.859 70.9733 147.859C69.5536 147.859 68.4027 149.01 68.4027 150.429C68.4027 151.849 69.5536 153 70.9733 153Z" fill="black"/>
<path d="M92.9216 149.988C92.9216 148.713 93.9559 147.678 95.2311 147.678C96.5064 147.678 97.5406 148.713 97.5406 149.988C97.5406 151.263 96.5064 152.297 95.2311 152.297C93.9559 152.297 92.9216 151.263 92.9216 149.988Z" fill="black"/>
<path d="M116.44 142.306C116.44 141.171 117.354 140.257 118.489 140.257C119.623 140.257 120.537 141.171 120.537 142.306C120.537 143.44 119.623 144.354 118.489 144.354C117.354 144.354 116.44 143.44 116.44 142.306Z" fill="black"/>
<path d="M139.012 129.152C140 129.152 140.8 128.352 140.8 127.365C140.8 126.378 140 125.578 139.012 125.578C138.025 125.578 137.225 126.378 137.225 127.365C137.225 128.352 138.025 129.152 139.012 129.152Z" fill="black"/>
</g>
</g>
<defs>
<clipPath id="clip0_444_4411">
<rect width="140.22" height="152.37" fill="white" transform="scale(1.00413)"/>
</clipPath>
</defs>
</svg>
