<svg width="150" height="147" viewBox="0 0 150 147" fill="none" xmlns="http://www.w3.org/2000/svg">
<g clip-path="url(#clip0_444_4442)">
<g opacity="0.9">
<path d="M136.945 140.508C136.945 136.92 139.863 134.016 143.467 134.016C147.071 134.016 149.989 136.92 149.989 140.508C149.989 144.095 147.071 147 143.467 147C139.863 147 136.945 144.095 136.945 140.508Z" fill="black"/>
<path d="M137.605 123.105C137.605 119.877 140.237 117.258 143.479 117.258C146.721 117.258 149.352 119.877 149.352 123.105C149.352 126.332 146.721 128.951 143.479 128.951C140.237 128.951 137.605 126.332 137.605 123.105Z" fill="black"/>
<path d="M143.479 110.914C146.364 110.914 148.704 108.586 148.704 105.713C148.704 102.84 146.364 100.512 143.479 100.512C140.593 100.512 138.254 102.84 138.254 105.713C138.254 108.586 140.593 110.914 143.479 110.914Z" fill="black"/>
<path d="M138.902 88.3096C138.902 85.7897 140.947 83.7539 143.479 83.7539C146.01 83.7539 148.055 85.7897 148.055 88.3096C148.055 90.8296 146.01 92.8654 143.479 92.8654C140.947 92.8654 138.902 90.8296 138.902 88.3096Z" fill="black"/>
<path d="M139.551 70.918C139.551 68.7581 141.309 67.0078 143.479 67.0078C145.649 67.0078 147.407 68.7581 147.407 70.918C147.407 73.078 145.649 74.8283 143.479 74.8283C141.309 74.8283 139.551 73.078 139.551 70.918Z" fill="black"/>
<path d="M140.199 53.514C140.199 51.7141 141.658 50.2617 143.466 50.2617C145.274 50.2617 146.733 51.7141 146.733 53.514C146.733 55.314 145.274 56.7664 143.466 56.7664C141.658 56.7664 140.199 55.314 140.199 53.514Z" fill="black"/>
<path d="M140.848 36.1107C140.848 34.6708 142.02 33.5039 143.466 33.5039C144.913 33.5039 146.085 34.6708 146.085 36.1107C146.085 37.5507 144.913 38.7176 143.466 38.7176C142.02 38.7176 140.848 37.5507 140.848 36.1107Z" fill="black"/>
<path d="M141.496 18.7191C141.496 17.6392 142.381 16.7578 143.466 16.7578C144.551 16.7578 145.437 17.6392 145.437 18.7191C145.437 19.7991 144.551 20.6805 143.466 20.6805C142.381 20.6805 141.496 19.7991 141.496 18.7191Z" fill="black"/>
<path d="M142.156 1.31583C142.156 0.583432 142.742 0 143.478 0C144.214 0 144.8 0.583432 144.8 1.31583C144.8 2.04822 144.214 2.63165 143.478 2.63165C142.742 2.63165 142.156 2.04822 142.156 1.31583Z" fill="black"/>
<path d="M130.396 141.24C130.798 137.677 128.221 134.464 124.642 134.064C121.063 133.665 117.835 136.229 117.434 139.792C117.033 143.356 119.609 146.568 123.188 146.968C126.768 147.368 129.995 144.803 130.396 141.24Z" fill="black"/>
<path d="M118.039 123.105C118.039 119.877 120.67 117.258 123.912 117.258C127.155 117.258 129.786 119.877 129.786 123.105C129.786 126.332 127.155 128.951 123.912 128.951C120.67 128.951 118.039 126.332 118.039 123.105Z" fill="black"/>
<path d="M123.912 110.914C126.798 110.914 129.137 108.586 129.137 105.713C129.137 102.84 126.798 100.512 123.912 100.512C121.027 100.512 118.688 102.84 118.688 105.713C118.688 108.586 121.027 110.914 123.912 110.914Z" fill="black"/>
<path d="M119.336 88.3096C119.336 85.7897 121.381 83.7539 123.912 83.7539C126.444 83.7539 128.489 85.7897 128.489 88.3096C128.489 90.8296 126.444 92.8654 123.912 92.8654C121.381 92.8654 119.336 90.8296 119.336 88.3096Z" fill="black"/>
<path d="M119.984 70.918C119.984 68.7581 121.743 67.0078 123.912 67.0078C126.082 67.0078 127.84 68.7581 127.84 70.918C127.84 73.078 126.082 74.8283 123.912 74.8283C121.743 74.8283 119.984 73.078 119.984 70.918Z" fill="black"/>
<path d="M123.912 56.7664C125.716 56.7664 127.179 55.3102 127.179 53.514C127.179 51.7178 125.716 50.2617 123.912 50.2617C122.107 50.2617 120.645 51.7178 120.645 53.514C120.645 55.3102 122.107 56.7664 123.912 56.7664Z" fill="black"/>
<path d="M123.912 38.7176C125.358 38.7176 126.53 37.5504 126.53 36.1107C126.53 34.671 125.358 33.5039 123.912 33.5039C122.465 33.5039 121.293 34.671 121.293 36.1107C121.293 37.5504 122.465 38.7176 123.912 38.7176Z" fill="black"/>
<path d="M121.93 18.7191C121.93 17.6392 122.815 16.7578 123.9 16.7578C124.985 16.7578 125.87 17.6392 125.87 18.7191C125.87 19.7991 124.985 20.6805 123.9 20.6805C122.815 20.6805 121.93 19.7991 121.93 18.7191Z" fill="black"/>
<path d="M123.912 2.63165C124.642 2.63165 125.233 2.04254 125.233 1.31583C125.233 0.589115 124.642 0 123.912 0C123.182 0 122.59 0.589115 122.59 1.31583C122.59 2.04254 123.182 2.63165 123.912 2.63165Z" fill="black"/>
<path d="M97.8242 140.508C97.8242 136.92 100.742 134.016 104.346 134.016C107.95 134.016 110.868 136.92 110.868 140.508C110.868 144.095 107.95 147 104.346 147C100.742 147 97.8242 144.095 97.8242 140.508Z" fill="black"/>
<path d="M98.4727 123.105C98.4727 119.877 101.104 117.258 104.346 117.258C107.588 117.258 110.219 119.877 110.219 123.105C110.219 126.332 107.588 128.951 104.346 128.951C101.104 128.951 98.4727 126.332 98.4727 123.105Z" fill="black"/>
<path d="M104.346 110.914C107.232 110.914 109.571 108.586 109.571 105.713C109.571 102.84 107.232 100.512 104.346 100.512C101.46 100.512 99.1211 102.84 99.1211 105.713C99.1211 108.586 101.46 110.914 104.346 110.914Z" fill="black"/>
<path d="M99.7695 88.3096C99.7695 85.7897 101.815 83.7539 104.346 83.7539C106.877 83.7539 108.922 85.7897 108.922 88.3096C108.922 90.8296 106.877 92.8654 104.346 92.8654C101.815 92.8654 99.7695 90.8296 99.7695 88.3096Z" fill="black"/>
<path d="M100.418 70.918C100.418 68.7581 102.176 67.0078 104.346 67.0078C106.516 67.0078 108.274 68.7581 108.274 70.918C108.274 73.078 106.516 74.8283 104.346 74.8283C102.176 74.8283 100.418 73.078 100.418 70.918Z" fill="black"/>
<path d="M101.066 53.514C101.066 51.7141 102.525 50.2617 104.334 50.2617C106.142 50.2617 107.601 51.7141 107.601 53.514C107.601 55.314 106.142 56.7664 104.334 56.7664C102.525 56.7664 101.066 55.314 101.066 53.514Z" fill="black"/>
<path d="M101.715 36.1107C101.715 34.6708 102.887 33.5039 104.334 33.5039C105.78 33.5039 106.952 34.6708 106.952 36.1107C106.952 37.5507 105.78 38.7176 104.334 38.7176C102.887 38.7176 101.715 37.5507 101.715 36.1107Z" fill="black"/>
<path d="M102.375 18.7191C102.375 17.6392 103.26 16.7578 104.345 16.7578C105.43 16.7578 106.315 17.6392 106.315 18.7191C106.315 19.7991 105.43 20.6805 104.345 20.6805C103.26 20.6805 102.375 19.7991 102.375 18.7191Z" fill="black"/>
<path d="M103.023 1.31583C103.023 0.583432 103.61 0 104.345 0C105.081 0 105.667 0.583432 105.667 1.31583C105.667 2.04822 105.081 2.63165 104.345 2.63165C103.61 2.63165 103.023 2.04822 103.023 1.31583Z" fill="black"/>
<path d="M91.2673 141.232C91.6688 137.669 89.0926 134.456 85.5132 134.056C81.9338 133.657 78.7066 136.221 78.3051 139.785C77.9036 143.348 80.4798 146.56 84.0592 146.96C87.6386 147.36 90.8658 144.795 91.2673 141.232Z" fill="black"/>
<path d="M78.9102 123.105C78.9102 119.877 81.5413 117.258 84.7835 117.258C88.0256 117.258 90.6568 119.877 90.6568 123.105C90.6568 126.332 88.0256 128.951 84.7835 128.951C81.5413 128.951 78.9102 126.332 78.9102 123.105Z" fill="black"/>
<path d="M84.7835 110.914C87.6691 110.914 90.0083 108.586 90.0083 105.713C90.0083 102.84 87.6691 100.512 84.7835 100.512C81.8978 100.512 79.5586 102.84 79.5586 105.713C79.5586 108.586 81.8978 110.914 84.7835 110.914Z" fill="black"/>
<path d="M80.207 88.3096C80.207 85.7897 82.2521 83.7539 84.7835 83.7539C87.3149 83.7539 89.3599 85.7897 89.3599 88.3096C89.3599 90.8296 87.3149 92.8654 84.7835 92.8654C82.2521 92.8654 80.207 90.8296 80.207 88.3096Z" fill="black"/>
<path d="M80.8555 70.918C80.8555 68.7581 82.6137 67.0078 84.7835 67.0078C86.9532 67.0078 88.7115 68.7581 88.7115 70.918C88.7115 73.078 86.9532 74.8283 84.7835 74.8283C82.6137 74.8283 80.8555 73.078 80.8555 70.918Z" fill="black"/>
<path d="M84.7827 56.7664C86.5871 56.7664 88.0498 55.3102 88.0498 53.514C88.0498 51.7178 86.5871 50.2617 84.7827 50.2617C82.9784 50.2617 81.5156 51.7178 81.5156 53.514C81.5156 55.3102 82.9784 56.7664 84.7827 56.7664Z" fill="black"/>
<path d="M84.7827 38.7176C86.229 38.7176 87.4014 37.5504 87.4014 36.1107C87.4014 34.671 86.229 33.5039 84.7827 33.5039C83.3365 33.5039 82.1641 34.671 82.1641 36.1107C82.1641 37.5504 83.3365 38.7176 84.7827 38.7176Z" fill="black"/>
<path d="M82.8125 18.7191C82.8125 17.6392 83.6979 16.7578 84.7827 16.7578C85.8676 16.7578 86.753 17.6392 86.753 18.7191C86.753 19.7991 85.8676 20.6805 84.7827 20.6805C83.6979 20.6805 82.8125 19.7991 82.8125 18.7191Z" fill="black"/>
<path d="M83.4609 1.31583C83.4609 0.583432 84.047 0 84.7827 0C85.5185 0 86.1046 0.583432 86.1046 1.31583C86.1046 2.04822 85.5185 2.63165 84.7827 2.63165C84.047 2.63165 83.4609 2.04822 83.4609 1.31583Z" fill="black"/>
<path d="M58.6953 140.508C58.6953 136.92 61.6133 134.016 65.2171 134.016C68.8208 134.016 71.7388 136.92 71.7388 140.508C71.7388 144.095 68.8208 147 65.2171 147C61.6133 147 58.6953 144.095 58.6953 140.508Z" fill="black"/>
<path d="M65.441 128.945C68.6823 128.821 71.209 126.105 71.0845 122.878C70.96 119.651 68.2314 117.136 64.9901 117.26C61.7487 117.384 59.222 120.1 59.3466 123.327C59.4711 126.553 62.1997 129.069 65.441 128.945Z" fill="black"/>
<path d="M65.2171 110.914C68.1027 110.914 70.4419 108.586 70.4419 105.713C70.4419 102.84 68.1027 100.512 65.2171 100.512C62.3314 100.512 59.9922 102.84 59.9922 105.713C59.9922 108.586 62.3314 110.914 65.2171 110.914Z" fill="black"/>
<path d="M60.6406 88.3096C60.6406 85.7897 62.6857 83.7539 65.2171 83.7539C67.7484 83.7539 69.7935 85.7897 69.7935 88.3096C69.7935 90.8296 67.7484 92.8654 65.2171 92.8654C62.6857 92.8654 60.6406 90.8296 60.6406 88.3096Z" fill="black"/>
<path d="M61.2891 70.918C61.2891 68.7581 63.0473 67.0078 65.2171 67.0078C67.3868 67.0078 69.1451 68.7581 69.1451 70.918C69.1451 73.078 67.3868 74.8283 65.2171 74.8283C63.0473 74.8283 61.2891 73.078 61.2891 70.918Z" fill="black"/>
<path d="M65.2163 56.7664C67.0207 56.7664 68.4834 55.3102 68.4834 53.514C68.4834 51.7178 67.0207 50.2617 65.2163 50.2617C63.4119 50.2617 61.9492 51.7178 61.9492 53.514C61.9492 55.3102 63.4119 56.7664 65.2163 56.7664Z" fill="black"/>
<path d="M65.2163 38.7176C66.6626 38.7176 67.835 37.5504 67.835 36.1107C67.835 34.671 66.6626 33.5039 65.2163 33.5039C63.7701 33.5039 62.5977 34.671 62.5977 36.1107C62.5977 37.5504 63.7701 38.7176 65.2163 38.7176Z" fill="black"/>
<path d="M63.2461 18.7191C63.2461 17.6392 64.1315 16.7578 65.2163 16.7578C66.3012 16.7578 67.1866 17.6392 67.1866 18.7191C67.1866 19.7991 66.3012 20.6805 65.2163 20.6805C64.1315 20.6805 63.2461 19.7991 63.2461 18.7191Z" fill="black"/>
<path d="M63.8945 1.31583C63.8945 0.583432 64.4806 0 65.2163 0C65.9521 0 66.5381 0.583432 66.5381 1.31583C66.5381 2.04822 65.9521 2.63165 65.2163 2.63165C64.4806 2.63165 63.8945 2.04822 63.8945 1.31583Z" fill="black"/>
<path d="M39.1289 140.508C39.1289 136.92 42.0469 134.016 45.6506 134.016C49.2544 134.016 52.1724 136.92 52.1724 140.508C52.1724 144.095 49.2544 147 45.6506 147C42.0469 147 39.1289 144.095 39.1289 140.508Z" fill="black"/>
<path d="M39.7773 123.105C39.7773 119.877 42.4085 117.258 45.6507 117.258C48.8928 117.258 51.524 119.877 51.524 123.105C51.524 126.332 48.8928 128.951 45.6507 128.951C42.4085 128.951 39.7773 126.332 39.7773 123.105Z" fill="black"/>
<path d="M45.6507 110.914C48.5363 110.914 50.8755 108.586 50.8755 105.713C50.8755 102.84 48.5363 100.512 45.6507 100.512C42.765 100.512 40.4258 102.84 40.4258 105.713C40.4258 108.586 42.765 110.914 45.6507 110.914Z" fill="black"/>
<path d="M41.0742 88.3096C41.0742 85.7897 43.1193 83.7539 45.6507 83.7539C48.182 83.7539 50.2271 85.7897 50.2271 88.3096C50.2271 90.8296 48.182 92.8654 45.6507 92.8654C43.1193 92.8654 41.0742 90.8296 41.0742 88.3096Z" fill="black"/>
<path d="M41.7227 70.918C41.7227 68.7581 43.4809 67.0078 45.6507 67.0078C47.8204 67.0078 49.5787 68.7581 49.5787 70.918C49.5787 73.078 47.8204 74.8283 45.6507 74.8283C43.4809 74.8283 41.7227 73.078 41.7227 70.918Z" fill="black"/>
<path d="M45.6499 56.7664C47.4543 56.7664 48.917 55.3102 48.917 53.514C48.917 51.7178 47.4543 50.2617 45.6499 50.2617C43.8455 50.2617 42.3828 51.7178 42.3828 53.514C42.3828 55.3102 43.8455 56.7664 45.6499 56.7664Z" fill="black"/>
<path d="M45.6499 38.7176C47.0962 38.7176 48.2686 37.5504 48.2686 36.1107C48.2686 34.671 47.0962 33.5039 45.6499 33.5039C44.2037 33.5039 43.0312 34.671 43.0312 36.1107C43.0312 37.5504 44.2037 38.7176 45.6499 38.7176Z" fill="black"/>
<path d="M43.6797 18.7191C43.6797 17.6392 44.5651 16.7578 45.6499 16.7578C46.7348 16.7578 47.6202 17.6392 47.6202 18.7191C47.6202 19.7991 46.7348 20.6805 45.6499 20.6805C44.5651 20.6805 43.6797 19.7991 43.6797 18.7191Z" fill="black"/>
<path d="M44.3281 1.31583C44.3281 0.583432 44.9142 0 45.6499 0C46.3857 0 46.9717 0.583432 46.9717 1.31583C46.9717 2.04822 46.3857 2.63165 45.6499 2.63165C44.9142 2.63165 44.3281 2.04822 44.3281 1.31583Z" fill="black"/>
<path d="M32.5642 141.242C32.9657 137.678 30.3895 134.466 26.81 134.066C23.2306 133.667 20.0035 136.231 19.602 139.794C19.2005 143.358 21.7767 146.57 25.3561 146.97C28.9355 147.369 32.1627 144.805 32.5642 141.242Z" fill="black"/>
<path d="M26.316 128.951C29.5573 128.827 32.084 126.11 31.9595 122.884C31.835 119.657 29.1064 117.142 25.8651 117.266C22.6237 117.39 20.097 120.106 20.2216 123.333C20.3461 126.559 23.0747 129.075 26.316 128.951Z" fill="black"/>
<path d="M26.0882 110.914C28.9738 110.914 31.313 108.586 31.313 105.713C31.313 102.84 28.9738 100.512 26.0882 100.512C23.2025 100.512 20.8633 102.84 20.8633 105.713C20.8633 108.586 23.2025 110.914 26.0882 110.914Z" fill="black"/>
<path d="M21.5117 88.3096C21.5117 85.7897 23.5568 83.7539 26.0882 83.7539C28.6195 83.7539 30.6646 85.7897 30.6646 88.3096C30.6646 90.8296 28.6195 92.8654 26.0882 92.8654C23.5568 92.8654 21.5117 90.8296 21.5117 88.3096Z" fill="black"/>
<path d="M22.1602 70.918C22.1602 68.7581 23.9184 67.0078 26.0882 67.0078C28.2579 67.0078 30.0162 68.7581 30.0162 70.918C30.0162 73.078 28.2579 74.8283 26.0882 74.8283C23.9184 74.8283 22.1602 73.078 22.1602 70.918Z" fill="black"/>
<path d="M26.0874 56.7664C27.8918 56.7664 29.3545 55.3102 29.3545 53.514C29.3545 51.7178 27.8918 50.2617 26.0874 50.2617C24.283 50.2617 22.8203 51.7178 22.8203 53.514C22.8203 55.3102 24.283 56.7664 26.0874 56.7664Z" fill="black"/>
<path d="M26.0874 38.7176C27.5337 38.7176 28.7061 37.5504 28.7061 36.1107C28.7061 34.671 27.5337 33.5039 26.0874 33.5039C24.6412 33.5039 23.4688 34.671 23.4688 36.1107C23.4688 37.5504 24.6412 38.7176 26.0874 38.7176Z" fill="black"/>
<path d="M24.1172 18.7191C24.1172 17.6392 25.0025 16.7578 26.0874 16.7578C27.1723 16.7578 28.0577 17.6392 28.0577 18.7191C28.0577 19.7991 27.1723 20.6805 26.0874 20.6805C25.0025 20.6805 24.1172 19.7991 24.1172 18.7191Z" fill="black"/>
<path d="M26.0874 2.63165C26.8174 2.63165 27.4092 2.04254 27.4092 1.31583C27.4092 0.589115 26.8174 0 26.0874 0C25.3574 0 24.7656 0.589115 24.7656 1.31583C24.7656 2.04254 25.3574 2.63165 26.0874 2.63165Z" fill="black"/>
<path d="M0 140.508C0 136.92 2.91795 134.016 6.52174 134.016C10.1255 134.016 13.0435 136.92 13.0435 140.508C13.0435 144.095 10.1255 147 6.52174 147C2.91795 147 0 144.095 0 140.508Z" fill="black"/>
<path d="M0.648438 123.105C0.648438 119.877 3.27958 117.258 6.52174 117.258C9.76391 117.258 12.3951 119.877 12.3951 123.105C12.3951 126.332 9.76391 128.951 6.52174 128.951C3.27958 128.951 0.648438 126.332 0.648438 123.105Z" fill="black"/>
<path d="M6.52175 110.914C9.40737 110.914 11.7466 108.586 11.7466 105.713C11.7466 102.84 9.40737 100.512 6.52175 100.512C3.63613 100.512 1.29688 102.84 1.29688 105.713C1.29688 108.586 3.63613 110.914 6.52175 110.914Z" fill="black"/>
<path d="M1.94531 88.3096C1.94531 85.7897 3.99037 83.7539 6.52175 83.7539C9.05313 83.7539 11.0982 85.7897 11.0982 88.3096C11.0982 90.8296 9.05313 92.8654 6.52175 92.8654C3.99037 92.8654 1.94531 90.8296 1.94531 88.3096Z" fill="black"/>
<path d="M2.60547 70.918C2.60547 68.7581 4.36372 67.0078 6.53348 67.0078C8.70323 67.0078 10.4615 68.7581 10.4615 70.918C10.4615 73.078 8.70323 74.8283 6.53348 74.8283C4.36372 74.8283 2.60547 73.078 2.60547 70.918Z" fill="black"/>
<path d="M3.25391 53.514C3.25391 51.7141 4.71288 50.2617 6.52101 50.2617C8.32914 50.2617 9.78812 51.7141 9.78812 53.514C9.78812 55.314 8.32914 56.7664 6.52101 56.7664C4.71288 56.7664 3.25391 55.314 3.25391 53.514Z" fill="black"/>
<path d="M6.52102 38.7176C7.96727 38.7176 9.13969 37.5504 9.13969 36.1107C9.13969 34.671 7.96727 33.5039 6.52102 33.5039C5.07476 33.5039 3.90234 34.671 3.90234 36.1107C3.90234 37.5504 5.07476 38.7176 6.52102 38.7176Z" fill="black"/>
<path d="M4.55078 18.7191C4.55078 17.6392 5.43614 16.7578 6.52102 16.7578C7.6059 16.7578 8.49126 17.6392 8.49126 18.7191C8.49126 19.7991 7.6059 20.6805 6.52102 20.6805C5.43614 20.6805 4.55078 19.7991 4.55078 18.7191Z" fill="black"/>
<path d="M5.19922 1.31583C5.19922 0.583432 5.7853 0 6.52102 0C7.25675 0 7.84283 0.583432 7.84283 1.31583C7.84283 2.04822 7.25675 2.63165 6.52102 2.63165C5.7853 2.63165 5.19922 2.04822 5.19922 1.31583Z" fill="black"/>
</g>
</g>
<defs>
<clipPath id="clip0_444_4442">
<rect width="150" height="147" fill="white"/>
</clipPath>
</defs>
</svg>
