<svg width="466" height="80" viewBox="0 0 466 80" fill="none" xmlns="http://www.w3.org/2000/svg">
<g clip-path="url(#clip0_379_2458)">
<path d="M393 18.8585C393.303 17.9939 393.935 17.4957 394.741 17.0929C405.889 11.527 417.027 5.94393 428.16 0.347476C429.095 -0.122077 429.941 -0.112533 430.869 0.353202C442.047 5.96684 453.233 11.5671 464.421 17.1617C465.339 17.6217 465.99 18.2497 466 19.3319C466.011 20.4485 465.35 21.0937 464.406 21.5652C452.943 27.2971 441.487 33.0367 430.034 38.7859C429.653 38.9768 429.366 38.973 428.987 38.7821C417.511 33.0234 406.032 27.2723 394.547 21.5346C393.8 21.1624 393.291 20.6241 393.002 19.8587V18.8585H393Z" fill="black"/>
<path d="M393 35.4321C393.352 34.5656 394.031 34.0769 394.852 33.6799C396.968 32.6606 399.067 31.6013 401.153 30.5228C401.624 30.2804 401.986 30.2594 402.468 30.5018C410.994 34.7908 419.534 39.0511 428.057 43.3477C429.067 43.8574 429.954 43.8555 430.958 43.3496C439.481 39.0588 448.019 34.7984 456.542 30.5095C457.02 30.269 457.38 30.2671 457.856 30.5133C460.049 31.6471 462.259 32.7484 464.476 33.8364C465.383 34.2812 465.987 34.9206 466 35.9666C466.013 37.045 465.404 37.7036 464.474 38.1674C452.989 43.9127 441.508 49.6657 430.032 55.4301C429.648 55.6229 429.349 55.6076 428.973 55.4206C417.477 49.6504 405.977 43.8879 394.469 38.1388C393.766 37.7875 393.335 37.2416 393.002 36.5736V35.4302L393 35.4321Z" fill="black"/>
<path d="M393 52.149C393.301 51.2843 393.924 50.7728 394.737 50.3796C396.896 49.3374 399.033 48.2532 401.165 47.1557C401.629 46.9152 401.99 46.9037 402.473 47.1462C410.975 51.4275 419.494 55.6764 427.992 59.9672C429.049 60.5017 429.97 60.5017 431.023 59.9691C439.521 55.6821 448.034 51.4313 456.536 47.1538C457.003 46.919 457.363 46.8942 457.843 47.1442C460.013 48.2704 462.202 49.3603 464.396 50.4368C465.343 50.9007 466.008 51.5477 466 52.6644C465.992 53.7466 465.347 54.3822 464.427 54.8403C453.239 60.4349 442.053 66.0352 430.874 71.6507C429.918 72.1298 429.059 72.1088 428.103 71.6278C416.991 66.039 405.872 60.4692 394.745 54.9148C393.937 54.512 393.311 54.0081 393.002 53.1492V52.149H393Z" fill="black"/>
</g>
<defs>
<clipPath id="clip0_379_2458">
<rect width="73" height="72" fill="white" transform="translate(393)"/>
</clipPath>
</defs>
</svg>
