<svg width="466" height="80" viewBox="0 0 466 80" fill="none" xmlns="http://www.w3.org/2000/svg">
<g clip-path="url(#clip0_379_2420)">
<path d="M461.047 0.0498437C447.86 0.0498437 434.671 0.0547079 421.484 0.0534919C417.527 0.0534919 413.568 0.115511 409.616 -1.51548e-05C407.885 -0.049874 406.049 1.53831 406.055 2.99638C406.068 6.40015 406.057 9.80393 406.057 13.2089C406.057 14.1149 406.562 14.498 407.43 14.4992C407.892 14.4992 408.354 14.5089 408.814 14.5089C417.848 14.5089 426.882 14.5089 435.916 14.5089V14.5174C445.213 14.5174 454.51 14.5174 463.808 14.5174C465.808 14.5174 465.96 14.3922 465.981 12.4246C466.008 9.9377 465.996 7.44962 465.989 4.96154C465.976 0.733274 465.29 0.0510597 461.047 0.0510597V0.0498437Z" fill="#231F20"/>
<path d="M465.449 17.9747C465.081 17.5856 464.598 17.7059 464.153 17.7059C455.104 17.7059 446.054 17.712 437.004 17.729C436.439 17.729 435.808 17.5357 435.356 18.0914C434.79 18.3419 434.953 18.8563 434.948 19.282C434.927 21.0441 434.933 22.8074 434.933 24.5694C434.933 30.2485 434.931 35.9275 434.937 41.6078C434.939 43.5194 434.96 43.5474 436.948 43.5413C438.523 43.5365 440.097 43.4854 441.673 43.455C441.813 43.455 441.954 43.455 442.095 43.455C449.608 43.6897 457.122 43.4829 464.636 43.5377C465.787 43.5462 465.982 43.2701 465.983 41.8826C465.99 34.2895 465.976 26.6951 465.959 19.102C465.959 18.6691 466.063 18.151 465.448 17.9759L465.449 17.9747Z" fill="#231F20"/>
<path d="M440.475 47.496C439.991 46.9986 439.369 47.1725 438.795 47.1725C428.645 47.1689 418.497 47.1689 408.347 47.1871C407.721 47.1871 407.024 46.9475 406.481 47.5021L406.468 47.5118C406.098 47.6541 406.043 47.9727 406.043 48.3022C406.043 51.2913 406.047 54.2792 406.055 57.2683C406.055 57.5991 406.119 57.914 406.468 58.077L406.479 58.0891C406.512 58.3117 406.644 58.4296 406.866 58.4515L406.893 58.4722C407.044 58.792 407.291 58.9161 407.639 58.837C411.903 59.135 416.172 58.9234 420.438 58.9513C426.613 58.9915 432.789 58.9635 438.964 58.9392C440.746 58.9319 441.218 58.4819 441.241 56.7709C441.275 54.2926 441.256 51.8142 441.231 49.3359C441.225 48.6415 441.311 47.8717 440.477 47.4948L440.475 47.496Z" fill="#231F20"/>
<path d="M465.954 48.7279C465.962 47.7319 465.415 47.3172 464.517 47.2175C464.192 47.181 463.86 47.1944 463.53 47.1944C458.39 47.1932 453.252 47.1859 448.112 47.2041C447.549 47.2066 446.918 46.9852 446.43 47.4899C445.765 47.6954 445.808 48.2803 445.804 48.7729C445.782 51.509 445.786 54.2452 445.803 56.9813C445.807 57.5687 445.869 58.1682 446.517 58.4698C446.69 58.7908 446.982 58.927 447.327 58.9258C452.729 58.9246 458.132 58.9586 463.534 58.8881C465.157 58.8662 465.891 58.0502 465.937 56.3794C466.007 53.8305 465.936 51.278 465.954 48.7279ZM447.573 47.8766C447.583 47.8851 447.594 47.8924 447.604 47.9022C447.589 47.8973 447.576 47.8936 447.562 47.8888C447.566 47.8851 447.569 47.8803 447.574 47.8766H447.573ZM459.971 56.7296C456.024 56.8001 452.07 56.4438 448.128 56.9521C447.882 57.0981 447.732 57.2197 447.652 57.3218C447.648 57.3133 447.643 57.3048 447.639 57.2963C447.625 57.2938 447.609 57.2902 447.594 57.2878C447.777 57.1516 447.922 56.9436 448.031 56.6797C448.33 55.5889 448.21 54.4701 448.215 53.3623C448.227 50.8953 449.504 49.6614 452.044 49.6606C454.746 49.6606 457.448 49.6606 460.151 49.6606C462.475 49.6606 463.638 50.7952 463.639 53.0644C463.64 56.715 463.639 56.6651 459.969 56.7296H459.971Z" fill="#231F20"/>
<path d="M431.421 18.7433C431.133 17.4494 430.087 17.7351 429.217 17.7339C422.326 17.7242 415.436 17.7291 408.544 17.7437C407.971 17.7437 407.357 17.5746 406.837 17.9832C405.637 18.3602 406.081 19.3732 406.077 20.1259C406.043 27.3117 406.053 34.4987 406.056 41.6844C406.056 43.5134 406.066 43.5377 407.874 43.5401C415.178 43.5523 422.482 43.5547 429.787 43.5474C431.516 43.5462 431.671 43.3881 431.673 41.6163C431.683 34.5607 431.679 27.505 431.666 20.4494C431.666 19.8779 431.811 19.2674 431.422 18.7433H431.421ZM430.582 39.9625C430.588 39.9479 430.593 39.9333 430.599 39.9187C430.634 39.9162 430.618 39.9393 430.582 39.9625Z" fill="#231F20"/>
<path d="M447.637 57.2866C447.637 57.2866 447.64 57.2922 447.641 57.2965C447.644 57.2965 447.647 57.2965 447.65 57.2979L447.637 57.2866Z" fill="#231F20"/>
</g>
<defs>
<clipPath id="clip0_379_2420">
<rect width="60" height="59" fill="white" transform="translate(406)"/>
</clipPath>
</defs>
</svg>
