<svg width="466" height="80" viewBox="0 0 466 80" fill="none" xmlns="http://www.w3.org/2000/svg">
<g clip-path="url(#clip0_379_2432)">
<path d="M412.155 25.9397C413.778 25.5824 415.46 25.3883 417.19 25.3883C422.576 25.3883 427.54 27.2211 431.501 30.2892C435.463 27.2211 440.426 25.3883 445.813 25.3883C447.541 25.3883 449.224 25.5824 450.846 25.9397C451.388 24.1161 451.688 22.1878 451.688 20.1887C451.688 16.0071 450.418 12.1227 448.24 8.90069C447.151 7.28967 445.837 5.84344 444.34 4.60975C440.853 1.72962 436.379 0 431.501 0C426.623 0 422.149 1.72962 418.659 4.60975C418.16 5.02098 417.681 5.45531 417.225 5.91275C416.312 6.82607 415.486 7.82719 414.759 8.90069C412.583 12.1227 411.312 16.0071 411.312 20.1887C411.312 22.1878 411.614 24.1161 412.155 25.9397Z" fill="#021526"/>
<path d="M422.388 48.8113C422.388 46.4965 422.73 44.2617 423.359 42.1501C417.514 39.9769 412.768 35.5319 410.19 29.8949C409.904 30.0011 409.609 30.092 409.329 30.2106C406.914 31.2317 404.738 32.7103 402.913 34.537C401.999 35.4503 401.172 36.4514 400.447 37.5249C398.271 40.7454 397 44.6298 397 48.8113C397 53.6891 398.73 58.1633 401.61 61.6533C402.432 62.6498 403.349 63.5678 404.347 64.3902C405.343 65.2127 406.421 65.9412 407.566 66.5634C408.137 66.8745 408.727 67.1579 409.331 67.4136C411.746 68.4348 414.401 69 417.189 69C419.976 69 422.632 68.4348 425.047 67.4136C425.65 67.1579 426.239 66.8745 426.812 66.5634C427.589 66.1414 428.324 65.6516 429.036 65.1341C424.927 60.9125 422.39 55.1538 422.39 48.8129L422.388 48.8113Z" fill="#021526"/>
<path d="M420.211 36.9289C421.534 37.8222 422.98 38.5414 424.502 39.1051C425.628 36.6424 427.168 34.4061 429.034 32.4885C427.799 31.5906 426.472 30.8113 425.045 30.2091C422.63 29.1879 419.975 28.6227 417.187 28.6227C415.875 28.6227 414.597 28.7582 413.355 28.9969C413.773 29.8548 414.229 30.6911 414.759 31.4751C416.209 33.6236 418.064 35.4765 420.212 36.9273L420.211 36.9289Z" fill="#021526"/>
<path d="M462.552 37.5234C461.463 35.9123 460.149 34.4676 458.654 33.2324C457.158 31.9987 455.483 30.9745 453.67 30.209C453.39 30.0905 453.095 29.9996 452.809 29.8933C450.231 35.5304 445.485 39.9753 439.64 42.1485C440.269 44.2616 440.611 46.4949 440.611 48.8098C440.611 55.1522 438.072 60.9094 433.965 65.1311C434.676 65.6486 435.411 66.1383 436.189 66.5603C436.76 66.8715 437.35 67.1549 437.954 67.4105C440.369 68.4317 443.024 68.9969 445.812 68.9969C448.6 68.9969 451.255 68.4317 453.67 67.4105C454.21 67.1826 454.734 66.9238 455.249 66.6497C455.309 66.6173 455.375 66.5927 455.435 66.5603C456.579 65.9381 457.656 65.2096 458.654 64.3871C459.127 63.9975 459.578 63.5832 460.012 63.1519C460.758 62.4142 461.431 61.6071 462.055 60.7616C462.452 60.2225 462.823 59.6634 463.167 59.0859C464.955 56.0733 466.001 52.5678 466.001 48.8098C466.001 44.6282 464.73 40.7439 462.552 37.5218V37.5234Z" fill="#021526"/>
<path d="M437.954 30.2091C437.35 30.4647 436.762 30.7481 436.189 31.0592C435.411 31.4813 434.676 31.971 433.965 32.4885C435.832 34.4061 437.37 36.6424 438.498 39.1051C440.019 38.5414 441.466 37.8222 442.789 36.9289C443.326 36.5654 443.844 36.1788 444.343 35.766C445.838 34.5323 447.153 33.0861 448.242 31.4751C448.772 30.6896 449.228 29.8548 449.645 28.9969C448.404 28.7582 447.124 28.6227 445.813 28.6227C443.026 28.6227 440.37 29.1879 437.955 30.2091H437.954Z" fill="#021526"/>
<path d="M436.536 43.0603C434.912 43.4176 433.229 43.6117 431.501 43.6117C429.773 43.6117 428.089 43.4176 426.467 43.0603C425.925 44.8839 425.625 46.8106 425.625 48.8113C425.625 53.2902 427.102 57.4148 429.569 60.7631C430.162 61.5671 430.798 62.3387 431.501 63.0457C432.205 62.3387 432.839 61.5671 433.432 60.7631C433.83 60.2241 434.201 59.665 434.544 59.0874C436.332 56.0748 437.378 52.5694 437.378 48.8113C437.378 46.8122 437.078 44.8839 436.536 43.0603Z" fill="#021526"/>
<path d="M431.5 34.5755C430.602 35.478 429.786 36.4637 429.071 37.5234C428.54 38.3089 428.085 39.1436 427.668 40.0015C428.909 40.2402 430.189 40.3758 431.5 40.3758C432.811 40.3758 434.091 40.2402 435.332 40.0015C434.915 39.1436 434.459 38.3073 433.929 37.5234C433.213 36.4637 432.398 35.478 431.5 34.5755Z" fill="#021526"/>
</g>
<defs>
<clipPath id="clip0_379_2432">
<rect width="69" height="69" fill="white" transform="translate(397)"/>
</clipPath>
</defs>
</svg>
