<svg width="466" height="80" viewBox="0 0 466 80" fill="none" xmlns="http://www.w3.org/2000/svg">
<g clip-path="url(#clip0_379_2470)">
<path d="M465.585 30.7L465.57 30.7067L464.51 31.2664C462.125 32.5854 459.72 33.8618 457.307 35.1289C456.563 35.5198 455.994 35.2897 455.568 34.5159C450.663 25.5891 445.76 16.6623 440.855 7.73417C440.474 7.04146 440.071 6.36071 439.718 5.65471C439.285 4.78915 439.45 4.18286 440.33 3.77069C442.928 2.55412 445.54 1.36149 448.168 0.211402C449.187 -0.235337 449.833 0.0425457 450.312 0.922728C453.969 7.62913 457.63 14.3342 461.289 21.0393C462.732 23.6852 464.177 26.331 465.614 28.9809C465.651 29.0487 465.682 29.1218 465.713 29.2003L465.931 29.6909C466.1 30.0658 465.946 30.5072 465.582 30.7H465.585Z" fill="#021526"/>
<path d="M450.876 31.9552C448.615 33.439 446.411 34.8776 444.217 36.3281C442.617 37.3838 442.632 37.3785 441.129 36.1792C433.118 29.7866 425.101 23.3993 417.089 17.0093C415.773 15.9603 414.287 15.35 412.608 15.1559C410.889 14.9578 409.351 15.3833 407.963 16.3764C405.654 18.0304 403.362 19.7084 401.056 21.365C399.574 22.4314 397.948 22.4566 396.561 21.4594C394.816 20.2043 394.73 17.7526 396.381 16.415C400.478 13.0977 404.556 9.75913 408.69 6.48969C409.288 6.01636 410.134 5.71853 410.901 5.61748C414.507 5.13617 417.88 6.04162 421.114 7.56133C424.12 8.97201 427.211 10.1061 430.457 10.8467C432.814 11.3852 435.043 11.211 437.226 10.2019C437.67 9.99579 438.138 9.83757 438.672 9.6275C442.755 17.0984 446.805 24.5095 450.875 31.9552H450.876Z" fill="#021526"/>
<path d="M409.012 54.8957C409.055 56.7851 405.923 59.9907 403.799 60C402.823 59.9561 401.869 59.4801 401.337 58.362C400.843 57.3262 401.062 56.4673 402.04 55.4475C402.809 54.6458 403.595 53.86 404.363 53.0569C405.256 52.1209 406.057 51.9108 407.197 52.331C408.237 52.7152 408.988 53.7762 409.014 54.8957H409.012Z" fill="#021526"/>
<path d="M403.707 49.0349C403.694 49.5003 403.577 50.3539 401.312 52.9532C398.254 56.4593 396.9 56.704 396.34 56.7532C395.542 56.825 394.988 56.6268 394.875 56.5843C393.538 56.0884 392.475 54.6152 392.604 53.2005C392.672 52.4653 392.959 51.629 393.425 51.0732C394.888 49.3328 396.477 47.6987 398.031 46.0341C398.92 45.0821 400.14 44.8441 401.402 45.3361C401.585 45.4065 402.187 45.6605 402.726 46.2561C403.725 47.3597 403.715 48.7557 403.707 49.0336V49.0349Z" fill="#021526"/>
<path d="M390.576 48.1135C388.741 50.9402 388.255 51.3125 387.695 51.4867C387.467 51.5572 386.484 51.863 385.609 51.1344C384.485 50.1983 384.102 48.0231 384.581 46.7162C384.684 46.4369 384.874 46.2122 385.039 45.9782C386.077 44.5117 387.138 43.0718 388.154 41.5773C389.104 40.1799 389.619 40.2836 389.793 40.2597C390.973 40.0975 391.871 41.4829 391.932 41.58C392.08 41.8153 392.579 42.6689 392.592 43.8522C392.602 44.6207 392.402 45.3002 390.578 48.1122L390.576 48.1135Z" fill="#021526"/>
<path d="M386.344 39.8396C386.324 40.047 386.278 40.3448 386.155 40.6838C386.018 41.0641 385.84 41.346 385.636 41.6292C385.236 42.1836 384.555 42.8178 383.634 43.714C382.436 44.8827 380.568 44.9093 379.347 43.7991C378.08 42.6463 377.936 40.7729 379.042 39.4726C379.628 38.7825 380.288 38.1563 380.867 37.4623C381.752 36.4066 382.85 36.037 384.156 36.4106C385.362 36.7563 386.238 37.9702 386.342 39.3144C386.355 39.4886 386.343 39.6641 386.343 39.8396H386.344Z" fill="#021526"/>
<path d="M443.727 44.0849C443.246 46.0607 441.155 47.0845 439.323 46.2003C438.854 45.9743 438.417 45.6565 438.01 45.3281C435.344 43.1755 432.69 41.0069 430.03 38.8464C429.087 38.0805 428.349 38.0513 427.818 38.7373C427.314 39.3862 427.503 40.1268 428.368 40.8407C430.49 42.5931 432.617 44.3442 434.745 46.0926C436.291 47.3623 436.539 48.7159 435.495 50.2555C434.49 51.7393 432.536 52.2233 430.991 51.3338C430.538 51.0732 430.136 50.7195 429.733 50.3818C427.442 48.4632 425.16 46.5353 422.873 44.6128C422.351 44.174 421.776 44.0344 421.177 44.4253C420.611 44.7949 420.468 45.3879 420.675 45.9756C420.801 46.3319 421.13 46.6497 421.433 46.9076C423.108 48.3303 424.808 49.721 426.486 51.1383C428.057 52.4653 428.236 54.2083 426.977 55.7453C425.868 57.1002 423.952 57.2252 422.431 55.974C420.646 54.5035 418.904 52.9785 417.137 51.4827C416.757 51.1623 416.372 50.8392 415.956 50.5706C415.314 50.1611 414.693 50.2861 414.234 50.8578C413.801 51.3989 413.776 52.0318 414.308 52.5238C415.19 53.3375 416.122 54.0967 417.036 54.8758C418.443 56.0751 418.66 56.8196 417.993 58.1692C417.351 59.4668 415.825 60.3098 414.467 59.758C413.342 59.3006 412.397 58.3912 411.397 57.6493C411.3 57.5762 411.328 57.2704 411.369 57.0869C412.335 52.8455 410.476 50.0614 406.181 49.4139C406.766 44.4559 402.021 40.9923 397.67 42.9375C397.434 38.9009 393.361 36.2258 388.88 38.2986C387.845 33.5959 382.023 31.8169 378.638 35.8601C376.738 34.5518 374.835 33.2435 372.82 31.8568C376.895 24.4603 380.954 17.0971 385.054 9.65808C385.917 10.025 386.737 10.3322 387.519 10.7138C389.575 11.7189 391.604 11.5913 393.611 10.614C394.9 9.98515 396.196 9.35626 397.423 8.61834C399.017 7.66105 400.642 7.23159 402.546 7.94957C402.308 8.1623 402.091 8.37104 401.859 8.55984C399.545 10.4505 397.256 12.3704 394.905 14.2159C392.92 15.7741 392.118 17.7566 392.724 20.1751C393.353 22.6813 395.089 24.1505 397.597 24.6877C399.293 25.052 400.862 24.6744 402.267 23.6719C404.484 22.0897 406.681 20.4795 408.898 18.8973C411.07 17.347 413.275 17.3603 415.352 19.0037C421.395 23.7835 427.424 28.5807 433.444 33.3884C436.441 35.783 439.403 38.2241 442.395 40.6267C443.522 41.5321 444.083 42.6157 443.727 44.0809V44.0849Z" fill="#021526"/>
<path d="M384.004 6.22643C379.13 15.0681 374.247 23.9045 369.369 32.7449C369.002 33.411 368.641 34.0811 368.284 34.7513C367.901 35.4692 367.316 35.7112 366.598 35.3349C363.952 33.9495 361.316 32.5455 358.695 31.1109C357.898 30.6748 357.8 29.9448 358.332 28.9782C359.515 26.823 360.734 24.6877 361.912 22.5297C365.686 15.6239 369.439 8.70477 373.23 1.80823L373.571 1.18865L373.984 0.436103C374.145 0.140936 374.466 -0.0186133 374.786 0.011967C374.786 0.011967 374.787 0.011967 374.788 0.011967C374.788 0.011967 374.789 0.011967 374.79 0.0132966C374.865 0.0212741 374.94 0.0398882 375.012 0.0678094L375.906 0.425467C375.988 0.454718 376.066 0.486627 376.145 0.522526C378.515 1.60746 380.884 2.69506 383.238 3.81191C384.567 4.44346 384.716 4.93673 384.004 6.22909V6.22643Z" fill="#021526"/>
</g>
<defs>
<clipPath id="clip0_379_2470">
<rect width="108" height="60" fill="white" transform="translate(358)"/>
</clipPath>
</defs>
</svg>
