<svg width="466" height="80" viewBox="0 0 466 80" fill="none" xmlns="http://www.w3.org/2000/svg">
<g clip-path="url(#clip0_379_2446)">
<path fill-rule="evenodd" clip-rule="evenodd" d="M419.662 53.2768L417.736 55.5687C417.337 56.0381 416.573 55.9323 416.33 55.3593L411.454 43.7634L396.319 48.8319C395.867 48.9884 395.572 49.3873 395.504 49.925L393.023 69.9567C392.814 71.5874 394.065 72.9934 395.696 72.9934H416.328L420.926 55.5819L419.662 53.2768Z" fill="#021526"/>
<path fill-rule="evenodd" clip-rule="evenodd" d="M422.454 56.3157L418.062 72.9956H428.529L424.137 56.3157H422.454Z" fill="#021526"/>
<path fill-rule="evenodd" clip-rule="evenodd" d="M452.062 57.7217L445.536 69.0223C445.172 69.6636 444.183 69.5248 444.009 68.813L442.934 64.421L438.595 65.6705C437.883 65.8798 437.275 65.0975 437.641 64.4562L443.506 54.3015C440.382 51.9921 438.161 48.5212 437.502 44.5281L435.16 43.748L430.284 55.3439C430.042 55.9169 429.277 56.0381 428.878 55.5532L426.935 53.279L425.668 55.6061L430.266 73H450.903C452.534 73 453.785 71.594 453.594 69.9633L452.062 57.7217Z" fill="#021526"/>
<path fill-rule="evenodd" clip-rule="evenodd" d="M433.683 42.915L431.462 40.6914L424.434 47.7213L429.259 53.4509L433.683 42.915Z" fill="#021526"/>
<path fill-rule="evenodd" clip-rule="evenodd" d="M424.275 54.6475L425.767 51.9061L423.286 48.973L420.805 51.9061L422.314 54.6475H424.275Z" fill="#021526"/>
<path fill-rule="evenodd" clip-rule="evenodd" d="M430.631 39.1643V34.0605C428.599 36.5771 426.047 37.9478 423.428 37.9478H423.306C420.634 37.9831 418.029 36.6102 415.965 34.0605V39.1643L423.306 46.507L430.631 39.1643Z" fill="#021526"/>
<path fill-rule="evenodd" clip-rule="evenodd" d="M412.91 42.915L417.335 53.4509L422.16 47.7213L415.131 40.6914L412.91 42.915Z" fill="#021526"/>
<path fill-rule="evenodd" clip-rule="evenodd" d="M430.176 12.1711C427.624 14.4453 423.286 14.41 416.603 12.0675C412.542 13.89 412.439 18.3679 413.027 22.1186C414.415 30.8144 418.443 36.37 423.266 36.284H423.422C428.195 36.284 432.17 30.7461 433.54 22.1186C434.133 18.456 434.047 14.0641 430.176 12.1711Z" fill="#021526"/>
<path fill-rule="evenodd" clip-rule="evenodd" d="M411.157 18.1431C411.382 14.2888 413.101 11.6863 416.295 10.4015C416.487 10.331 416.694 10.3156 416.886 10.3839C423.342 12.6757 427.438 12.7617 429.399 10.6086C429.641 10.3486 430.007 10.2781 430.318 10.3993C433.493 11.6841 435.211 14.2712 435.456 18.1409C435.908 18.1233 436.306 18.1585 436.655 18.2269C437.853 15.2937 437.922 11.5606 436.758 8.92281C435.456 5.97205 432.957 3.76834 429.868 2.84719C429.643 2.77667 429.452 2.60478 429.348 2.39543C428.255 -0.0352586 423.188 -0.747056 418.519 0.868261C415.707 1.8401 406.977 5.90153 409.441 18.3657C409.908 18.196 410.463 18.1079 411.157 18.1431Z" fill="#021526"/>
<path fill-rule="evenodd" clip-rule="evenodd" d="M412.267 26.3718C411.919 25.1223 411.625 23.7846 411.399 22.3786C411.26 21.4751 411.174 20.6245 411.139 19.8091C408.188 19.635 408.206 22.7599 409.612 24.7564C409.96 25.2787 410.861 26.3012 412.267 26.3718Z" fill="#021526"/>
<path fill-rule="evenodd" clip-rule="evenodd" d="M435.456 19.8091C435.421 20.6245 435.335 21.4751 435.196 22.3786C434.972 23.7846 434.676 25.1223 434.328 26.3718C435.734 26.3012 436.62 25.2787 436.983 24.7741C438.303 22.8987 438.528 19.6372 435.456 19.8091Z" fill="#021526"/>
<path fill-rule="evenodd" clip-rule="evenodd" d="M454.268 39.0254L452.481 35.4665L450.694 39.0254C450.573 39.2679 450.346 39.4419 450.069 39.4772L446.129 40.0678L448.958 42.8621C449.15 43.0538 449.236 43.3315 449.2 43.5915L448.559 47.5141L452.1 45.6917C452.221 45.6211 452.342 45.6057 452.481 45.6057C452.62 45.6057 452.741 45.641 452.862 45.6917L456.403 47.5141L455.762 43.5915C455.709 43.3315 455.815 43.0538 456.004 42.8621L458.834 40.0678L454.894 39.4596C454.616 39.4419 454.389 39.2679 454.268 39.0254Z" fill="#021526"/>
<path fill-rule="evenodd" clip-rule="evenodd" d="M452.481 28.5578C445.036 28.5578 438.961 34.6158 438.961 42.0798C438.961 49.5437 445.036 55.6017 452.481 55.6017C459.926 55.6017 466.001 49.5614 466.001 42.0798C465.983 34.6158 459.926 28.5578 452.481 28.5578ZM461.175 40.1009L457.46 43.7634L458.311 48.9025C458.415 49.579 457.703 50.0837 457.112 49.7707L452.479 47.3753L447.845 49.7707C447.237 50.0837 446.525 49.5614 446.646 48.9025L447.497 43.7634L443.764 40.1009C443.277 39.6138 443.555 38.7808 444.234 38.6773L449.387 37.8972L451.729 33.2451C452.042 32.6369 452.911 32.6369 453.221 33.2451L455.563 37.8972L460.717 38.6773C461.385 38.783 461.662 39.616 461.175 40.1009Z" fill="#021526"/>
<path fill-rule="evenodd" clip-rule="evenodd" d="M444.342 63.1715L445.14 66.3823L450.485 57.1135C448.471 56.8534 446.581 56.1945 444.898 55.2051L440.125 63.4844L443.3 62.5654C443.752 62.442 444.221 62.7197 444.342 63.1715Z" fill="#021526"/>
<path fill-rule="evenodd" clip-rule="evenodd" d="M454.477 57.1311L459.822 66.3999L460.62 63.1891C460.723 62.7373 461.21 62.4597 461.662 62.5809L464.837 63.4998L460.064 55.2205C458.363 56.1923 456.49 56.8534 454.477 57.1311Z" fill="#021526"/>
</g>
<defs>
<clipPath id="clip0_379_2446">
<rect width="73" height="73" fill="white" transform="translate(393)"/>
</clipPath>
</defs>
</svg>
