<svg width="466" height="80" viewBox="0 0 466 80" fill="none" xmlns="http://www.w3.org/2000/svg">
<g clip-path="url(#clip0_379_2383)">
<path d="M438.537 0.106459C449.895 -0.94459 461.687 5.87243 464.927 16.966C469.451 32.4497 458.376 35.7816 455.774 48.7584C455.271 51.2641 456.322 54.4041 453.534 55.791L428.799 55.5984C426.81 54.0774 427.602 51.2996 427.143 49.1436C424.564 37.001 414.921 33.3036 417.405 19.2777C419.16 9.37856 428.416 1.04313 438.537 0.106459Z" fill="#021526"/>
<path d="M430.16 70.6273L452.85 70.9165C450.267 76.927 443.819 77.422 437.951 76.7929C434.511 76.4242 430.821 74.1893 430.161 70.6273H430.16Z" fill="#021526"/>
<path d="M429.967 58.2954C431.539 57.9786 451.455 57.972 452.948 58.2954C455.287 58.8015 454.951 61.7719 452.948 62.5344H429.967C427.761 61.8995 427.647 58.7634 429.967 58.2954Z" fill="#021526"/>
<path d="M429.966 64.4617C431.539 64.1449 451.455 64.1383 452.948 64.4617C455.287 64.9678 454.951 67.9382 452.948 68.7007H429.966C427.778 68.0257 427.662 64.9264 429.966 64.4617Z" fill="#021526"/>
<path d="M436.786 7.93118C431.345 9.70199 427.325 13.1279 425.25 18.4778" stroke="white" stroke-width="3" stroke-linecap="round" stroke-linejoin="round"/>
</g>
<defs>
<clipPath id="clip0_379_2383">
<rect width="49" height="77" fill="white" transform="translate(417)"/>
</clipPath>
</defs>
</svg>
